SplineFontDB: 3.0
FontName: CourerMega
FullName: Courer Mega
FamilyName: Courer Mega
Weight: Book
Copyright: Copyright (c) 2013 by Richard Alexander Hall. All rights reserved.
Version: 0.001 2013
ItalicAngle: 0
UnderlinePosition: -120
UnderlineWidth: 130
Ascent: 1638
Descent: 410
sfntRevision: 0x00000042
LayerCount: 2
Layer: 0 1 "Back"  1
Layer: 1 1 "Fore"  0
XUID: [1021 724 1758327272 14656182]
FSType: 0
OS2Version: 3
OS2_WeightWidthSlopeOnly: 0
OS2_UseTypoMetrics: 1
CreationTime: 1366114167
ModificationTime: 1366120975
PfmFamily: 17
TTFWeight: 400
TTFWidth: 5
LineGap: 0
VLineGap: 0
Panose: 2 0 5 9 0 0 0 2 0 4
OS2TypoAscent: 1421
OS2TypoAOffset: 0
OS2TypoDescent: -643
OS2TypoDOffset: 0
OS2TypoLinegap: 0
OS2WinAscent: 1797
OS2WinAOffset: 0
OS2WinDescent: 839
OS2WinDOffset: 0
HheadAscent: 1421
HheadAOffset: 0
HheadDescent: -643
HheadDOffset: 0
OS2SubXSize: 1434
OS2SubYSize: 1331
OS2SubXOff: 0
OS2SubYOff: 293
OS2SupXSize: 1434
OS2SupYSize: 1331
OS2SupXOff: 0
OS2SupYOff: 928
OS2StrikeYSize: 130
OS2StrikeYPos: 530
OS2FamilyClass: 1285
OS2Vendor: 'RAH7'
OS2CodePages: 00000093.00000000
OS2UnicodeRanges: a00000af.500068fb.00000000.00000000
DEI: 91125
TtTable: prep
PUSHW_1
 0
CALL
SVTCA[y-axis]
PUSHW_3
 1
 4
 7
CALL
PUSHW_1
 0
DUP
RCVT
RDTG
ROUND[Black]
RTG
WCVTP
EndTTInstrs
TtTable: fpgm
PUSHW_1
 0
FDEF
MPPEM
PUSHW_1
 9
LT
IF
PUSHB_2
 1
 1
INSTCTRL
EIF
PUSHW_1
 511
SCANCTRL
PUSHW_1
 68
SCVTCI
PUSHW_2
 9
 3
SDS
SDB
ENDF
PUSHW_1
 1
FDEF
DUP
DUP
RCVT
ROUND[Black]
WCVTP
PUSHB_1
 1
ADD
ENDF
PUSHW_1
 2
FDEF
PUSHW_1
 1
LOOPCALL
POP
ENDF
PUSHW_1
 3
FDEF
DUP
GC[cur]
PUSHB_1
 3
CINDEX
GC[cur]
GT
IF
SWAP
EIF
DUP
ROLL
DUP
ROLL
MD[grid]
ABS
ROLL
DUP
GC[cur]
DUP
ROUND[Grey]
SUB
ABS
PUSHB_1
 4
CINDEX
GC[cur]
DUP
ROUND[Grey]
SUB
ABS
GT
IF
SWAP
NEG
ROLL
EIF
MDAP[rnd]
DUP
PUSHB_1
 0
GTEQ
IF
ROUND[Black]
DUP
PUSHB_1
 0
EQ
IF
POP
PUSHB_1
 64
EIF
ELSE
ROUND[Black]
DUP
PUSHB_1
 0
EQ
IF
POP
PUSHB_1
 64
NEG
EIF
EIF
MSIRP[no-rp0]
ENDF
PUSHW_1
 4
FDEF
DUP
GC[cur]
PUSHB_1
 4
CINDEX
GC[cur]
GT
IF

StartChar: exclam
Encoding: 33 33 5
Width: 1228
Flags: W
LayerCount: 2
Fore
SplineSet
692.944 362.5 m 1,0,-1
 536.016 362.5 l 1,1,-1
 495.909 1201.5 l 1,2,-1
 734.135 1201.5 l 1,3,-1
 692.944 362.5 l 1,0,-1
788.5 90 m 0,4,5
 788.5 23.3011 788.5 23.3011 735.964 -22.904 c 0,6,7
 685.257 -67.5 685.257 -67.5 614 -67.5 c 128,-1,8
 542.63 -67.5 542.63 -67.5 492.39 -22.7745 c 0,9,10
 440.5 23.4194 440.5 23.4194 440.5 92 c 0,11,12
 440.5 158.58 440.5 158.58 492.39 204.774 c 0,13,14
 542.63 249.5 542.63 249.5 614 249.5 c 0,15,16
 687.611 249.5 687.611 249.5 737.421 203.994 c 0,17,18
 788.5 157.329 788.5 157.329 788.5 90 c 0,4,5
EndSplineSet
EndChar

StartChar: quotedbl
Encoding: 34 34 6
Width: 1228
Flags: W
LayerCount: 2
Fore
SplineSet
527.389 545.5 m 1,0,-1
 312.72 545.5 l 1,1,-1
 288.233 1185.5 l 1,2,-1
 549.65 1185.5 l 1,3,-1
 527.389 545.5 l 1,0,-1
916.28 545.5 m 1,4,-1
 701.611 545.5 l 1,5,-1
 679.35 1185.5 l 1,6,-1
 940.767 1185.5 l 1,7,-1
 916.28 545.5 l 1,4,-1
EndSplineSet
EndChar

StartChar: numbersign
Encoding: 35 35 7
Width: 1228
Flags: W
LayerCount: 2
Fore
SplineSet
849.702 -149.5 m 1,0,-1
 688.596 -149.5 l 1,1,-1
 713.597 289.5 l 1,2,-1
 479.842 289.5 l 1,3,-1
 456.842 -149.5 l 1,4,-1
 295.831 -149.5 l 1,5,-1
 317.831 289.5 l 1,6,-1
 127.5 289.5 l 1,7,-1
 127.5 487.5 l 1,8,-1
 329.434 487.5 l 1,9,-1
 346.443 764.5 l 1,10,-1
 127.5 764.5 l 1,11,-1
 127.5 962.5 l 1,12,-1
 356.377 962.5 l 1,13,-1
 381.377 1382.5 l 1,14,-1
 542.492 1382.5 l 1,15,-1
 517.492 962.5 l 1,16,-1
 749.377 962.5 l 1,17,-1
 774.377 1382.5 l 1,18,-1
 935.41 1382.5 l 1,19,-1
 911.41 962.5 l 1,20,-1
 1101.5 962.5 l 1,21,-1
 1101.5 764.5 l 1,22,-1
 900.655 764.5 l 1,23,-1
 884.456 487.5 l 1,24,-1
 1101.5 487.5 l 1,25,-1
 1101.5 289.5 l 1,26,-1
 874.702 289.5 l 1,27,-1
 849.702 -149.5 l 1,0,-1
723.345 487.5 m 1,28,-1
 739.544 764.5 l 1,29,-1
 507.655 764.5 l 1,30,-1
 491.456 487.5 l 1,31,-1
 723.345 487.5 l 1,28,-1
EndSplineSet
EndChar

StartChar: dollar
Encoding: 36 36 8
Width: 1228
Flags: W
LayerCount: 2
Fore
SplineSet
691.5 19.9756 m 1,0,-1
 691.5 -279 l 1,1,-1
 528.5 -279 l 1,2,-1
 528.5 20.2184 l 1,3,4
 470.642 28.4428 470.642 28.4428 381.04 56.1335 c 0,5,6
 362.959 61.7413 362.959 61.7413 351.704 63.6315 c 1,7,8
 350.34 52.3277 350.34 52.3277 349.455 36.162 c 2,9,-1
 347.834 6.55661 l 1,10,-1
 186.786 6.55661 l 1,11,-1
 188.543 39.4093 l 2,12,13
 197.391 204.833 197.391 204.833 168.771 416.44 c 2,14,-1
 164 451.717 l 1,15,-1
 324.06 451.717 l 1,16,-1
 328.962 426.13 l 2,17,18
 335.841 390.227 335.841 390.227 341.698 365.355 c 0,19,20
 346.986 342.898 346.986 342.898 364.67 304.866 c 0,21,22
 381.476 268.724 381.476 268.724 403.816 245.592 c 128,-1,23
 425.998 222.625 425.998 222.625 468.023 201.561 c 0,24,25
 495.064 188.008 495.064 188.008 528.5 180.105 c 1,26,-1
 528.5 511.114 l 1,27,28
 504.809 517.477 504.809 517.477 489.791 521.743 c 0,29,30
 466.793 528.276 466.793 528.276 426.3 542.567 c 0,31,32
 383.966 557.509 383.966 557.509 357.866 572.458 c 0,33,34
 332.484 586.996 332.484 586.996 301.25 610.917 c 0,35,36
 267.486 636.776 267.486 636.776 248.059 666.207 c 0,37,38
 229.212 694.76 229.212 694.76 216.428 734.843 c 0,39,40
 203.5 775.377 203.5 775.377 203.5 822.364 c 0,41,42
 203.5 958.574 203.5 958.574 303.502 1043.38 c 0,43,44
 391.133 1117.7 391.133 1117.7 528.5 1135.06 c 1,45,-1
 528.5 1343 l 1,46,-1
 691.5 1343 l 1,47,-1
 691.5 1133.37 l 1,48,49
 747.599 1122.19 747.599 1122.19 814.322 1094.12 c 0,50,51
 831.575 1086.46 831.575 1086.46 843.115 1082.27 c 1,52,53
 845.06 1090.91 845.06 1090.91 846.89 1102.17 c 2,54,-1
 851.184 1128.59 l 1,55,-1
 1010 1128.59 l 1,56,-1
 1007.41 1095.04 l 2,57,58
 1003.5 1044.25 1003.5 1044.25 1003.5 1003.12 c 0,59,60
 1003.5 897.3 1003.5 897.3 1025.28 719.292 c 2,61,-1
 1029.12 687.911 l 1,62,-1
 871.023 671.74 l 1,63,-1
 866.793 701.841 l 2,64,65
 862.014 735.843 862.014 735.843 849.384 786.279 c 0,66,67
 824.13 889.46 824.13 889.46 740.595 951.13 c 0,68,69
 727.146 960.409 727.146 960.409 691.5 970.55 c 1,70,-1
 691.5 632.899 l 1,71,72
 723.474 624.579 723.474 624.579 742.339 619.137 c 0,73,74
 768.371 611.628 768.371 611.628 812.334 595.899 c 0,75,76
 857.859 579.611 857.859 579.611 883.689 565.345 c 0,77,78
 908.953 551.391 908.953 551.391 941.068 528.105 c 0,79,80
 976.424 502.469 976.424 502.469 995.122 473.471 c 0,81,82
 1012.67 446.259 1012.67 446.259 1025.38 409.071 c 0,83,84
 1038.5 370.665 1038.5 370.665 1038.5 325.284 c 0,85,86
 1038.5 189.79 1038.5 189.79 927.917 107.336 c 0,87,88
 832.493 36.1849 832.493 36.1849 691.5 19.9756 c 1,0,-1
528.5 685.322 m 1,89,-1
 528.5 993.876 l 1,90,91
 524.123 993.074 524.123 993.074 519.918 992.24 c 0,92,93
 455.829 976.929 455.829 976.929 421.175 947.345 c 0,94,95
 404.016 932.526 404.016 932.526 388.902 903.136 c 0,96,97
 374.5 875.132 374.5 875.132 374.5 838 c 0,98,99
 374.5 807.976 374.5 807.976 385.137 784.337 c 0,100,101
 396.384 759.344 396.384 759.344 410.11 744.834 c 128,-1,102
 423.669 730.501 423.669 730.501 452.534 716.069 c 0,103,104
 484.565 700.054 484.565 700.054 505.974 692.766 c 0,105,106
 515.43 689.547 515.43 689.547 528.5 685.322 c 1,89,-1
691.5 466.984 m 1,107,-1
 691.5 164.238 l 1,108,109
 709.277 167.319 709.277 167.319 726.118 171.53 c 0,110,111
 758.659 179.665 758.659 179.665 795.466 198.069 c 0,112,113
 827.603 214.138 827.603 214.138 847.292 244.276 c 0,114,115
 866.5 273.677 866.5 273.677 866.5 315 c 0,116,117
 866.5 344.212 866.5 344.212 855.03 366.769 c 0,118,119
 842.672 391.073 842.672 391.073 827.456 405.119 c 0,120,121
 811.809 419.562 811.809 419.562 779.081 434.4 c 0,122,123
 743.216 450.66 743.216 450.66 720.412 458.105 c 0,124,125
 708.948 461.848 708.948 461.848 691.5 466.984 c 1,107,-1
EndSplineSet
EndChar

StartChar: percent
Encoding: 37 37 9
Width: 1228
Flags: W
LayerCount: 2
Fore
SplineSet
1144.5 260.277 m 0,0,1
 1144.5 189.043 1144.5 189.043 1107.59 124.431 c 0,2,3
 1070.46 59.4482 1070.46 59.4482 995.078 15.3612 c 0,4,5
 919.23 -29 919.23 -29 821 -29 c 0,6,7
 674.776 -29 674.776 -29 586.624 61.3812 c 0,8,9
 499.5 150.709 499.5 150.709 499.5 260.277 c 0,10,11
 499.5 310.709 499.5 310.709 520.825 361.187 c 0,12,13
 541.849 410.956 541.849 410.956 580.41 453.207 c 0,14,15
 620.095 496.69 620.095 496.69 683.13 523.63 c 128,-1,16
 746.002 550.5 746.002 550.5 821 550.5 c 0,17,18
 920.265 550.5 920.265 550.5 996.634 505.633 c 0,19,20
 1072.72 460.933 1072.72 460.933 1108.83 395.21 c 0,21,22
 1144.5 330.295 1144.5 330.295 1144.5 260.277 c 0,0,1
715.864 170.776 m 0,23,24
 755.213 133 755.213 133 821 133 c 0,25,26
 889.596 133 889.596 133 928.421 171.012 c 0,27,28
 968.5 210.251 968.5 210.251 968.5 262.138 c 0,29,30
 968.5 312.334 968.5 312.334 928.809 351.598 c 0,31,32
 890.497 389.5 890.497 389.5 821 389.5 c 0,33,34
 754.314 389.5 754.314 389.5 715.476 351.832 c 0,35,36
 675.5 313.06 675.5 313.06 675.5 262.138 c 0,37,38
 675.5 209.526 675.5 209.526 715.864 170.776 c 0,23,24
704.5 966.803 m 0,39,40
 704.5 853.076 704.5 853.076 615.33 765.487 c 0,41,42
 525.697 678.5 525.697 678.5 381 678.5 c 0,43,44
 238.189 678.5 238.189 678.5 148.6 766.502 c 0,45,46
 59.5 854.023 59.5 854.023 59.5 966.803 c 0,47,48
 59.5 1077.36 59.5 1077.36 147.194 1166.7 c 0,49,50
 235.83 1257 235.83 1257 381 1257 c 0,51,52
 479.168 1257 479.168 1257 555.488 1212.7 c 0,53,54
 631.576 1168.53 631.576 1168.53 668.234 1102.85 c 0,55,56
 704.5 1037.87 704.5 1037.87 704.5 966.803 c 0,39,40
275.864 877.276 m 0,57,58
 315.216 839.5 315.216 839.5 383 839.5 c 0,59,60
 448.969 839.5 448.969 839.5 488.347 876.589 c 0,61,62
 528.5 914.409 528.5 914.409 528.5 966.862 c 0,63,64
 528.5 1019.64 528.5 1019.64 488.911 1058.44 c 0,65,66
 450.588 1096 450.588 1096 383 1096 c 0,67,68
 313.593 1096 313.593 1096 275.291 1057.75 c 0,69,70
 235.5 1018.02 235.5 1018.02 235.5 966.862 c 0,71,72
 235.5 916.024 235.5 916.024 275.864 877.276 c 0,57,58
1026.96 903.038 m 1,73,-1
 1093.48 747.286 l 1,74,-1
 201.941 351.881 l 1,75,-1
 135.619 508.792 l 1,76,-1
 1026.96 903.038 l 1,73,-1
EndSplineSet
EndChar

StartChar: ampersand
Encoding: 38 38 10
Width: 1228
Flags: W
LayerCount: 2
Fore
SplineSet
1130.5 -32.5 m 1,0,-1
 846.839 -32.5 l 1,1,-1
 775.73 71.6247 l 1,2,3
 765.524 61.4297 765.524 61.4297 757.018 53.5948 c 0,4,5
 736.3 34.512 736.3 34.512 697.865 8.18653 c 0,6,7
 657.008 -19.7987 657.008 -19.7987 606.428 -34.2495 c 0,8,9
 556.55 -48.5 556.55 -48.5 498 -48.5 c 0,10,11
 348.47 -48.5 348.47 -48.5 257.783 52.8253 c 0,12,13
 168.5 152.582 168.5 152.582 168.5 283 c 0,14,15
 168.5 399.432 168.5 399.432 240.073 499.418 c 0,16,17
 300.213 583.43 300.213 583.43 396.871 629.346 c 1,18,19
 334.033 725.304 334.033 725.304 315.783 762.766 c 0,20,21
 293.5 808.505 293.5 808.505 293.5 872 c 0,22,23
 293.5 987.354 293.5 987.354 377.114 1063.53 c 0,24,25
 459.413 1138.5 459.413 1138.5 590 1138.5 c 0,26,27
 680.422 1138.5 680.422 1138.5 764.694 1100.93 c 1,28,29
 821.91 1077.95 821.91 1077.95 882.582 1041.95 c 2,30,-1
 898.5 1032.51 l 1,31,-1
 898.5 830.5 l 1,32,-1
 731.5 830.5 l 1,33,-1
 731.5 935.969 l 1,34,35
 710.605 948.028 710.605 948.028 673.836 960.799 c 0,36,37
 631.514 975.5 631.514 975.5 590 975.5 c 0,38,39
 528.908 975.5 528.908 975.5 504.632 947.298 c 0,40,41
 478.5 916.94 478.5 916.94 478.5 881 c 0,42,43
 478.5 864.523 478.5 864.523 487.484 843.039 c 0,44,45
 498.051 817.77 498.051 817.77 508.304 800.829 c 0,46,47
 519.363 782.555 519.363 782.555 552.905 733.231 c 2,48,-1
 787.345 385.522 l 1,49,50
 802.364 419.652 802.364 419.652 810.122 440.052 c 0,51,52
 823.321 474.758 823.321 474.758 858.056 582.936 c 2,53,-1
 865.301 605.5 l 1,54,-1
 1115.5 605.5 l 1,55,-1
 1115.5 444.5 l 1,56,-1
 984.031 444.5 l 1,57,58
 945.415 336.891 945.415 336.891 891.702 229.517 c 1,59,-1
 961.103 128.5 l 1,60,-1
 1130.5 128.5 l 1,61,-1
 1130.5 -32.5 l 1,0,-1
488.476 499.8 m 1,62,63
 443.993 475.902 443.993 475.902 409.775 433.569 c 0,64,65
 368.5 382.506 368.5 382.506 368.5 307 c 0,66,67
 368.5 232.479 368.5 232.479 409.879 174.985 c 0,68,69
 447.652 122.5 447.652 122.5 522 122.5 c 0,70,71
 553.5 122.5 553.5 122.5 581.305 132.19 c 128,-1,72
 609.082 141.87 609.082 141.87 631.755 159.924 c 0,73,74
 657.318 180.28 657.318 180.28 669.519 192.481 c 0,75,76
 675.767 198.729 675.767 198.729 684.036 207.762 c 1,77,-1
 488.476 499.8 l 1,62,63
EndSplineSet
EndChar

StartChar: quotesingle
Encoding: 39 39 11
Width: 1228
Flags: W
LayerCount: 2
Fore
SplineSet
720.276 542.5 m 1,0,-1
 506.619 542.5 l 1,1,-1
 463.233 1185.5 l 1,2,-1
 765.887 1185.5 l 1,3,-1
 720.276 542.5 l 1,0,-1
EndSplineSet
EndChar

StartChar: parenleft
Encoding: 40 40 12
Width: 1228
Flags: W
LayerCount: 2
Fore
SplineSet
817.031 -215.137 m 2,0,1
 699.571 -40.4751 699.571 -40.4751 627.682 174.179 c 0,2,3
 555.5 389.71 555.5 389.71 555.5 565 c 0,4,5
 555.5 738.22 555.5 738.22 626.631 954.168 c 0,6,7
 697.534 1169.42 697.534 1169.42 817.03 1347.13 c 2,8,-1
 826.689 1361.5 l 1,9,-1
 1001.56 1361.5 l 1,10,-1
 976.828 1313.99 l 2,11,12
 938.999 1241.33 938.999 1241.33 917.569 1198.47 c 0,13,14
 896.434 1156.2 896.434 1156.2 857.821 1067.08 c 0,15,16
 819.567 978.79 819.567 978.79 798.623 909.141 c 128,-1,17
 777.659 839.422 777.659 839.422 760.478 744.701 c 0,18,19
 743.5 651.093 743.5 651.093 743.5 565 c 128,-1,20
 743.5 478.946 743.5 478.946 760.473 385.828 c 0,21,22
 777.632 291.69 777.632 291.69 799.081 221.497 c 128,-1,23
 820.561 151.205 820.561 151.205 858.355 63.3426 c 0,24,25
 896.441 -25.1997 896.441 -25.1997 918.002 -67.8324 c 0,26,27
 939.93 -111.192 939.93 -111.192 976.821 -181.98 c 2,28,-1
 1001.58 -229.5 l 1,29,-1
 826.691 -229.5 l 1,30,-1
 817.031 -215.137 l 2,0,1
EndSplineSet
EndChar

StartChar: parenright
Encoding: 41 41 13
Width: 1228
Flags: W
LayerCount: 2
Fore
SplineSet
252.455 -181.463 m 2,0,1
 295.08 -103.151 295.08 -103.151 325.751 -39.8323 c 0,2,3
 356.25 23.1313 356.25 23.1313 398.844 129.119 c 0,4,5
 440.773 233.452 440.773 233.452 464.185 345.64 c 0,6,7
 487.5 457.361 487.5 457.361 487.5 565 c 128,-1,8
 487.5 672.732 487.5 672.732 465.153 782.518 c 0,9,10
 442.751 892.575 442.751 892.575 399.391 999.264 c 0,11,12
 355.241 1107.9 355.241 1107.9 327.143 1167.06 c 128,-1,13
 298.987 1226.34 298.987 1226.34 252.333 1313.69 c 2,14,-1
 226.797 1361.5 l 1,15,-1
 404.575 1361.5 l 1,16,-1
 414.196 1346.79 l 2,17,18
 539.594 1155.13 539.594 1155.13 607.428 944.984 c 0,19,20
 675.5 734.102 675.5 734.102 675.5 565 c 0,21,22
 675.5 391.732 675.5 391.732 604.84 179.245 c 0,23,24
 534.487 -32.3171 534.487 -32.3171 414.135 -214.888 c 2,25,-1
 404.502 -229.5 l 1,26,-1
 226.308 -229.5 l 1,27,-1
 252.455 -181.463 l 2,0,1
EndSplineSet
EndChar

StartChar: asterisk
Encoding: 42 42 14
Width: 1228
Flags: W
LayerCount: 2
Fore
SplineSet
943.443 500.028 m 1,0,-1
 775.885 375.471 l 1,1,-1
 614 619.251 l 1,2,-1
 452.034 375.349 l 1,3,-1
 285.647 500.14 l 1,4,-1
 465.822 724.883 l 1,5,-1
 185.507 802.801 l 1,6,-1
 249.571 997.971 l 1,7,-1
 522.599 899.034 l 1,8,-1
 511.179 1185.5 l 1,9,-1
 717.821 1185.5 l 1,10,-1
 706.403 899.092 l 1,11,-1
 978.418 998.007 l 1,12,-1
 1042.48 802.83 l 1,13,-1
 763.149 724.92 l 1,14,-1
 943.443 500.028 l 1,0,-1
EndSplineSet
EndChar

StartChar: plus
Encoding: 43 43 15
Width: 1228
Flags: W
LayerCount: 2
Fore
SplineSet
1126.5 536.5 m 1,0,-1
 698.5 536.5 l 1,1,-1
 698.5 117.5 l 1,2,-1
 530.5 117.5 l 1,3,-1
 530.5 536.5 l 1,4,-1
 102.5 536.5 l 1,5,-1
 102.5 704.5 l 1,6,-1
 530.5 704.5 l 1,7,-1
 530.5 1124.5 l 1,8,-1
 698.5 1124.5 l 1,9,-1
 698.5 704.5 l 1,10,-1
 1126.5 704.5 l 1,11,-1
 1126.5 536.5 l 1,0,-1
EndSplineSet
EndChar

StartChar: comma
Encoding: 44 44 16
Width: 1228
Flags: W
LayerCount: 2
Fore
SplineSet
529.004 -255.5 m 1,0,-1
 317.682 -255.5 l 1,1,-1
 494.167 304.5 l 1,2,-1
 781.287 304.5 l 1,3,-1
 529.004 -255.5 l 1,0,-1
EndSplineSet
EndChar

StartChar: hyphen
Encoding: 45 45 17
Width: 1228
Flags: W
LayerCount: 2
Fore
SplineSet
863.5 504.5 m 1,0,-1
 364.5 504.5 l 1,1,-1
 364.5 681.5 l 1,2,-1
 863.5 681.5 l 1,3,-1
 863.5 504.5 l 1,0,-1
EndSplineSet
EndChar

StartChar: period
Encoding: 46 46 18
Width: 1228
Flags: W
LayerCount: 2
Fore
SplineSet
802.5 105 m 128,-1,1
 802.5 32.5396 802.5 32.5396 746.256 -18.1439 c 0,2,3
 691.485 -67.5 691.485 -67.5 614 -67.5 c 128,-1,4
 536.619 -67.5 536.619 -67.5 481.243 -18.1433 c 0,5,6
 425.5 32.6444 425.5 32.6444 425.5 105 c 128,-1,7
 425.5 177.462 425.5 177.462 481.744 228.144 c 0,8,9
 536.517 277.5 536.517 277.5 614 277.5 c 128,-1,10
 691.485 277.5 691.485 277.5 746.256 228.144 c 0,11,0
 802.5 177.46 802.5 177.46 802.5 105 c 128,-1,1
EndSplineSet
EndChar

StartChar: slash
Encoding: 47 47 19
Width: 1228
Flags: W
LayerCount: 2
Fore
SplineSet
289.901 -315.263 m 1,0,-1
 142.954 -246.799 l 1,1,-1
 937.617 1480.14 l 1,2,-1
 1085.54 1417.95 l 1,3,-1
 289.901 -315.263 l 1,0,-1
EndSplineSet
EndChar

StartChar: zero
Encoding: 48 48 20
Width: 1228
Flags: W
LayerCount: 2
Fore
SplineSet
986.941 242.055 m 0,0,1
 967.848 182.66 967.848 182.66 935.169 126.789 c 0,2,3
 902.839 69.6735 902.839 69.6735 859.718 29.2807 c 0,4,5
 815.664 -11.9869 815.664 -11.9869 752.343 -36.7654 c 128,-1,6
 689.134 -61.5 689.134 -61.5 614 -61.5 c 128,-1,7
 538.868 -61.5 538.868 -61.5 475.657 -36.7654 c 0,8,9
 412.234 -11.9479 412.234 -11.9479 368.123 29.9301 c 0,10,11
 325.057 70.8162 325.057 70.8162 292.653 128.604 c 0,12,13
 261.059 184.945 261.059 184.945 242.059 244.055 c 0,14,15
 223.32 302.353 223.32 302.353 211.929 371.735 c 0,16,17
 200.683 440.237 200.683 440.237 196.578 499.245 c 0,18,19
 192.5 557.872 192.5 557.872 192.5 621 c 128,-1,20
 192.5 684.12 192.5 684.12 196.577 743.236 c 0,21,22
 200.681 802.751 200.681 802.751 211.929 871.265 c 0,23,24
 223.312 940.602 223.312 940.602 242.034 999.365 c 0,25,26
 261.039 1059.02 261.039 1059.02 292.653 1115.4 c 0,27,28
 325.119 1173.29 325.119 1173.29 368.282 1213.72 c 0,29,30
 412.348 1254.99 412.348 1254.99 475.657 1279.77 c 128,-1,31
 538.871 1304.5 538.871 1304.5 614 1304.5 c 128,-1,32
 689.131 1304.5 689.131 1304.5 752.343 1279.77 c 128,-1,33
 815.657 1254.99 815.657 1254.99 859.718 1213.72 c 0,34,35
 902.807 1173.36 902.807 1173.36 935.734 1115.6 c 0,36,37
 967.935 1059.11 967.935 1059.11 986.966 999.365 c 0,38,39
 1005.69 940.583 1005.69 940.583 1017.07 871.265 c 0,40,41
 1028.31 802.769 1028.31 802.769 1032.42 743.236 c 0,42,43
 1036.5 684.159 1036.5 684.159 1036.5 621.002 c 0,44,45
 1036.5 556.842 1036.5 556.842 1032.42 497.764 c 0,46,47
 1028.31 438.227 1028.31 438.227 1017.07 369.735 c 0,48,49
 1005.68 300.354 1005.68 300.354 986.941 242.055 c 0,0,1
612 95.5 m 0,50,51
 662.609 95.5 662.609 95.5 702.268 117.439 c 0,52,53
 742.194 139.525 742.194 139.525 767.778 178.754 c 0,54,55
 795.836 221.777 795.836 221.777 815.081 272.942 c 0,56,57
 834.406 324.321 834.406 324.321 844.392 388.032 c 0,58,59
 854.681 453.679 854.681 453.679 858.583 508.316 c 0,60,61
 862.5 563.175 862.5 563.175 862.5 623 c 128,-1,62
 862.5 682.849 862.5 682.849 858.581 738.205 c 0,63,64
 854.681 793.293 854.681 793.293 844.398 858.431 c 0,65,66
 834.433 921.549 834.433 921.549 815.152 971.871 c 128,-1,67
 795.845 1022.26 795.845 1022.26 768.142 1065.46 c 0,68,69
 743.112 1104.49 743.112 1104.49 703.873 1126 c 128,-1,70
 664.673 1147.5 664.673 1147.5 614 1147.5 c 0,71,72
 570.342 1147.5 570.342 1147.5 534.973 1130.66 c 0,73,74
 499.021 1113.54 499.021 1113.54 474.935 1086.07 c 0,75,76
 449.619 1057.2 449.619 1057.2 430.108 1014.1 c 0,77,78
 409.753 969.127 409.753 969.127 397.951 923.81 c 0,79,80
 385.964 877.78 385.964 877.78 378.727 822.296 c 0,81,82
 371.389 766.034 371.389 766.034 368.955 719.792 c 0,83,84
 366.5 673.139 366.5 673.139 366.5 623 c 0,85,86
 366.5 571.856 366.5 571.856 368.956 524.69 c 0,87,88
 371.383 478.086 371.383 478.086 379.19 421.979 c 0,89,90
 386.942 366.264 386.942 366.264 398.991 319.034 c 0,91,92
 410.77 272.862 410.77 272.862 431.055 228.52 c 0,93,94
 450.635 185.717 450.635 185.717 475.622 156.713 c 0,95,96
 499.204 129.341 499.204 129.341 534.61 112.277 c 0,97,98
 569.422 95.5 569.422 95.5 612 95.5 c 0,50,51
978.213 1296.14 m 1,99,-1
 403.6 -138.748 l 1,100,-1
 249.093 -80.4762 l 1,101,-1
 823.098 1349.9 l 1,102,-1
 978.213 1296.14 l 1,99,-1
EndSplineSet
EndChar

StartChar: one
Encoding: 49 49 21
Width: 1228
Flags: W
LayerCount: 2
Fore
SplineSet
1066.5 161 m 1,0,-1
 1066.5 0 l 1,1,-1
 192.5 0 l 1,2,-1
 192.5 161 l 1,3,-1
 549.5 161 l 1,4,-1
 549.5 1080.81 l 1,5,-1
 237.862 944.369 l 1,6,-1
 169.95 1086.77 l 1,7,-1
 611.103 1272 l 1,8,-1
 716.5 1272 l 1,9,-1
 716.5 161 l 1,10,-1
 1066.5 161 l 1,0,-1
EndSplineSet
EndChar

StartChar: two
Encoding: 50 50 22
Width: 1228
Flags: W
LayerCount: 2
Fore
SplineSet
999.5 364 m 1,0,-1
 999.5 0 l 1,1,-1
 135.5 0 l 1,2,-1
 135.5 147.693 l 1,3,-1
 146.775 156.876 l 2,4,5
 255.356 245.307 255.356 245.307 431.176 395.78 c 0,6,7
 606.502 545.83 606.502 545.83 713.966 648.26 c 0,8,9
 779.519 710.169 779.519 710.169 802.552 761.772 c 128,-1,10
 825.5 813.188 825.5 813.188 825.5 877.817 c 0,11,12
 825.5 935.386 825.5 935.386 800.252 980.607 c 0,13,14
 774.799 1026.19 774.799 1026.19 735.972 1052.67 c 0,15,16
 695.4 1080.35 695.4 1080.35 654.13 1092.08 c 0,17,18
 612.22 1104 612.22 1104 575 1104 c 0,19,20
 544.454 1104 544.454 1104 505.81 1095.72 c 0,21,22
 468.419 1087.71 468.419 1087.71 427.54 1065.46 c 0,23,24
 389.837 1044.93 389.837 1044.93 366.328 1008.41 c 0,25,26
 344.154 973.963 344.154 973.963 347.426 925.698 c 2,27,-1
 349.778 891 l 1,28,-1
 176.5 891 l 1,29,-1
 176.5 1069.37 l 1,30,-1
 184.153 1078.45 l 2,31,32
 229.568 1132.31 229.568 1132.31 281.585 1171.06 c 128,-1,33
 333.51 1209.74 333.51 1209.74 379.865 1230.23 c 128,-1,34
 426.09 1250.65 426.09 1250.65 474.057 1260.35 c 0,35,36
 520.861 1269.82 520.861 1269.82 541.197 1270.95 c 0,37,38
 560.146 1272 560.146 1272 580 1272 c 0,39,40
 685.891 1272 685.891 1272 780.927 1225.58 c 0,41,42
 876.558 1178.88 876.558 1178.88 938.753 1088.45 c 0,43,44
 1001.5 997.209 1001.5 997.209 1001.5 883.244 c 0,45,46
 1001.5 817.139 1001.5 817.139 984.01 764.465 c 0,47,48
 966.741 712.458 966.741 712.458 926.41 652.293 c 0,49,50
 874.248 575.422 874.248 575.422 701.457 419.389 c 0,51,52
 558.643 290.427 558.643 290.427 391.825 161 c 1,53,-1
 837.5 161 l 1,54,-1
 837.5 364 l 1,55,-1
 999.5 364 l 1,0,-1
EndSplineSet
EndChar

StartChar: three
Encoding: 51 51 23
Width: 1228
Flags: W
LayerCount: 2
Fore
SplineSet
194.606 238.407 m 1,0,-1
 225.054 223.804 l 2,1,2
 414.391 133 414.391 133 551 133 c 0,3,4
 660.293 133 660.293 133 741.276 196.637 c 0,5,6
 819.5 258.105 819.5 258.105 819.5 366.053 c 0,7,8
 819.5 411.835 819.5 411.835 804.987 449.412 c 128,-1,9
 790.461 487.022 790.461 487.022 772.653 507.071 c 0,10,11
 753.952 528.128 753.952 528.128 730.026 543.819 c 0,12,13
 705.146 560.137 705.146 560.137 693.078 565.101 c 128,-1,14
 680.921 570.101 680.921 570.101 674.95 571.361 c 2,15,-1
 673.056 571.76 l 1,16,-1
 671.227 572.371 l 2,17,18
 603.476 594.967 603.476 594.967 485.076 587.777 c 2,19,-1
 450.5 585.676 l 1,20,-1
 450.5 741.5 l 1,21,-1
 483 741.5 l 2,22,23
 606.093 741.5 606.093 741.5 662.106 776.089 c 0,24,25
 706.117 802.265 706.117 802.265 729.652 843.957 c 0,26,27
 753.5 886.202 753.5 886.202 753.5 934.982 c 0,28,29
 753.5 1013.52 753.5 1013.52 694.865 1061.59 c 0,30,31
 634.607 1111 634.607 1111 542.603 1111 c 0,32,33
 506.159 1111.89 506.159 1111.89 472.428 1102.25 c 0,34,35
 436.376 1091.95 436.376 1091.95 402.222 1076.04 c 0,36,37
 367.403 1059.82 367.403 1059.82 334.011 1039.31 c 0,38,39
 298.883 1017.73 298.883 1017.73 265.079 996.851 c 2,40,-1
 237.819 980.012 l 1,41,-1
 152.284 1114.18 l 1,42,-1
 179.279 1131.74 l 2,43,44
 284.55 1200.22 284.55 1200.22 365.013 1235.29 c 0,45,46
 449.234 1272 449.234 1272 545 1272 c 0,47,48
 616.582 1272 616.582 1272 683.868 1248.13 c 0,49,50
 751.067 1225.44 751.067 1225.44 804.397 1184.54 c 0,51,52
 858.985 1142.67 858.985 1142.67 892.164 1078.48 c 0,53,54
 925.5 1013.98 925.5 1013.98 925.5 937.319 c 0,55,56
 925.5 776.136 925.5 776.136 797.578 677.144 c 1,57,58
 811.704 669.058 811.704 669.058 825.213 660.005 c 0,59,60
 863.731 634.193 863.731 634.193 901.188 594.475 c 0,61,62
 940.236 553.071 940.236 553.071 964.387 492.485 c 128,-1,63
 988.5 431.998 988.5 431.998 988.5 362.571 c 0,64,65
 988.5 186.918 988.5 186.918 860.098 78.2561 c 0,66,67
 733.358 -29 733.358 -29 545 -29 c 0,68,69
 481.52 -29 481.52 -29 418.118 -15.263 c 0,70,71
 355.864 -1.77456 355.864 -1.77456 309.201 15.5273 c 0,72,73
 264.271 32.1866 264.271 32.1866 159.83 74.3646 c 2,74,-1
 128.929 86.8439 l 1,75,-1
 194.606 238.407 l 1,0,-1
EndSplineSet
EndChar

StartChar: four
Encoding: 52 52 24
Width: 1228
Flags: W
LayerCount: 2
Fore
SplineSet
1015.5 161 m 1,0,-1
 1015.5 0 l 1,1,-1
 391.5 0 l 1,2,-1
 391.5 161 l 1,3,-1
 667.5 161 l 1,4,-1
 667.5 266.5 l 1,5,-1
 119.5 266.5 l 1,6,-1
 119.5 421.898 l 1,7,-1
 640.499 1272 l 1,8,-1
 831.5 1272 l 1,9,-1
 831.5 429.5 l 1,10,-1
 1015.5 429.5 l 1,11,-1
 1015.5 266.5 l 1,12,-1
 831.5 266.5 l 1,13,-1
 831.5 161 l 1,14,-1
 1015.5 161 l 1,0,-1
308.778 429.5 m 1,15,-1
 667.5 429.5 l 1,16,-1
 667.5 1040.3 l 1,17,-1
 308.778 429.5 l 1,15,-1
EndSplineSet
EndChar

StartChar: five
Encoding: 53 53 25
Width: 1228
Flags: W
LayerCount: 2
Fore
SplineSet
205.471 232.358 m 1,0,-1
 236.598 218.018 l 2,1,2
 408.127 139 408.127 139 563 139 c 0,3,4
 709.371 139 709.371 139 783.817 210.307 c 0,5,6
 858.5 281.842 858.5 281.842 858.5 397.309 c 0,7,8
 858.5 507.591 858.5 507.591 783.736 582.999 c 0,9,10
 709.872 657.5 709.872 657.5 582 657.5 c 0,11,12
 450.814 657.5 450.814 657.5 328.468 565.976 c 2,13,-1
 311.431 553.231 l 1,14,-1
 225.5 602.094 l 1,15,-1
 225.5 1241 l 1,16,-1
 974.5 1241 l 1,17,-1
 974.5 1078 l 1,18,-1
 382.5 1078 l 1,19,-1
 382.5 776.877 l 1,20,21
 496.413 818.5 496.413 818.5 598 818.5 c 0,22,23
 793.89 818.5 793.89 818.5 913.984 697.764 c 0,24,25
 1033.5 577.608 1033.5 577.608 1033.5 401.564 c 0,26,27
 1033.5 346.982 1033.5 346.982 1020.15 292.022 c 0,28,29
 1006.61 236.291 1006.61 236.291 972.886 178.115 c 0,30,31
 938.783 119.281 938.783 119.281 887.311 74.4652 c 0,32,33
 835.074 28.9828 835.074 28.9828 753.058 0.43914 c 0,34,35
 671.701 -29 671.701 -29 571 -29 c 0,36,37
 467.759 -29 467.759 -29 382.662 -6.41227 c 0,38,39
 299.823 15.5762 299.823 15.5762 174.056 65.2743 c 2,40,-1
 143.76 77.2461 l 1,41,-1
 205.471 232.358 l 1,0,-1
EndSplineSet
EndChar

StartChar: six
Encoding: 54 54 26
Width: 1228
Flags: W
LayerCount: 2
Fore
SplineSet
1027.5 1101.68 m 1,0,-1
 992.764 1104.08 l 2,1,2
 964.36 1106.04 964.36 1106.04 937.316 1107.02 c 128,-1,3
 910.439 1108 910.439 1108 884.88 1108 c 0,4,5
 758.635 1108.88 758.635 1108.88 666.309 1083.84 c 0,6,7
 576.986 1059.6 576.986 1059.6 515.221 1004.82 c 0,8,9
 452.864 949.517 452.864 949.517 414.402 857.186 c 0,10,11
 387.419 788.707 387.419 788.707 370.149 697.457 c 1,12,13
 477.898 790.5 477.898 790.5 625 790.5 c 0,14,15
 710.615 790.5 710.615 790.5 782.945 755.982 c 0,16,17
 854.232 721.962 854.232 721.962 906.486 664.372 c 0,18,19
 958.431 607.123 958.431 607.123 987 532.459 c 128,-1,20
 1015.5 457.975 1015.5 457.975 1015.5 376.422 c 0,21,22
 1015.5 295.52 1015.5 295.52 985.782 222.226 c 128,-1,23
 956.102 149.049 956.102 149.049 903.579 93.3207 c 0,24,25
 850.746 37.2632 850.746 37.2632 778.413 4.3076 c 0,26,27
 705.308 -29 705.308 -29 621 -29 c 0,28,29
 578.337 -29 578.337 -29 528.768 -17.685 c 0,30,31
 478.199 -6.7029 478.199 -6.7029 428.611 19.7374 c 0,32,33
 379.368 45.9941 379.368 45.9941 333.794 88.332 c 0,34,35
 287.644 131.205 287.644 131.205 252.26 194.964 c 0,36,37
 217.275 258.004 217.275 258.004 196.823 342.819 c 0,38,39
 176.5 427.101 176.5 427.101 176.5 536.209 c 0,40,41
 176.5 565.669 176.5 565.669 180.057 622.715 c 0,42,43
 183.69 680.985 183.69 680.985 198.631 752.057 c 0,44,45
 213.679 823.641 213.679 823.641 245.181 901.268 c 0,46,47
 277.188 980.139 277.188 980.139 330.143 1049.98 c 0,48,49
 383.987 1121 383.987 1121 471.247 1177.35 c 0,50,51
 559.231 1234.17 559.231 1234.17 670.244 1254.89 c 0,52,53
 777.968 1276.02 777.968 1276.02 896.142 1275 c 0,54,55
 942.926 1275 942.926 1275 996.837 1271.95 c 2,56,-1
 1027.5 1270.21 l 1,57,-1
 1027.5 1101.68 l 1,0,-1
473.094 578.155 m 0,58,59
 440.813 558.68 440.813 558.68 409.848 523.692 c 0,60,61
 379.333 490.332 379.333 490.332 356.898 440.752 c 1,62,63
 361.099 382.184 361.099 382.184 376.026 337.345 c 0,64,65
 391.869 289.754 391.869 289.754 413.869 255.397 c 0,66,67
 435.362 221.831 435.362 221.831 461.741 199.585 c 0,68,69
 488.549 176.977 488.549 176.977 516.218 163.809 c 0,70,71
 544.11 150.534 544.11 150.534 571.159 144.811 c 0,72,73
 598.624 139 598.624 139 621 139 c 0,74,75
 666.016 139 666.016 139 705.15 155.521 c 128,-1,76
 744.472 172.122 744.472 172.122 773.923 202.558 c 0,77,78
 803.807 233.442 803.807 233.442 821.629 277.275 c 128,-1,79
 839.5 321.229 839.5 321.229 839.5 376.533 c 0,80,81
 839.5 426.569 839.5 426.569 822.374 471.756 c 128,-1,82
 805.256 516.923 805.256 516.923 775.805 550.791 c 0,83,84
 746.936 583.989 746.936 583.989 707.706 603.594 c 0,85,86
 669.876 622.5 669.876 622.5 625 622.5 c 0,87,88
 613.834 622.5 613.834 622.5 589.156 619.882 c 0,89,90
 566.185 617.446 566.185 617.446 536.052 607.752 c 0,91,92
 506.278 598.174 506.278 598.174 473.094 578.155 c 0,58,59
EndSplineSet
EndChar

StartChar: seven
Encoding: 55 55 27
Width: 1228
Flags: W
LayerCount: 2
Fore
SplineSet
1029.71 1108.78 m 2,0,-1
 625.13 0 l 1,1,-1
 436.69 0 l 1,2,-1
 850.69 1080 l 1,3,-1
 327.5 1080 l 1,4,-1
 327.5 891 l 1,5,-1
 162.5 891 l 1,6,-1
 162.5 1241 l 1,7,-1
 1031.5 1241 l 1,8,-1
 1031.5 1113.69 l 2,9,10
 1030.6 1111.24 1030.6 1111.24 1029.71 1108.78 c 2,0,-1
EndSplineSet
EndChar

StartChar: eight
Encoding: 56 56 28
Width: 1228
Flags: W
LayerCount: 2
Fore
SplineSet
1019.5 921.035 m 0,0,1
 1019.5 829.069 1019.5 829.069 968.317 742.98 c 0,2,3
 931.136 679.858 931.136 679.858 867.214 634.818 c 1,4,5
 942.026 589.867 942.026 589.867 985.452 520.145 c 0,6,7
 1042.5 428.554 1042.5 428.554 1042.5 338.156 c 0,8,9
 1042.5 274.869 1042.5 274.869 1015.04 211.569 c 0,10,11
 987.946 149.128 987.946 149.128 937.316 94.7537 c 0,12,13
 885.433 39.0341 885.433 39.0341 800.663 4.87606 c 0,14,15
 716.593 -29 716.593 -29 614 -29 c 128,-1,16
 511.407 -29 511.407 -29 427.337 4.87606 c 0,17,18
 342.481 39.0687 342.481 39.0687 291.07 94.8769 c 0,19,20
 241.019 149.209 241.019 149.209 213.963 211.569 c 0,21,22
 186.5 274.869 186.5 274.869 186.5 338.156 c 0,23,24
 186.5 439.978 186.5 439.978 249.531 529.246 c 0,25,26
 295.743 594.693 295.743 594.693 362.727 635.205 c 1,27,28
 357.364 639.241 357.364 639.241 352.649 642.996 c 0,29,30
 323.045 666.577 323.045 666.577 289.753 703.819 c 0,31,32
 254.579 743.168 254.579 743.168 232.081 800.133 c 0,33,34
 209.5 857.308 209.5 857.308 209.5 921.035 c 0,35,36
 209.5 1067.05 209.5 1067.05 327.544 1170.06 c 0,37,38
 444.369 1272 444.369 1272 614 1272 c 128,-1,39
 783.593 1272 783.593 1272 900.901 1170.1 c 0,40,41
 1019.5 1067.09 1019.5 1067.09 1019.5 921.035 c 0,0,1
614 712.5 m 0,42,43
 706.542 712.5 706.542 712.5 776.276 770.446 c 0,44,45
 844.5 827.139 844.5 827.139 844.5 917.298 c 0,46,47
 844.5 1008.25 844.5 1008.25 776.697 1058.41 c 0,48,49
 705.605 1111 705.605 1111 614 1111 c 0,50,51
 552.94 1111 552.94 1111 506.778 1091.89 c 0,52,53
 461.587 1073.19 461.587 1073.19 437.044 1044.34 c 0,54,55
 410.701 1013.38 410.701 1013.38 397.477 980.366 c 0,56,57
 384.5 947.972 384.5 947.972 384.5 917.298 c 0,58,59
 384.5 837.746 384.5 837.746 449.081 774.785 c 0,60,61
 512.969 712.5 512.969 712.5 614 712.5 c 0,42,43
614 133 m 128,-1,63
 721.252 133 721.252 133 793.981 195.547 c 0,64,65
 866.5 257.163 866.5 257.163 866.5 340.394 c 0,66,67
 866.5 421.906 866.5 421.906 798.655 486.905 c 0,68,69
 731.232 551.5 731.232 551.5 614 551.5 c 0,70,71
 552.541 551.5 552.541 551.5 502.576 532.043 c 0,72,73
 453.333 512.867 453.333 512.867 424.22 482.674 c 0,74,75
 394.047 451.381 394.047 451.381 378.176 414.564 c 0,76,77
 362.5 378.201 362.5 378.201 362.5 340.394 c 0,78,79
 362.5 257.056 362.5 257.056 434.092 195.484 c 0,80,62
 506.745 133 506.745 133 614 133 c 128,-1,63
EndSplineSet
EndChar

StartChar: nine
Encoding: 57 57 29
Width: 1228
Flags: W
LayerCount: 2
Fore
SplineSet
134.5 142.319 m 1,0,-1
 169.236 139.923 l 2,1,2
 197.711 137.959 197.711 137.959 224.681 136.979 c 128,-1,3
 251.591 136 251.591 136 277.124 136 c 0,4,5
 403.364 135.125 403.364 135.125 495.691 160.165 c 0,6,7
 585.007 184.387 585.007 184.387 646.779 239.176 c 0,8,9
 709.144 294.491 709.144 294.491 747.598 386.814 c 0,10,11
 774.584 455.308 774.584 455.308 791.851 546.542 c 1,12,13
 684.107 453.5 684.107 453.5 537 453.5 c 0,14,15
 451.378 453.5 451.378 453.5 379.055 488.018 c 0,16,17
 307.763 522.044 307.763 522.044 255.514 579.628 c 0,18,19
 203.57 636.877 203.57 636.877 175 711.541 c 128,-1,20
 146.5 786.025 146.5 786.025 146.5 867.578 c 0,21,22
 146.5 948.484 146.5 948.484 176.222 1021.77 c 128,-1,23
 205.9 1094.95 205.9 1094.95 258.421 1150.68 c 0,24,25
 311.258 1206.74 311.258 1206.74 383.587 1239.69 c 0,26,27
 456.69 1273 456.69 1273 541 1273 c 0,28,29
 583.662 1273 583.662 1273 633.232 1261.69 c 0,30,31
 683.803 1250.7 683.803 1250.7 733.389 1224.26 c 0,32,33
 782.634 1198 782.634 1198 828.206 1155.67 c 0,34,35
 874.353 1112.8 874.353 1112.8 909.74 1049.04 c 0,36,37
 944.72 986.009 944.72 986.009 965.177 901.181 c 0,38,39
 985.5 816.911 985.5 816.911 985.5 707.791 c 0,40,41
 985.5 678.345 985.5 678.345 981.943 621.285 c 0,42,43
 978.311 563.029 978.311 563.029 963.369 491.943 c 0,44,45
 948.324 420.371 948.324 420.371 916.819 342.732 c 0,46,47
 884.808 263.848 884.808 263.848 831.857 194.019 c 0,48,49
 777.998 122.992 777.998 122.992 690.753 66.6491 c 0,50,51
 602.765 9.82674 602.765 9.82674 491.756 -10.8921 c 0,52,53
 384.02 -32.0273 384.02 -32.0273 265.859 -31 c 0,54,55
 219.079 -31 219.079 -31 165.163 -27.9481 c 2,56,-1
 134.5 -26.2124 l 1,57,-1
 134.5 142.319 l 1,0,-1
688.906 665.845 m 0,58,59
 721.189 685.32 721.189 685.32 752.151 720.307 c 0,60,61
 782.662 753.661 782.662 753.661 805.102 803.248 c 1,62,63
 800.899 861.823 800.899 861.823 785.974 906.655 c 0,64,65
 770.132 954.243 770.132 954.243 748.131 988.603 c 0,66,67
 726.64 1022.17 726.64 1022.17 700.259 1044.42 c 0,68,69
 673.451 1067.02 673.451 1067.02 645.782 1080.19 c 0,70,71
 617.887 1093.47 617.887 1093.47 590.841 1099.19 c 0,72,73
 563.37 1105 563.37 1105 541 1105 c 0,74,75
 495.985 1105 495.985 1105 456.85 1088.48 c 128,-1,76
 417.527 1071.88 417.527 1071.88 388.077 1041.44 c 0,77,78
 358.189 1010.55 358.189 1010.55 340.371 966.725 c 128,-1,79
 322.5 922.766 322.5 922.766 322.5 867.467 c 0,80,81
 322.5 817.43 322.5 817.43 339.626 772.244 c 128,-1,82
 356.746 727.073 356.746 727.073 386.195 693.209 c 0,83,84
 415.067 660.009 415.067 660.009 454.294 640.406 c 0,85,86
 492.126 621.5 492.126 621.5 537 621.5 c 0,87,88
 548.166 621.5 548.166 621.5 572.844 624.118 c 0,89,90
 595.815 626.554 595.815 626.554 625.948 636.248 c 0,91,92
 655.719 645.825 655.719 645.825 688.906 665.845 c 0,58,59
EndSplineSet
EndChar

StartChar: colon
Encoding: 58 58 30
Width: 1228
Flags: W
LayerCount: 2
Fore
SplineSet
804.5 659 m 0,0,1
 804.5 581.202 804.5 581.202 743.079 532.945 c 0,2,3
 685.239 487.5 685.239 487.5 614 487.5 c 0,4,5
 543.872 487.5 543.872 487.5 486.083 532.318 c 0,6,7
 424.5 580.078 424.5 580.078 424.5 659 c 0,8,9
 424.5 735.448 424.5 735.448 484.976 784.7 c 0,10,11
 542.443 831.5 542.443 831.5 614 831.5 c 0,12,13
 686.557 831.5 686.557 831.5 744.024 784.7 c 0,14,15
 804.5 735.448 804.5 735.448 804.5 659 c 0,0,1
804.5 104 m 0,16,17
 804.5 26.2039 804.5 26.2039 743.079 -22.0553 c 0,18,19
 685.241 -67.5 685.241 -67.5 614 -67.5 c 0,20,21
 543.875 -67.5 543.875 -67.5 486.083 -22.6821 c 0,22,23
 424.5 25.0761 424.5 25.0761 424.5 104 c 0,24,25
 424.5 180.446 424.5 180.446 484.976 229.7 c 0,26,27
 542.44 276.5 542.44 276.5 614 276.5 c 0,28,29
 686.56 276.5 686.56 276.5 744.024 229.7 c 0,30,31
 804.5 180.446 804.5 180.446 804.5 104 c 0,16,17
EndSplineSet
EndChar

StartChar: semicolon
Encoding: 59 59 31
Width: 1228
Flags: W
LayerCount: 2
Fore
SplineSet
537.004 -253.5 m 1,0,-1
 326.596 -253.5 l 1,1,-1
 504.213 306.5 l 1,2,-1
 789.287 306.5 l 1,3,-1
 537.004 -253.5 l 1,0,-1
804.5 659 m 0,4,5
 804.5 581.202 804.5 581.202 743.079 532.945 c 0,6,7
 685.239 487.5 685.239 487.5 614 487.5 c 0,8,9
 543.872 487.5 543.872 487.5 486.083 532.318 c 0,10,11
 424.5 580.078 424.5 580.078 424.5 659 c 0,12,13
 424.5 735.448 424.5 735.448 484.976 784.7 c 0,14,15
 542.443 831.5 542.443 831.5 614 831.5 c 0,16,17
 686.557 831.5 686.557 831.5 744.024 784.7 c 0,18,19
 804.5 735.448 804.5 735.448 804.5 659 c 0,4,5
EndSplineSet
EndChar

StartChar: less
Encoding: 60 60 32
Width: 1228
Flags: W
LayerCount: 2
Fore
SplineSet
1093 138.724 m 1,0,-1
 34.5909 630.676 l 1,1,-1
 1093.25 1133.7 l 1,2,-1
 1160.54 981.063 l 1,3,-1
 415.115 631.285 l 1,4,-1
 1161 287.988 l 1,5,-1
 1093 138.724 l 1,0,-1
EndSplineSet
EndChar

StartChar: equal
Encoding: 61 61 33
Width: 1228
Flags: W
LayerCount: 2
Fore
SplineSet
1130.5 723.5 m 1,0,-1
 98.5 723.5 l 1,1,-1
 98.5 890.5 l 1,2,-1
 1130.5 890.5 l 1,3,-1
 1130.5 723.5 l 1,0,-1
1130.5 352.5 m 1,4,-1
 98.5 352.5 l 1,5,-1
 98.5 519.5 l 1,6,-1
 1130.5 519.5 l 1,7,-1
 1130.5 352.5 l 1,4,-1
EndSplineSet
EndChar

StartChar: greater
Encoding: 62 62 34
Width: 1228
Flags: W
LayerCount: 2
Fore
SplineSet
1194.48 631.357 m 1,0,-1
 135.87 128.353 l 1,1,-1
 68.3541 279.852 l 1,2,-1
 813.885 630.634 l 1,3,-1
 67.9891 972.981 l 1,4,-1
 135.989 1122.25 l 1,5,-1
 1194.48 631.357 l 1,0,-1
EndSplineSet
EndChar

StartChar: question
Encoding: 63 63 35
Width: 1228
Flags: W
LayerCount: 2
Fore
SplineSet
632.5 332.5 m 1,0,-1
 467.5 332.5 l 1,1,-1
 467.5 588.74 l 1,2,-1
 492.556 594.636 l 2,3,4
 526.185 602.549 526.185 602.549 559.684 611.418 c 128,-1,5
 593.299 620.318 593.299 620.318 626.905 630.201 c 0,6,7
 675.986 644.359 675.986 644.359 715.191 664.43 c 0,8,9
 752.762 683.664 752.762 683.664 779.213 709.673 c 0,10,11
 804.514 734.552 804.514 734.552 817.988 766.972 c 128,-1,12
 831.5 799.481 831.5 799.481 831.5 842 c 0,13,14
 831.5 869.168 831.5 869.168 820.903 904.053 c 0,15,16
 811.008 936.631 811.008 936.631 784.343 966.259 c 128,-1,17
 757.59 995.985 757.59 995.985 708.6 1017.17 c 0,18,19
 659.275 1038.5 659.275 1038.5 580 1038.5 c 0,20,21
 485.44 1038.5 485.44 1038.5 380.5 999.706 c 1,22,-1
 380.5 858.5 l 1,23,-1
 213.5 858.5 l 1,24,-1
 213.5 1123.31 l 1,25,-1
 235.574 1130.78 l 2,26,27
 297.736 1151.84 297.736 1151.84 341.543 1165.94 c 0,28,29
 386.409 1180.38 386.409 1180.38 423.355 1188.7 c 0,30,31
 460.974 1197.18 460.974 1197.18 497.143 1200.37 c 0,32,33
 532.569 1203.5 532.569 1203.5 578 1203.5 c 0,34,35
 675.822 1203.5 675.822 1203.5 754.274 1174.48 c 0,36,37
 833.118 1145.32 833.118 1145.32 888.255 1095.65 c 0,38,39
 943.91 1045.5 943.91 1045.5 973.719 978.154 c 128,-1,40
 1003.5 910.867 1003.5 910.867 1003.5 835.598 c 1,41,42
 1001.3 746.48 1001.3 746.48 967.156 682.667 c 0,43,44
 933.508 619.785 933.508 619.785 878.303 575.622 c 0,45,46
 824.522 532.598 824.522 532.598 753.531 504.309 c 0,47,48
 696.369 481.531 696.369 481.531 632.5 462.547 c 1,49,-1
 632.5 332.5 l 1,0,-1
704.435 27.2194 m 0,50,51
 690.42 -2.08365 690.42 -2.08365 665.857 -23.4976 c 0,52,53
 641.894 -44.3883 641.894 -44.3883 610.846 -55.9552 c 128,-1,54
 579.858 -67.5 579.858 -67.5 545 -67.5 c 128,-1,55
 510.249 -67.5 510.249 -67.5 478.846 -56.0261 c 0,56,57
 446.958 -44.3747 446.958 -44.3747 422.793 -22.6879 c 128,-1,58
 398.474 -0.862996 398.474 -0.862996 384.681 27.9777 c 0,59,60
 370.5 57.628 370.5 57.628 370.5 92 c 0,61,62
 370.5 126.824 370.5 126.824 385.561 156.291 c 0,63,64
 399.915 184.376 399.915 184.376 424.143 205.498 c 128,-1,65
 448.187 226.459 448.187 226.459 479.846 238.026 c 0,66,67
 511.249 249.5 511.249 249.5 545 249.5 c 0,68,69
 580.857 249.5 580.857 249.5 611.846 237.955 c 0,70,71
 643.097 226.313 643.097 226.313 666.671 205.22 c 0,72,73
 690.515 183.886 690.515 183.886 704.319 155.022 c 0,74,75
 718.5 125.372 718.5 125.372 718.5 92 c 0,76,77
 718.5 57.9091 718.5 57.9091 704.435 27.2194 c 0,50,51
EndSplineSet
EndChar

StartChar: at
Encoding: 64 64 36
Width: 1228
Flags: W
LayerCount: 2
Fore
SplineSet
1043 202.667 m 1,0,-1
 1072.6 217.298 l 1,1,-1
 1128.9 104.702 l 1,2,-1
 1099.67 86.833 l 2,3,4
 1093.42 83.583 1093.42 83.583 1087.17 80.333 c 0,5,6
 1006.87 29.7703 1006.87 29.7703 851.921 -16.8346 c 0,7,8
 720.043 -56.5 720.043 -56.5 590 -56.5 c 0,9,10
 454.054 -56.5 454.054 -56.5 346.139 -7.54344 c 0,11,12
 237.518 41.7333 237.518 41.7333 171.367 126.022 c 0,13,14
 106.381 208.826 106.381 208.826 72.3719 312.423 c 0,15,16
 38.5 415.601 38.5 415.601 38.5 532 c 0,17,18
 38.5 659.761 38.5 659.761 78.0993 770.742 c 0,19,20
 117.908 882.309 117.908 882.309 192.489 965.818 c 0,21,22
 267.606 1049.93 267.606 1049.93 381.323 1097.84 c 0,23,24
 494.429 1145.5 494.429 1145.5 633 1145.5 c 0,25,26
 790.458 1145.5 790.458 1145.5 914.757 1083.62 c 0,27,28
 1040.46 1021.04 1040.46 1021.04 1114.6 897.119 c 0,29,30
 1188.5 773.599 1188.5 773.599 1188.5 608 c 0,31,32
 1188.5 425.718 1188.5 425.718 1099.88 309.342 c 0,33,34
 1006.42 186.18 1006.42 186.18 863.287 189.509 c 0,35,36
 784.487 191.761 784.487 191.761 729.5 233 c 2,37,-1
 728.887 233.459 l 1,38,-1
 728.301 233.953 l 2,39,40
 705.663 252.99 705.663 252.99 692.694 271.233 c 1,41,42
 690.748 269.294 690.748 269.294 689.027 267.645 c 0,43,44
 676.091 255.248 676.091 255.248 648.58 233.447 c 0,45,46
 618.34 209.483 618.34 209.483 582.822 197.454 c 0,47,48
 547.53 185.5 547.53 185.5 508 185.5 c 0,49,50
 480.951 185.5 480.951 185.5 451.232 196.793 c 0,51,52
 422.103 207.863 422.103 207.863 392.174 232.145 c 0,53,54
 360.145 258.131 360.145 258.131 339.987 308.236 c 0,55,56
 320.5 356.675 320.5 356.675 320.5 420 c 0,57,58
 320.5 517.574 320.5 517.574 362.168 616.202 c 0,59,60
 404.048 715.332 404.048 715.332 479.588 783.426 c 0,61,62
 558.433 854.5 558.433 854.5 649 854.5 c 0,63,64
 687.576 854.5 687.576 854.5 720.082 835.121 c 0,65,66
 740.48 822.96 740.48 822.96 753.92 810.066 c 1,67,-1
 762.529 844.5 l 1,68,-1
 927.113 844.5 l 1,69,-1
 829.598 491.006 l 1,70,71
 809.5 410.62 809.5 410.62 809.5 395 c 0,72,73
 809.5 379.094 809.5 379.094 828.302 359.582 c 0,74,75
 846.69 340.5 846.69 340.5 877 340.5 c 0,76,77
 937.487 340.5 937.487 340.5 984.465 418.225 c 0,78,79
 1035.5 502.663 1035.5 502.663 1035.5 621 c 0,80,81
 1035.5 801.271 1035.5 801.271 922.702 897.036 c 0,82,83
 807.904 994.5 807.904 994.5 629 994.5 c 0,84,85
 538.817 994.5 538.817 994.5 465.844 968.136 c 0,86,87
 393.432 941.975 393.432 941.975 345.44 898.598 c 0,88,89
 296.797 854.634 296.797 854.634 263.504 795.081 c 0,90,91
 229.929 735.025 229.929 735.025 214.809 668.872 c 0,92,93
 199.5 601.897 199.5 601.897 199.5 530 c 0,94,95
 199.5 464.893 199.5 464.893 212.399 404.219 c 0,96,97
 225.092 344.512 225.092 344.512 255.77 286.931 c 0,98,99
 286.164 229.884 286.164 229.884 330.413 187.964 c 0,100,101
 373.885 146.78 373.885 146.78 441.695 121.235 c 0,102,103
 510.007 95.5 510.007 95.5 596 95.5 c 0,104,105
 782.131 95.5 782.131 95.5 900.666 140.333 c 0,106,107
 1013.33 183.333 1013.33 183.333 1043 202.667 c 1,0,-1
518 340.5 m 0,109,110
 553.534 340.5 553.534 340.5 591.316 383.623 c 0,111,112
 633.956 432.289 633.956 432.289 658.693 499.499 c 128,-1,113
 683.5 566.901 683.5 566.901 683.5 623 c 0,114,115
 683.5 658.452 683.5 658.452 666.916 679.46 c 0,116,117
 652.674 697.5 652.674 697.5 637 697.5 c 0,118,119
 604.927 697.5 604.927 697.5 569.676 654.955 c 0,120,121
 529.275 606.193 529.275 606.193 504.906 537.773 c 128,-1,122
 480.5 469.248 480.5 469.248 480.5 412 c 0,123,124
 480.5 383.493 480.5 383.493 493.597 357.298 c 0,125,126
 501.996 340.5 501.996 340.5 518 340.5 c 0,109,110
EndSplineSet
EndChar

StartChar: A
Encoding: 65 65 37
Width: 1228
Flags: W
LayerCount: 2
Fore
SplineSet
1240.5 161 m 1,0,-1
 1240.5 0 l 1,1,-1
 755.5 0 l 1,2,-1
 755.5 161 l 1,3,-1
 948.683 161 l 1,4,-1
 859.139 348.5 l 1,5,-1
 367.932 348.5 l 1,6,-1
 279.16 161 l 1,7,-1
 472.5 161 l 1,8,-1
 472.5 0 l 1,9,-1
 -12.5 0 l 1,10,-1
 -12.5 161 l 1,11,-1
 107.22 161 l 1,12,-1
 475.503 992 l 1,13,-1
 198.5 992 l 1,14,-1
 198.5 1153 l 1,15,-1
 693.827 1153 l 1,16,-1
 1125.83 161 l 1,17,-1
 1240.5 161 l 1,0,-1
431.53 503.5 m 1,18,-1
 797.39 503.5 l 1,19,-1
 614.065 946.8 l 1,20,-1
 431.53 503.5 l 1,18,-1
EndSplineSet
EndChar

StartChar: B
Encoding: 66 66 38
Width: 1228
Flags: W
LayerCount: 2
Fore
SplineSet
59.5 161 m 1,0,-1
 229.5 161 l 1,1,-1
 229.5 992 l 1,2,-1
 59.5 992 l 1,3,-1
 59.5 1153 l 1,4,-1
 651 1153 l 2,5,6
 769.177 1153 769.177 1153 841.571 1129.4 c 0,7,8
 915.578 1106.6 915.578 1106.6 967.688 1062.59 c 0,9,10
 1074.5 972.16 1074.5 972.16 1074.5 840.308 c 0,11,12
 1074.5 784.771 1074.5 784.771 1056.01 737.12 c 0,13,14
 1037.35 689.016 1037.35 689.016 1005.64 655.774 c 0,15,16
 977.568 626.354 977.568 626.354 952.806 607.556 c 1,17,18
 1028.63 574.54 1028.63 574.54 1077.36 519.878 c 0,19,20
 1146.5 442.313 1146.5 442.313 1146.5 329.035 c 0,21,22
 1146.5 241.5 1146.5 241.5 1102.22 168.258 c 0,23,24
 1057.5 94.298 1057.5 94.298 984.145 58.0356 c 0,25,26
 913.572 22.6677 913.572 22.6677 842.883 11.4488 c 0,27,28
 774.709 0 774.709 0 633 0 c 2,29,-1
 59.5 0 l 1,30,-1
 59.5 161 l 1,0,-1
397.5 679.5 m 1,31,-1
 637 679.5 l 2,32,33
 709.429 679.5 709.429 679.5 762.536 693.304 c 0,34,35
 814.078 706.701 814.078 706.701 839.664 724.558 c 128,-1,36
 865.172 742.361 865.172 742.361 880.476 765.966 c 0,37,38
 896.169 790.171 896.169 790.171 899.605 806.076 c 0,39,40
 903.5 824.109 903.5 824.109 903.5 842.996 c 0,41,42
 903.5 873.158 903.5 873.158 892.152 897.02 c 0,43,44
 880.697 921.105 880.697 921.105 864.805 935.15 c 0,45,46
 848.087 949.923 848.087 949.923 821.844 961.425 c 0,47,48
 793.725 973.749 793.725 973.749 771.822 978.907 c 0,49,50
 748.843 984.319 748.843 984.319 719.406 987.706 c 0,51,52
 689.371 991.16 689.371 991.16 676.84 991.566 c 0,53,54
 663.402 992 663.402 992 647 992 c 2,55,-1
 397.5 992 l 1,56,-1
 397.5 679.5 l 1,31,-1
397.5 161 m 1,57,-1
 629 161 l 2,58,59
 671.663 161 671.663 161 695.837 161.452 c 0,60,61
 719.24 161.89 719.24 161.89 763.654 165.469 c 0,62,63
 806.057 168.886 806.057 168.886 831.072 175.437 c 0,64,65
 856.8 182.175 856.8 182.175 890.146 195.952 c 0,66,67
 919.319 208.005 919.319 208.005 934.709 223.876 c 0,68,69
 950.962 240.636 950.962 240.636 963.353 268.839 c 0,70,71
 975.5 296.484 975.5 296.484 975.5 331.958 c 0,72,73
 975.5 425.222 975.5 425.222 887.39 469.453 c 0,74,75
 789.687 518.5 789.687 518.5 621 518.5 c 2,76,-1
 397.5 518.5 l 1,77,-1
 397.5 161 l 1,57,-1
EndSplineSet
EndChar

StartChar: C
Encoding: 67 67 39
Width: 1228
Flags: W
LayerCount: 2
Fore
SplineSet
1262.67 234.151 m 1,0,-1
 1239.43 211.983 l 2,1,2
 1172.33 147.981 1172.33 147.981 1099.39 99.8699 c 128,-1,3
 1026.49 51.7792 1026.49 51.7792 967.802 26.6278 c 0,4,5
 909.319 1.56304 909.319 1.56304 849.188 -13.0775 c 0,6,7
 789.534 -27.602 789.534 -27.602 753.328 -31.3292 c 0,8,9
 717.669 -35 717.669 -35 683.998 -35 c 0,10,11
 545.685 -35 545.685 -35 432.575 18.6341 c 0,12,13
 319.172 69.4644 319.172 69.4644 246.45 156.908 c 0,14,15
 174.888 242.956 174.888 242.956 136.6 354.012 c 0,16,17
 98.5 464.518 98.5 464.518 98.5 589.451 c 0,18,19
 98.5 718.85 98.5 718.85 142.569 829.938 c 0,20,21
 186.882 941.641 186.882 941.641 264.919 1019.42 c 128,-1,22
 342.96 1097.21 342.96 1097.21 450.02 1141.3 c 0,23,24
 557.221 1188 557.221 1188 680 1188 c 0,25,26
 853.162 1188 853.162 1188 963.219 1092.12 c 0,27,28
 965.498 1090.18 965.498 1090.18 968.001 1088.11 c 1,29,30
 968.284 1089.16 968.284 1089.16 968.531 1090.12 c 0,31,32
 971.981 1103.49 971.981 1103.49 973.723 1118.3 c 0,33,34
 975.5 1133.41 975.5 1133.41 975.5 1143.5 c 2,35,-1
 975.5 1176 l 1,36,-1
 1116.61 1176 l 1,37,-1
 1115.48 1142.41 l 2,38,39
 1109.58 965.981 1109.58 965.981 1136.24 755.587 c 2,40,-1
 1140.17 724.58 l 1,41,-1
 981.447 698.126 l 1,42,-1
 975.97 729.995 l 2,43,44
 955.139 851.201 955.139 851.201 913.061 914.319 c 0,45,46
 840.841 1020 840.841 1020 676 1020 c 0,47,48
 585.298 1020 585.298 1020 509.39 986.568 c 128,-1,49
 433.488 953.138 433.488 953.138 383.12 895.968 c 0,50,51
 331.878 837.806 331.878 837.806 303.281 759.182 c 0,52,53
 274.5 680.054 274.5 680.054 274.5 590.942 c 0,54,55
 274.5 531.207 274.5 531.207 285.991 471.429 c 0,56,57
 297.314 412.527 297.314 412.527 327.275 348.719 c 0,58,59
 356.711 286.03 356.711 286.03 401.291 239.302 c 0,60,61
 444.642 193.862 444.642 193.862 517.751 163.445 c 128,-1,62
 590.927 133 590.927 133 684 133 c 0,63,64
 806.479 133 806.479 133 911.228 184.199 c 0,65,66
 1018.77 236.761 1018.77 236.761 1127.48 332.851 c 2,67,-1
 1151.2 353.821 l 1,68,-1
 1262.67 234.151 l 1,0,-1
EndSplineSet
EndChar

StartChar: D
Encoding: 68 68 40
Width: 1228
Flags: W
LayerCount: 2
Fore
SplineSet
37.5 161 m 1,0,-1
 198.5 161 l 1,1,-1
 198.5 992 l 1,2,-1
 37.5 992 l 1,3,-1
 37.5 1153 l 1,4,-1
 582 1153 l 2,5,6
 739.898 1153 739.898 1153 838.581 1122.56 c 0,7,8
 942.002 1092.42 942.002 1092.42 1026.24 994.495 c 0,9,10
 1160.5 837.715 1160.5 837.715 1160.5 596.378 c 0,11,12
 1160.5 431.793 1160.5 431.793 1110.18 312.94 c 0,13,14
 1059.58 193.447 1059.58 193.447 980.463 121.743 c 0,15,16
 932.733 78.7063 932.733 78.7063 873.107 51.5698 c 0,17,18
 813.822 24.5885 813.822 24.5885 749.624 14.9065 c 0,19,20
 688.778 5.19144 688.778 5.19144 653.919 2.59012 c 128,-1,21
 619.21 0 619.21 0 573 0 c 2,22,-1
 37.5 0 l 1,23,-1
 37.5 161 l 1,0,-1
366.5 161 m 1,24,-1
 573 161 l 2,25,26
 609.84 161 609.84 161 636.684 162.778 c 0,27,28
 663.105 164.529 663.105 164.529 708.547 171.702 c 0,29,30
 750.787 178.37 750.787 178.37 789.466 196.307 c 0,31,32
 827.751 214.062 827.751 214.062 858.019 242.135 c 0,33,34
 913.034 293.16 913.034 293.16 949.057 382.55 c 0,35,36
 985.5 472.981 985.5 472.981 985.5 590.876 c 0,37,38
 985.5 766.572 985.5 766.572 895.695 881.089 c 0,39,40
 841.726 950.326 841.726 950.326 778.034 970.419 c 0,41,42
 709.626 992 709.626 992 584 992 c 2,43,-1
 366.5 992 l 1,44,-1
 366.5 161 l 1,24,-1
EndSplineSet
EndChar

StartChar: E
Encoding: 69 69 41
Width: 1228
Flags: W
LayerCount: 2
Fore
SplineSet
1140.5 442 m 1,0,-1
 1140.5 0 l 1,1,-1
 84.5 0 l 1,2,-1
 84.5 161 l 1,3,-1
 258.5 161 l 1,4,-1
 258.5 992 l 1,5,-1
 84.5 992 l 1,6,-1
 84.5 1153 l 1,7,-1
 1121.82 1153 l 1,8,-1
 1131.2 711 l 1,9,-1
 973.838 711 l 1,10,-1
 952.838 992 l 1,11,-1
 425.5 992 l 1,12,-1
 425.5 689.5 l 1,13,-1
 692.5 689.5 l 1,14,-1
 692.5 839.5 l 1,15,-1
 851.5 839.5 l 1,16,-1
 851.5 381.5 l 1,17,-1
 692.5 381.5 l 1,18,-1
 692.5 528.5 l 1,19,-1
 425.5 528.5 l 1,20,-1
 425.5 161 l 1,21,-1
 972.636 161 l 1,22,-1
 982.636 442 l 1,23,-1
 1140.5 442 l 1,0,-1
EndSplineSet
EndChar

StartChar: F
Encoding: 70 70 42
Width: 1228
Flags: W
LayerCount: 2
Fore
SplineSet
714.5 161 m 1,0,-1
 714.5 0 l 1,1,-1
 114.5 0 l 1,2,-1
 114.5 161 l 1,3,-1
 280.5 161 l 1,4,-1
 280.5 992 l 1,5,-1
 114.5 992 l 1,6,-1
 114.5 1153 l 1,7,-1
 1139.63 1153 l 1,8,-1
 1151.39 719 l 1,9,-1
 996.34 719 l 1,10,-1
 971.34 992 l 1,11,-1
 448.5 992 l 1,12,-1
 448.5 689.5 l 1,13,-1
 715.5 689.5 l 1,14,-1
 715.5 839.5 l 1,15,-1
 874.5 839.5 l 1,16,-1
 874.5 381.5 l 1,17,-1
 715.5 381.5 l 1,18,-1
 715.5 528.5 l 1,19,-1
 448.5 528.5 l 1,20,-1
 448.5 161 l 1,21,-1
 714.5 161 l 1,0,-1
EndSplineSet
EndChar

StartChar: G
Encoding: 71 71 43
Width: 1228
Flags: W
LayerCount: 2
Fore
SplineSet
1117.5 68.8079 m 1,0,-1
 1097.7 61.0175 l 2,1,2
 853.612 -35 853.612 -35 666 -35 c 0,3,4
 539.023 -35 539.023 -35 434.937 4.62671 c 0,5,6
 330.32 42.285 330.32 42.285 262.082 103.758 c 0,7,8
 194.855 164.318 194.855 164.318 148.908 244.715 c 0,9,10
 103.236 324.628 103.236 324.628 84.2558 406.381 c 0,11,12
 65.5 487.168 65.5 487.168 65.5 570.871 c 0,13,14
 65.5 688.334 65.5 688.334 103.64 797.505 c 0,15,16
 141.909 907.046 141.909 907.046 212.878 993.038 c 0,17,18
 284.925 1080.34 284.925 1080.34 396.577 1132.62 c 0,19,20
 508.379 1188 508.379 1188 643 1188 c 0,21,22
 801.482 1188 801.482 1188 919.823 1092.46 c 0,23,24
 925.526 1087.54 925.526 1087.54 930.57 1083.61 c 1,25,26
 934.005 1105.43 934.005 1105.43 938.704 1147.14 c 2,27,-1
 941.956 1176 l 1,28,-1
 1105.7 1176 l 1,29,-1
 1101.26 1139.57 l 2,30,31
 1096.38 1099.59 1096.38 1099.59 1093.44 1049.59 c 0,32,33
 1090.49 999.345 1090.49 999.345 1090 947.193 c 0,34,35
 1089.51 895.26 1089.51 895.26 1092.44 845.408 c 0,36,37
 1095.36 795.827 1095.36 795.827 1101.16 756.206 c 2,38,-1
 1105.7 725.141 l 1,39,-1
 953.772 697.517 l 1,40,-1
 948.851 730.737 l 2,41,42
 944.972 756.923 944.972 756.923 941.131 776.126 c 0,43,44
 937.502 794.271 937.502 794.271 926.582 827.984 c 0,45,46
 916.065 860.45 916.065 860.45 903.116 883.67 c 128,-1,47
 890.257 906.727 890.257 906.727 865.967 934.684 c 0,48,49
 842.926 961.202 842.926 961.202 814.466 978.02 c 0,50,51
 785.223 995.3 785.223 995.3 739.949 1007.65 c 128,-1,52
 694.637 1020 694.637 1020 639 1020 c 0,53,54
 470.937 1020 470.937 1020 357.17 896.4 c 0,55,56
 241.5 770.733 241.5 770.733 241.5 573.239 c 0,57,58
 241.5 478.198 241.5 478.198 268.499 398.319 c 0,59,60
 295.18 319.382 295.18 319.382 346.896 259.044 c 0,61,62
 397.415 200.101 397.415 200.101 478.606 166.766 c 0,63,64
 560.845 133 560.845 133 668 133 c 0,65,66
 779.105 133 779.105 133 948.5 182.288 c 1,67,-1
 948.5 377.5 l 1,68,-1
 645.5 377.5 l 1,69,-1
 645.5 538.5 l 1,70,-1
 1216.5 538.5 l 1,71,-1
 1216.5 377.5 l 1,72,-1
 1117.5 377.5 l 1,73,-1
 1117.5 68.8079 l 1,0,-1
EndSplineSet
EndChar

StartChar: H
Encoding: 72 72 44
Width: 1228
Flags: W
LayerCount: 2
Fore
SplineSet
1183.5 161 m 1,0,-1
 1183.5 0 l 1,1,-1
 706.5 0 l 1,2,-1
 706.5 161 l 1,3,-1
 860.5 161 l 1,4,-1
 860.5 514.5 l 1,5,-1
 368.5 514.5 l 1,6,-1
 368.5 161 l 1,7,-1
 521.5 161 l 1,8,-1
 521.5 0 l 1,9,-1
 47.5 0 l 1,10,-1
 47.5 161 l 1,11,-1
 200.5 161 l 1,12,-1
 200.5 992 l 1,13,-1
 47.5 992 l 1,14,-1
 47.5 1153 l 1,15,-1
 521.5 1153 l 1,16,-1
 521.5 992 l 1,17,-1
 368.5 992 l 1,18,-1
 368.5 675.5 l 1,19,-1
 860.5 675.5 l 1,20,-1
 860.5 992 l 1,21,-1
 706.5 992 l 1,22,-1
 706.5 1153 l 1,23,-1
 1183.5 1153 l 1,24,-1
 1183.5 992 l 1,25,-1
 1027.5 992 l 1,26,-1
 1027.5 161 l 1,27,-1
 1183.5 161 l 1,0,-1
EndSplineSet
EndChar

StartChar: I
Encoding: 73 73 45
Width: 1228
Flags: W
LayerCount: 2
Fore
SplineSet
1056.5 161 m 1,0,-1
 1056.5 0 l 1,1,-1
 172.5 0 l 1,2,-1
 172.5 161 l 1,3,-1
 530.5 161 l 1,4,-1
 530.5 992 l 1,5,-1
 172.5 992 l 1,6,-1
 172.5 1153 l 1,7,-1
 1056.5 1153 l 1,8,-1
 1056.5 992 l 1,9,-1
 698.5 992 l 1,10,-1
 698.5 161 l 1,11,-1
 1056.5 161 l 1,0,-1
EndSplineSet
EndChar

StartChar: J
Encoding: 74 74 46
Width: 1228
Flags: W
LayerCount: 2
Fore
SplineSet
958.5 992 m 1,0,-1
 958.5 422.818 l 2,1,2
 958.5 320.197 958.5 320.197 946.661 243.869 c 0,3,4
 934.136 163.118 934.136 163.118 892.905 103.51 c 1,5,6
 841.205 34.9537 841.205 34.9537 755.232 0.597933 c 0,7,8
 671.633 -35 671.633 -35 590 -35 c 0,9,10
 511.045 -35 511.045 -35 424.207 -13.5519 c 0,11,12
 338.963 7.5025 338.963 7.5025 289.819 27.3689 c 0,13,14
 242.369 46.5507 242.369 46.5507 164.943 82.7279 c 1,15,-1
 107.373 106.346 l 1,16,-1
 87.1526 604 l 1,17,-1
 252.22 604 l 1,18,-1
 261.47 373.901 l 2,19,20
 265.217 292.409 265.217 292.409 280.199 254.512 c 0,21,22
 294.041 219.907 294.041 219.907 342.76 191.348 c 1,23,24
 437.334 132.934 437.334 132.934 568.116 132 c 0,25,26
 694.464 132 694.464 132 751.807 205.207 c 0,27,28
 767.93 225.444 767.93 225.444 782.317 281.452 c 0,29,30
 788.544 307.922 788.544 307.922 789.511 377.006 c 0,31,32
 790.5 395.408 790.5 395.408 790.5 428.119 c 2,33,-1
 790.5 992 l 1,34,-1
 387.5 992 l 1,35,-1
 387.5 1153 l 1,36,-1
 1218.5 1153 l 1,37,-1
 1218.5 992 l 1,38,-1
 958.5 992 l 1,0,-1
EndSplineSet
EndChar

StartChar: K
Encoding: 75 75 47
Width: 1228
Flags: W
LayerCount: 2
Fore
SplineSet
1236.5 161 m 1,0,-1
 1236.5 0 l 1,1,-1
 919.294 0 l 1,2,-1
 911.483 21.3206 l 2,3,4
 875.445 119.692 875.445 119.692 780.766 292.395 c 1,5,6
 718.575 397.167 718.575 397.167 660.796 458.766 c 0,7,8
 611.802 510.999 611.802 510.999 544.583 547.965 c 1,9,-1
 429.5 438.555 l 1,10,-1
 429.5 161 l 1,11,-1
 603.5 161 l 1,12,-1
 603.5 0 l 1,13,-1
 90.5 0 l 1,14,-1
 90.5 161 l 1,15,-1
 262.5 161 l 1,16,-1
 262.5 992 l 1,17,-1
 90.5 992 l 1,18,-1
 90.5 1153 l 1,19,-1
 603.5 1153 l 1,20,-1
 603.5 992 l 1,21,-1
 429.5 992 l 1,22,-1
 429.5 599.461 l 1,23,-1
 832.986 992 l 1,24,-1
 712.5 992 l 1,25,-1
 712.5 1153 l 1,26,-1
 1177.5 1153 l 1,27,-1
 1177.5 992 l 1,28,-1
 1066.18 992 l 1,29,-1
 662.353 628.409 l 1,30,31
 690.309 612.866 690.309 612.866 715.453 594.728 c 0,32,33
 758.007 564.032 758.007 564.032 813.294 508.924 c 0,34,35
 869.224 453.175 869.224 453.175 928.531 359.426 c 0,36,37
 982.686 273.822 982.686 273.822 1037.14 161 c 1,38,-1
 1236.5 161 l 1,0,-1
EndSplineSet
EndChar

StartChar: L
Encoding: 76 76 48
Width: 1228
Flags: W
LayerCount: 2
Fore
SplineSet
1167 575 m 1,0,-1
 1141.07 0 l 1,1,-1
 88.5 0 l 1,2,-1
 88.5 161 l 1,3,-1
 293.5 161 l 1,4,-1
 293.5 992 l 1,5,-1
 88.5 992 l 1,6,-1
 88.5 1153 l 1,7,-1
 712.5 1153 l 1,8,-1
 712.5 992 l 1,9,-1
 460.5 992 l 1,10,-1
 460.5 161 l 1,11,-1
 977.624 161 l 1,12,-1
 1005.62 575 l 1,13,-1
 1167 575 l 1,0,-1
EndSplineSet
EndChar

StartChar: M
Encoding: 77 77 49
Width: 1228
Flags: W
LayerCount: 2
Fore
SplineSet
1259.5 161 m 1,0,-1
 1259.5 0 l 1,1,-1
 760.5 0 l 1,2,-1
 760.5 161 l 1,3,-1
 978.435 161 l 1,4,-1
 950.869 1015.53 l 1,5,-1
 679.488 295 l 1,6,-1
 527.922 295 l 1,7,-1
 277.984 1010.99 l 1,8,-1
 250.565 161 l 1,9,-1
 468.5 161 l 1,10,-1
 468.5 0 l 1,11,-1
 -30.5 0 l 1,12,-1
 -30.5 161 l 1,13,-1
 95.6621 161 l 1,14,-1
 128.295 992 l 1,15,-1
 -16.5 992 l 1,16,-1
 -16.5 1153 l 1,17,-1
 381.339 1153 l 1,18,-1
 610.998 471.875 l 1,19,-1
 860.286 1153 l 1,20,-1
 1244.5 1153 l 1,21,-1
 1244.5 992 l 1,22,-1
 1100.71 992 l 1,23,-1
 1133.34 161 l 1,24,-1
 1259.5 161 l 1,0,-1
EndSplineSet
EndChar

StartChar: N
Encoding: 78 78 50
Width: 1228
Flags: W
LayerCount: 2
Fore
SplineSet
1109.5 992 m 1,0,-1
 1109.5 -27 l 1,1,-1
 875.029 -27 l 1,2,-1
 343.5 1022.5 l 1,3,-1
 343.5 161 l 1,4,-1
 575.5 161 l 1,5,-1
 575.5 0 l 1,6,-1
 24.5 0 l 1,7,-1
 24.5 161 l 1,8,-1
 184.5 161 l 1,9,-1
 184.5 992 l 1,10,-1
 24.5 992 l 1,11,-1
 24.5 1153 l 1,12,-1
 428.011 1153 l 1,13,-1
 950.5 116.762 l 1,14,-1
 950.5 992 l 1,15,-1
 721.5 992 l 1,16,-1
 721.5 1153 l 1,17,-1
 1242.5 1153 l 1,18,-1
 1242.5 992 l 1,19,-1
 1109.5 992 l 1,0,-1
EndSplineSet
EndChar

StartChar: O
Encoding: 79 79 51
Width: 1228
Flags: W
LayerCount: 2
Fore
SplineSet
1134.82 344.006 m 0,0,1
 1096 234.331 1096 234.331 1025.45 150.665 c 0,2,3
 954.849 66.6841 954.849 66.6841 847.743 17.2872 c 0,4,5
 740.5 -35 740.5 -35 614 -35 c 0,6,7
 446.975 -35 446.975 -35 317.692 48.6992 c 0,8,9
 189.243 131.857 189.243 131.857 121.976 270.669 c 0,10,11
 55.5 407.846 55.5 407.846 55.5 575.076 c 128,-1,12
 55.5 742.258 55.5 742.258 121.939 880.355 c 0,13,14
 189.18 1020.12 189.18 1020.12 317.616 1103.78 c 0,15,16
 446.923 1188 446.923 1188 614 1188 c 0,17,18
 715.846 1188 715.846 1188 805.852 1154.45 c 0,19,20
 896.233 1122.59 896.233 1122.59 963.4 1064.65 c 0,21,22
 1029.46 1007.66 1029.46 1007.66 1077.43 931.365 c 128,-1,23
 1125.37 855.132 1125.37 855.132 1149.53 763.717 c 0,24,25
 1173.5 673.026 1173.5 673.026 1173.5 575.588 c 0,26,27
 1173.5 453.284 1173.5 453.284 1134.82 344.006 c 0,0,1
614 133 m 0,28,29
 686.571 133 686.571 133 748.44 156.736 c 0,30,31
 810.309 181.32 810.309 181.32 854.286 223.14 c 0,32,33
 899.564 266.197 899.564 266.197 932.385 322.986 c 128,-1,34
 965.317 379.967 965.317 379.967 981.336 444.497 c 0,35,36
 997.5 509.611 997.5 509.611 997.5 577.898 c 0,37,38
 997.5 694.834 997.5 694.834 952.5 795.455 c 0,39,40
 908.354 894.166 908.354 894.166 818.808 957.71 c 0,41,42
 731.029 1020 731.029 1020 614 1020 c 0,43,44
 520.453 1020 520.453 1020 446.342 981.448 c 0,45,46
 371.733 942.636 371.733 942.636 327.098 879.829 c 0,47,48
 280.787 814.662 280.787 814.662 256.168 737.028 c 128,-1,49
 231.5 659.233 231.5 659.233 231.5 577.898 c 0,50,51
 231.5 512.353 231.5 512.353 247.19 448.12 c 0,52,53
 262.754 384.399 262.754 384.399 295.302 326.384 c 0,54,55
 327.655 268.718 327.655 268.718 372.445 225.247 c 0,56,57
 415.893 183.079 415.893 183.079 478.355 158.016 c 128,-1,58
 540.701 133 540.701 133 614 133 c 0,28,29
EndSplineSet
EndChar

StartChar: P
Encoding: 80 80 52
Width: 1228
Flags: W
LayerCount: 2
Fore
SplineSet
747.5 161 m 1,0,-1
 747.5 0 l 1,1,-1
 112.5 0 l 1,2,-1
 112.5 161 l 1,3,-1
 278.5 161 l 1,4,-1
 278.5 992 l 1,5,-1
 112.5 992 l 1,6,-1
 112.5 1153 l 1,7,-1
 614 1153 l 2,8,9
 728.704 1153 728.704 1153 800.343 1141.06 c 0,10,11
 874.877 1129.17 874.877 1129.17 933.757 1097.87 c 0,12,13
 1019.6 1052.59 1019.6 1052.59 1073.11 964.277 c 0,14,15
 1126.5 876.181 1126.5 876.181 1126.5 778.838 c 0,16,17
 1126.5 689.791 1126.5 689.791 1080.74 606.911 c 0,18,19
 1034.25 522.73 1034.25 522.73 959.987 482.89 c 0,20,21
 882.592 440.718 882.592 440.718 801.824 430.345 c 0,22,23
 725.168 420.5 725.168 420.5 528 420.5 c 2,24,-1
 446.5 420.5 l 1,25,-1
 446.5 161 l 1,26,-1
 747.5 161 l 1,0,-1
446.5 581.5 m 1,27,-1
 530 581.5 l 2,28,29
 616.707 581.5 616.707 581.5 651.029 581.96 c 0,30,31
 684.355 582.407 684.355 582.407 741.732 586.95 c 0,32,33
 796.307 591.272 796.307 591.272 826.587 600.762 c 0,34,35
 855.091 609.695 855.091 609.695 876.915 626.029 c 0,36,37
 905.399 646.211 905.399 646.211 928.046 687.379 c 0,38,39
 950.5 728.196 950.5 728.196 950.5 783.043 c 0,40,41
 950.5 847.197 950.5 847.197 918.884 891.538 c 0,42,43
 886.448 937.028 886.448 937.028 844.554 957.625 c 0,44,45
 808.94 975.777 808.94 975.777 762.604 983.697 c 0,46,47
 714.026 992 714.026 992 614 992 c 2,48,-1
 446.5 992 l 1,49,-1
 446.5 581.5 l 1,27,-1
EndSplineSet
EndChar

StartChar: Q
Encoding: 81 81 53
Width: 1228
Flags: W
LayerCount: 2
Fore
SplineSet
1167.57 -153.236 m 1,0,-1
 1139.03 -173.847 l 2,1,2
 1101.91 -200.659 1101.91 -200.659 1080.72 -213.369 c 0,3,4
 1058.04 -226.979 1058.04 -226.979 1011.11 -244.043 c 0,5,6
 961.723 -262 961.723 -262 913 -262 c 0,7,8
 865.163 -262 865.163 -262 826.037 -250.092 c 0,9,10
 789.53 -238.981 789.53 -238.981 725.755 -210.179 c 0,11,12
 639.152 -172 639.152 -172 580 -172 c 0,13,14
 541.471 -172 541.471 -172 504.777 -182.292 c 0,15,16
 466.65 -192.987 466.65 -192.987 440.829 -205.671 c 0,17,18
 412.99 -219.346 412.99 -219.346 353.662 -251.977 c 2,19,-1
 326.602 -266.86 l 1,20,-1
 246.483 -137.306 l 1,21,-1
 273.552 -120.081 l 2,22,23
 314.876 -93.7836 314.876 -93.7836 355.079 -55.4721 c 0,24,25
 394.323 -18.0756 394.323 -18.0756 412.081 3.05673 c 1,26,27
 258.554 62.6903 258.554 62.6903 163.085 204.558 c 0,28,29
 55.5 364.429 55.5 364.429 55.5 574.899 c 0,30,31
 55.5 714.69 55.5 714.69 100.48 830.97 c 0,32,33
 145.828 948.205 145.828 948.205 223.561 1024.77 c 0,34,35
 300.981 1101.02 300.981 1101.02 401.301 1143.2 c 0,36,37
 502.106 1188 502.106 1188 612 1188 c 0,38,39
 768.384 1188 768.384 1188 896.307 1111.69 c 128,-1,40
 1024.05 1035.48 1024.05 1035.48 1099.11 892.153 c 0,41,42
 1173.5 750.099 1173.5 750.099 1173.5 568.427 c 0,43,44
 1173.5 482.818 1173.5 482.818 1155.83 401.508 c 0,45,46
 1137.92 319.097 1137.92 319.097 1093.81 238.936 c 0,47,48
 1049.36 158.144 1049.36 158.144 983.503 98.2258 c 0,49,50
 916.577 37.3316 916.577 37.3316 811.656 0.97485 c 0,51,52
 758.464 -18.4667 758.464 -18.4667 698.487 -27.5147 c 1,53,54
 736.437 -37.9079 736.437 -37.9079 776.324 -54.4271 c 0,55,56
 849.043 -83.9071 849.043 -83.9071 868.323 -90.02 c 0,57,58
 884.029 -95 884.029 -95 905 -95 c 0,59,60
 967.057 -95 967.057 -95 1038.82 -46.5624 c 2,61,-1
 1062.91 -30.3023 l 1,62,-1
 1167.57 -153.236 l 1,0,-1
614 133 m 0,63,64
 686.571 133 686.571 133 748.44 156.736 c 0,65,66
 810.309 181.32 810.309 181.32 854.286 223.14 c 0,67,68
 899.564 266.197 899.564 266.197 932.385 322.986 c 128,-1,69
 965.317 379.967 965.317 379.967 981.336 444.497 c 0,70,71
 997.5 509.611 997.5 509.611 997.5 577.898 c 0,72,73
 997.5 694.834 997.5 694.834 952.5 795.455 c 0,74,75
 908.354 894.166 908.354 894.166 818.808 957.71 c 0,76,77
 731.029 1020 731.029 1020 614 1020 c 0,78,79
 520.453 1020 520.453 1020 446.342 981.448 c 0,80,81
 371.733 942.636 371.733 942.636 327.098 879.829 c 0,82,83
 280.787 814.662 280.787 814.662 256.168 737.028 c 128,-1,84
 231.5 659.233 231.5 659.233 231.5 577.898 c 0,85,86
 231.5 512.353 231.5 512.353 247.19 448.12 c 0,87,88
 262.754 384.399 262.754 384.399 295.302 326.384 c 0,89,90
 327.655 268.718 327.655 268.718 372.445 225.247 c 0,91,92
 415.893 183.079 415.893 183.079 478.355 158.016 c 128,-1,93
 540.701 133 540.701 133 614 133 c 0,63,64
EndSplineSet
EndChar

StartChar: R
Encoding: 82 82 54
Width: 1228
Flags: W
LayerCount: 2
Fore
SplineSet
1214.5 161 m 1,0,-1
 1214.5 0 l 1,1,-1
 905.14 0 l 1,2,-1
 896.452 18.9653 l 2,3,4
 826.426 162.083 826.426 162.083 701.699 342.783 c 0,5,6
 671.006 387.272 671.006 387.272 657.132 405.825 c 0,7,8
 616.439 463.389 616.439 463.389 593.354 474.915 c 0,9,10
 554.452 495.5 554.452 495.5 510 495.5 c 2,11,-1
 394.5 495.5 l 1,12,-1
 394.5 161 l 1,13,-1
 577.5 161 l 1,14,-1
 577.5 0 l 1,15,-1
 59.5 0 l 1,16,-1
 59.5 161 l 1,17,-1
 227.5 161 l 1,18,-1
 227.5 992 l 1,19,-1
 59.5 992 l 1,20,-1
 59.5 1153 l 1,21,-1
 618 1153 l 2,22,23
 729.86 1153 729.86 1153 792.148 1142.01 c 0,24,25
 858.364 1131.04 858.364 1131.04 915.2 1095.51 c 0,26,27
 1053.5 1006.59 1053.5 1006.59 1053.5 836.727 c 0,28,29
 1053.5 724.469 1053.5 724.469 982.104 633.811 c 0,30,31
 942.607 584.069 942.607 584.069 872.487 549.894 c 0,32,33
 827.199 527.822 827.199 527.822 772.14 516.299 c 1,34,35
 852.786 420.064 852.786 420.064 1019.37 161 c 1,36,-1
 1214.5 161 l 1,0,-1
394.5 992 m 1,37,-1
 394.5 657.5 l 1,38,-1
 594 657.5 l 2,39,40
 744.097 657.5 744.097 657.5 811.299 701.009 c 128,-1,41
 878.5 744.518 878.5 744.518 878.5 832.953 c 0,42,43
 878.5 900.248 878.5 900.248 847.612 936.195 c 128,-1,44
 816.723 972.142 816.723 972.142 749.411 984.411 c 0,45,46
 710.558 992 710.558 992 614 992 c 2,47,-1
 394.5 992 l 1,37,-1
EndSplineSet
EndChar

StartChar: S
Encoding: 83 83 55
Width: 1228
Flags: W
LayerCount: 2
Fore
SplineSet
163.179 -41 m 1,0,-1
 171.159 -1.98712 l 2,1,2
 188.5 82.7907 188.5 82.7907 188.5 173.5 c 0,3,4
 188.5 217.803 188.5 217.803 170.679 387.098 c 2,5,-1
 166.899 423 l 1,6,-1
 321.687 423 l 1,7,-1
 326.879 396.823 l 2,8,9
 349.429 283.128 349.429 283.128 390.845 228.206 c 0,10,11
 423.449 185.909 423.449 185.909 473.741 159.205 c 0,12,13
 523.093 133 523.093 133 616 133 c 0,14,15
 683.831 133 683.831 133 737.296 146.138 c 0,16,17
 789.411 158.944 789.411 158.944 820.298 178.614 c 128,-1,18
 851.135 198.253 851.135 198.253 871.305 224.123 c 128,-1,19
 891.54 250.078 891.54 250.078 899.426 274.316 c 0,20,21
 907.5 299.13 907.5 299.13 907.5 325.632 c 0,22,23
 907.5 396.634 907.5 396.634 847.077 438.815 c 128,-1,24
 786.654 480.996 786.654 480.996 651.745 493.926 c 0,25,26
 338.286 523.457 338.286 523.457 226.878 652.852 c 1,27,28
 170.5 716.795 170.5 716.795 170.5 825.815 c 0,29,30
 170.5 973.266 170.5 973.266 298.844 1081.31 c 0,31,32
 425.587 1188 425.587 1188 610 1188 c 0,33,34
 769.318 1188 769.318 1188 883.955 1097.15 c 0,35,36
 894.003 1089.49 894.003 1089.49 902.736 1083.4 c 1,37,38
 905.865 1098.28 905.865 1098.28 909.974 1122.04 c 2,39,-1
 910.18 1123.22 l 1,40,-1
 910.47 1124.38 l 2,41,42
 913.5 1136.5 913.5 1136.5 913.5 1143.5 c 2,43,-1
 913.5 1176 l 1,44,-1
 1078.85 1176 l 1,45,-1
 1069.67 1136.19 l 2,46,47
 1052.5 1061.8 1052.5 1061.8 1052.5 995.5 c 0,48,49
 1052.5 903.446 1052.5 903.446 1070.27 755.372 c 2,50,-1
 1073.94 724.763 l 1,51,-1
 918.488 697.727 l 1,52,-1
 913.816 730.978 l 2,53,54
 897.882 844.421 897.882 844.421 855.745 910.796 c 1,55,56
 783.038 1020 783.038 1020 623 1020 c 0,57,58
 551.87 1020 551.87 1020 495.884 1000.34 c 0,59,60
 441.097 981.101 441.097 981.101 410.139 951.633 c 0,61,62
 378.111 921.147 378.111 921.147 361.488 887.472 c 0,63,64
 345.5 855.085 345.5 855.085 345.5 824.1 c 0,65,66
 344.666 747.722 344.666 747.722 411.294 703.768 c 128,-1,67
 477.922 659.813 477.922 659.813 627.544 649.073 c 0,68,69
 742.121 640.431 742.121 640.431 819.427 623.012 c 0,70,71
 885.85 608.7 885.85 608.7 941.867 574.671 c 1,72,73
 1083.5 485.677 1083.5 485.677 1083.5 325.744 c 0,74,75
 1083.5 254.825 1083.5 254.825 1056.48 194.258 c 128,-1,76
 1029.42 133.611 1029.42 133.611 983.695 91.7313 c 0,77,78
 939.201 50.9772 939.201 50.9772 880.352 22.592 c 0,79,80
 822.108 -7.33172 822.108 -7.33172 758.993 -21.2387 c 0,81,82
 696.539 -35 696.539 -35 631 -35 c 0,83,84
 458.366 -35 458.366 -35 339.723 57.9834 c 1,85,86
 333.954 33.0077 333.954 33.0077 327.154 -13.2286 c 2,87,-1
 323.07 -41 l 1,88,-1
 163.179 -41 l 1,0,-1
EndSplineSet
EndChar

StartChar: T
Encoding: 84 84 56
Width: 1228
Flags: W
LayerCount: 2
Fore
SplineSet
945.5 161 m 1,0,-1
 945.5 0 l 1,1,-1
 282.5 0 l 1,2,-1
 282.5 161 l 1,3,-1
 530.5 161 l 1,4,-1
 530.5 992 l 1,5,-1
 255.305 992 l 1,6,-1
 227.305 592 l 1,7,-1
 67.0265 592 l 1,8,-1
 91.9096 1153 l 1,9,-1
 1137.09 1153 l 1,10,-1
 1161.97 592 l 1,11,-1
 1000.62 592 l 1,12,-1
 973.62 992 l 1,13,-1
 698.5 992 l 1,14,-1
 698.5 161 l 1,15,-1
 945.5 161 l 1,0,-1
EndSplineSet
EndChar

StartChar: U
Encoding: 85 85 57
Width: 1228
Flags: W
LayerCount: 2
Fore
SplineSet
1066.5 992 m 1,0,-1
 1066.5 461.778 l 2,1,2
 1066.5 324.006 1066.5 324.006 1047.07 249.657 c 0,3,4
 1027.06 173.111 1027.06 173.111 987.384 121.444 c 0,5,6
 943.722 64.5302 943.722 64.5302 843.788 15.0594 c 0,7,8
 742.665 -35 742.665 -35 613.867 -35 c 1,9,10
 488.425 -33.9721 488.425 -33.9721 388.21 14.5598 c 0,11,12
 290.34 61.9564 290.34 61.9564 243.73 121.268 c 0,13,14
 203.876 173.17 203.876 173.17 184.386 249.818 c 0,15,16
 165.5 324.092 165.5 324.092 165.5 461.761 c 2,17,-1
 165.5 992 l 1,18,-1
 16.5 992 l 1,19,-1
 16.5 1153 l 1,20,-1
 540.5 1153 l 1,21,-1
 540.5 992 l 1,22,-1
 332.5 992 l 1,23,-1
 332.5 480.5 l 6,24,25
 332.5 418.975 332.5 418.975 333.485 385.97 c 4,26,27
 334.403 355.225 334.403 355.225 343.856 308.436 c 4,28,29
 352.926 263.546 352.926 263.546 368.806 233.551 c 4,30,31
 425.855 122.907 425.855 122.907 619.919 122.001 c 5,32,33
 806.023 123.807 806.023 123.807 862.34 233.836 c 5,34,35
 879.072 263.779 879.072 263.779 887.582 308.126 c 4,36,37
 896.638 355.31 896.638 355.31 898.032 386.454 c 4,38,39
 899.5 419.222 899.5 419.222 899.5 480.5 c 6,40,-1
 899.5 992 l 1,41,-1
 690.5 992 l 1,42,-1
 690.5 1153 l 1,43,-1
 1214.5 1153 l 1,44,-1
 1214.5 992 l 1,45,-1
 1066.5 992 l 1,0,-1
EndSplineSet
EndChar

StartChar: V
Encoding: 86 86 58
Width: 1228
Flags: W
LayerCount: 2
Fore
SplineSet
1109.35 992 m 1,0,-1
 704.351 0 l 1,1,-1
 532.569 0 l 1,2,-1
 131.569 992 l 1,3,-1
 -20.5 992 l 1,4,-1
 -20.5 1153 l 1,5,-1
 483.5 1153 l 1,6,-1
 483.5 992 l 1,7,-1
 305.353 992 l 1,8,-1
 621.207 172.346 l 1,9,-1
 941.412 992 l 1,10,-1
 747.5 992 l 1,11,-1
 747.5 1153 l 1,12,-1
 1249.5 1153 l 1,13,-1
 1249.5 992 l 1,14,-1
 1109.35 992 l 1,0,-1
EndSplineSet
EndChar

StartChar: W
Encoding: 87 87 59
Width: 1228
Flags: W
LayerCount: 2
Fore
SplineSet
1158.13 992 m 1,0,-1
 1005.13 0 l 1,1,-1
 850.92 0 l 1,2,-1
 611.781 685.224 l 1,3,-1
 368.963 0 l 1,4,-1
 215.627 0 l 1,5,-1
 71.6274 992 l 1,6,-1
 -28.5 992 l 1,7,-1
 -28.5 1153 l 1,8,-1
 440.5 1153 l 1,9,-1
 440.5 992 l 1,10,-1
 238.092 992 l 1,11,-1
 330.605 294.101 l 1,12,-1
 561.066 942 l 1,13,-1
 676.139 942 l 1,14,-1
 900.234 294.902 l 1,15,-1
 996.693 992 l 1,16,-1
 792.5 992 l 1,17,-1
 792.5 1153 l 1,18,-1
 1257.5 1153 l 1,19,-1
 1257.5 992 l 1,20,-1
 1158.13 992 l 1,0,-1
EndSplineSet
EndChar

StartChar: X
Encoding: 88 88 60
Width: 1228
Flags: W
LayerCount: 2
Fore
SplineSet
1193.5 161 m 1,0,-1
 1193.5 0 l 1,1,-1
 715.5 0 l 1,2,-1
 715.5 161 l 1,3,-1
 868.134 161 l 1,4,-1
 615.474 508.008 l 1,5,-1
 352.42 161 l 1,6,-1
 536.5 161 l 1,7,-1
 536.5 0 l 1,8,-1
 35.5 0 l 1,9,-1
 35.5 161 l 1,10,-1
 155.864 161 l 1,11,-1
 518.164 603.813 l 1,12,-1
 198.914 992 l 1,13,-1
 73.5 992 l 1,14,-1
 73.5 1153 l 1,15,-1
 536.5 1153 l 1,16,-1
 536.5 992 l 1,17,-1
 400.827 992 l 1,18,-1
 616.32 703.393 l 1,19,-1
 837.201 992 l 1,20,-1
 715.5 992 l 1,21,-1
 715.5 1153 l 1,22,-1
 1154.5 1153 l 1,23,-1
 1154.5 992 l 1,24,-1
 1034.09 992 l 1,25,-1
 714.72 603.671 l 1,26,-1
 1071.29 161 l 1,27,-1
 1193.5 161 l 1,0,-1
EndSplineSet
EndChar

StartChar: Y
Encoding: 89 89 61
Width: 1228
Flags: W
LayerCount: 2
Fore
SplineSet
941.5 161 m 1,0,-1
 941.5 0 l 1,1,-1
 289.5 0 l 1,2,-1
 289.5 161 l 1,3,-1
 532.5 161 l 1,4,-1
 532.5 447.052 l 1,5,-1
 176.686 992 l 1,6,-1
 33.5 992 l 1,7,-1
 33.5 1153 l 1,8,-1
 499.5 1153 l 1,9,-1
 499.5 992 l 1,10,-1
 368.906 992 l 1,11,-1
 620.774 579.262 l 1,12,-1
 868.579 992 l 1,13,-1
 733.5 992 l 1,14,-1
 733.5 1153 l 1,15,-1
 1195.5 1153 l 1,16,-1
 1195.5 992 l 1,17,-1
 1052.42 992 l 1,18,-1
 700.5 447.13 l 1,19,-1
 700.5 161 l 1,20,-1
 941.5 161 l 1,0,-1
EndSplineSet
EndChar

StartChar: Z
Encoding: 90 90 62
Width: 1228
Flags: W
LayerCount: 2
Fore
SplineSet
1089.5 493 m 1,0,-1
 1089.5 0 l 1,1,-1
 139.5 0 l 1,2,-1
 139.5 130.609 l 1,3,-1
 814.742 992 l 1,4,-1
 315.5 992 l 1,5,-1
 315.5 693 l 1,6,-1
 153.5 693 l 1,7,-1
 153.5 1153 l 1,8,-1
 1042.5 1153 l 1,9,-1
 1042.5 1033.66 l 1,10,-1
 359.214 161 l 1,11,-1
 928.5 161 l 1,12,-1
 928.5 493 l 1,13,-1
 1089.5 493 l 1,0,-1
EndSplineSet
EndChar

StartChar: bracketleft
Encoding: 91 91 63
Width: 1228
Flags: W
LayerCount: 2
Fore
SplineSet
1025.5 -225.5 m 1,0,-1
 600.5 -225.5 l 1,1,-1
 600.5 1371.5 l 1,2,-1
 1025.5 1371.5 l 1,3,-1
 1025.5 1204.5 l 1,4,-1
 767.5 1204.5 l 1,5,-1
 767.5 -57.5 l 1,6,-1
 1025.5 -57.5 l 1,7,-1
 1025.5 -225.5 l 1,0,-1
EndSplineSet
EndChar

StartChar: backslash
Encoding: 92 92 64
Width: 1228
Flags: W
LayerCount: 2
Fore
SplineSet
1089.98 -259.984 m 1,0,-1
 941.927 -328.187 l 1,1,-1
 146.783 1421.55 l 1,2,-1
 295.31 1486.63 l 1,3,-1
 1089.98 -259.984 l 1,0,-1
EndSplineSet
EndChar

StartChar: bracketright
Encoding: 93 93 65
Width: 1228
Flags: W
LayerCount: 2
Fore
SplineSet
628.5 -225.5 m 1,0,-1
 203.5 -225.5 l 1,1,-1
 203.5 -57.5 l 1,2,-1
 461.5 -57.5 l 1,3,-1
 461.5 1204.5 l 1,4,-1
 203.5 1204.5 l 1,5,-1
 203.5 1371.5 l 1,6,-1
 628.5 1371.5 l 1,7,-1
 628.5 -225.5 l 1,0,-1
EndSplineSet
EndChar

StartChar: asciicircum
Encoding: 94 94 66
Width: 1228
Flags: W
LayerCount: 2
Fore
SplineSet
1129.92 282.5 m 1,0,-1
 927.311 282.5 l 1,1,-1
 614.044 953.115 l 1,2,-1
 301.716 282.5 l 1,3,-1
 99.0826 282.5 l 1,4,-1
 518.256 1185.5 l 1,5,-1
 710.744 1185.5 l 1,6,-1
 1129.92 282.5 l 1,0,-1
EndSplineSet
EndChar

StartChar: underscore
Encoding: 95 95 67
Width: 1228
Flags: W
LayerCount: 2
Fore
SplineSet
1359.5 -288.5 m 1,0,-1
 -130.5 -288.5 l 1,1,-1
 -130.5 -121.5 l 1,2,-1
 1359.5 -121.5 l 1,3,-1
 1359.5 -288.5 l 1,0,-1
EndSplineSet
EndChar

StartChar: grave
Encoding: 96 96 68
Width: 1228
Flags: W
LayerCount: 2
Fore
SplineSet
826.87 997.5 m 1,0,-1
 646.798 997.5 l 1,1,-1
 302.434 1298.5 l 1,2,-1
 625.353 1298.5 l 1,3,-1
 826.87 997.5 l 1,0,-1
EndSplineSet
EndChar

StartChar: a
Encoding: 97 97 69
Width: 1228
Flags: W
LayerCount: 2
Fore
SplineSet
1158.5 161 m 1,0,-1
 1158.5 0 l 1,1,-1
 809.5 0 l 1,2,-1
 809.5 108.776 l 1,3,4
 635.418 -29 635.418 -29 451 -29 c 0,5,6
 292.956 -29 292.956 -29 191.032 63.7367 c 0,7,8
 88.5 157.027 88.5 157.027 88.5 276.74 c 0,9,10
 88.5 315.622 88.5 315.622 101.937 357.153 c 0,11,12
 115.575 399.303 115.575 399.303 150.39 443.972 c 0,13,14
 184.95 488.314 184.95 488.314 236.136 523.011 c 0,15,16
 287.813 558.04 287.813 558.04 371.364 579.943 c 0,17,18
 453.598 601.5 453.598 601.5 555 601.5 c 0,19,20
 691.867 601.5 691.867 601.5 809.5 581.981 c 1,21,-1
 809.5 606.046 l 1,22,23
 811.289 658.008 811.289 658.008 796.184 689.631 c 0,24,25
 781.696 719.961 781.696 719.961 755.315 737.478 c 0,26,27
 727.368 756.035 727.368 756.035 688.096 763.785 c 0,28,29
 645.641 772.164 645.641 772.164 593.717 773.099 c 1,30,31
 446.309 772.895 446.309 772.895 257.058 697.504 c 2,32,-1
 226.922 685.498 l 1,33,-1
 162.36 823.777 l 1,34,-1
 192.394 835.252 l 2,35,36
 419.434 922 419.434 922 596 922 c 0,37,38
 671.933 922 671.933 922 732.752 907.062 c 0,39,40
 794.073 892.001 794.073 892.001 833.452 869.816 c 0,41,42
 874.328 848.722 874.328 848.722 904.224 815.019 c 0,43,44
 932.722 782.891 932.722 782.891 946.407 756.252 c 0,45,46
 960.225 729.352 960.225 729.352 967.483 692.532 c 0,47,48
 974.334 657.774 974.334 657.774 975.447 639.935 c 0,49,50
 976.5 623.062 976.5 623.062 976.5 598.39 c 2,51,-1
 976.5 161 l 1,52,-1
 1158.5 161 l 1,0,-1
809.5 311.144 m 1,53,-1
 809.5 422.974 l 1,54,55
 695.634 438.5 695.634 438.5 575 438.5 c 0,56,57
 509.161 438.5 509.161 438.5 456.264 429.114 c 0,58,59
 404.025 419.846 404.025 419.846 372.512 406.833 c 0,60,61
 341.745 394.128 341.745 394.128 319.267 376.558 c 128,-1,62
 296.823 359.013 296.823 359.013 286.861 344.976 c 0,63,64
 276.729 330.698 276.729 330.698 271.033 314.16 c 0,65,66
 265.011 296.676 265.011 296.676 264.339 290.603 c 0,67,68
 263.5 283.029 263.5 283.029 263.5 275.459 c 0,69,70
 263.5 220.335 263.5 220.335 317.62 178.54 c 0,71,72
 373.998 135 373.998 135 449 135 c 0,73,74
 631.101 135 631.101 135 809.5 311.144 c 1,53,-1
EndSplineSet
EndChar

StartChar: b
Encoding: 98 98 70
Width: 1228
Flags: W
LayerCount: 2
Fore
SplineSet
333.5 107.863 m 1,0,-1
 333.5 0 l 1,1,-1
 2.5 0 l 1,2,-1
 2.5 161 l 1,3,-1
 166.5 161 l 1,4,-1
 166.5 1117.23 l 1,5,-1
 -22.5 1107.23 l 1,6,-1
 -22.5 1268.05 l 1,7,-1
 333.5 1290.07 l 1,8,-1
 333.5 758.445 l 1,9,10
 466.346 889 466.346 889 655 889 c 0,11,12
 787.717 889 787.717 889 900.768 827.998 c 128,-1,13
 1013.65 767.084 1013.65 767.084 1079.99 662.24 c 0,14,15
 1146.5 557.106 1146.5 557.106 1146.5 432.167 c 0,16,17
 1146.5 318.061 1146.5 318.061 1086.55 215.161 c 128,-1,18
 1026.49 112.066 1026.49 112.066 914.296 46.2472 c 0,19,20
 801.368 -20 801.368 -20 664 -20 c 0,21,22
 597.825 -20 597.825 -20 538.285 -4.44455 c 0,23,24
 479.689 10.8641 479.689 10.8641 442.811 28.7612 c 0,25,26
 405.201 47.0128 405.201 47.0128 365.128 80.5881 c 0,27,28
 346.771 95.9681 346.771 95.9681 333.5 107.863 c 1,0,-1
429.591 232.22 m 128,-1,30
 523.555 147 523.555 147 662 147 c 0,31,32
 795.871 147 795.871 147 883.233 231.139 c 0,33,34
 971.5 316.15 971.5 316.15 971.5 434 c 128,-1,35
 971.5 551.675 971.5 551.675 881.46 636.644 c 0,36,37
 792.071 721 792.071 721 659 721 c 0,38,39
 523.511 721 523.511 721 429.536 636.18 c 128,-1,40
 335.5 551.303 335.5 551.303 335.5 435.797 c 0,41,29
 335.5 317.556 335.5 317.556 429.591 232.22 c 128,-1,30
EndSplineSet
EndChar

StartChar: c
Encoding: 99 99 71
Width: 1228
Flags: W
LayerCount: 2
Fore
SplineSet
1168.14 195.369 m 1,0,-1
 1143.76 176.699 l 2,1,2
 1095.69 139.878 1095.69 139.878 1055.54 114.139 c 128,-1,3
 1015.46 88.4508 1015.46 88.4508 946.371 51.3644 c 0,4,5
 874.891 12.997 874.891 12.997 793.072 -7.98159 c 128,-1,6
 711.098 -29 711.098 -29 627 -29 c 0,7,8
 478.362 -29 478.362 -29 359.862 34.2014 c 0,9,10
 241.055 97.5664 241.055 97.5664 176.653 204.642 c 0,11,12
 112.5 311.301 112.5 311.301 112.5 440.419 c 0,13,14
 112.5 525.181 112.5 525.181 145.085 605.861 c 0,15,16
 177.542 686.225 177.542 686.225 239.122 754.527 c 0,17,18
 302.034 824.307 302.034 824.307 405.53 866.3 c 0,19,20
 508.242 911 508.242 911 635 911 c 0,21,22
 715.592 911 715.592 911 793.064 888.711 c 0,23,24
 872.273 865.463 872.273 865.463 930.599 818.899 c 1,25,26
 935.215 837.601 935.215 837.601 941.886 880.495 c 2,27,-1
 946.679 911.307 l 1,28,-1
 1108.02 893.01 l 1,29,-1
 1103.16 859.794 l 2,30,31
 1085.5 739.117 1085.5 739.117 1085.5 676.5 c 0,32,33
 1085.5 620.781 1085.5 620.781 1091.41 542.961 c 2,34,-1
 1093.7 512.809 l 1,35,-1
 940.818 490.04 l 1,36,-1
 924.39 553.926 l 1,37,-1
 918.468 580.576 l 1,38,39
 899.3 648.429 899.3 648.429 853.326 686.795 c 128,-1,40
 807.352 725.161 807.352 725.161 728.759 737.425 c 0,41,42
 690.241 744 690.241 744 645 744 c 0,43,44
 556.519 744 556.519 744 486.042 717.378 c 0,45,46
 416.555 691.13 416.555 691.13 375.545 648.462 c 0,47,48
 333.271 604.48 333.271 604.48 310.821 551.936 c 0,49,50
 288.5 499.693 288.5 499.693 288.5 443.757 c 0,51,52
 288.5 389.205 288.5 389.205 309.134 336.622 c 128,-1,53
 329.803 283.948 329.803 283.948 370.378 238.15 c 0,54,55
 409.399 194.106 409.399 194.106 478.109 166.757 c 0,56,57
 547.843 139 547.843 139 637 139 c 0,58,59
 809.824 139 809.824 139 1052.48 307.21 c 2,60,-1
 1079.44 325.899 l 1,61,-1
 1168.14 195.369 l 1,0,-1
EndSplineSet
EndChar

StartChar: d
Encoding: 100 100 72
Width: 1228
Flags: W
LayerCount: 2
Fore
SplineSet
1222.5 161 m 1,0,-1
 1222.5 0 l 1,1,-1
 880.5 0 l 1,2,-1
 880.5 102.457 l 1,3,4
 753.37 -20 753.37 -20 563 -20 c 0,5,6
 359.394 -20 359.394 -20 217.847 114.103 c 0,7,8
 76.5 248.016 76.5 248.016 76.5 434.033 c 0,9,10
 76.5 565.972 76.5 565.972 148.491 672.768 c 0,11,12
 220.047 778.919 220.047 778.919 329.575 834.037 c 0,13,14
 438.796 889 438.796 889 559 889 c 0,15,16
 664.361 889 664.361 889 769.496 838.832 c 0,17,18
 832.848 808.602 832.848 808.602 880.5 763.993 c 1,19,-1
 880.5 1106.86 l 1,20,-1
 553.681 1086 l 1,21,-1
 543.503 1242.06 l 1,22,-1
 1048.5 1287.02 l 1,23,-1
 1048.5 161 l 1,24,-1
 1222.5 161 l 1,0,-1
563 147 m 0,25,26
 691.729 147 691.729 147 784.248 228.48 c 0,27,28
 876.5 309.727 876.5 309.727 876.5 430.407 c 0,29,30
 876.5 480.966 876.5 480.966 855.95 531.834 c 0,31,32
 835.278 583.003 835.278 583.003 796.622 626.409 c 0,33,34
 759.243 668.38 759.243 668.38 698.401 694.696 c 128,-1,35
 637.587 721 637.587 721 563 721 c 0,36,37
 436.084 721 436.084 721 343.517 641.111 c 0,38,39
 251.5 561.697 251.5 561.697 251.5 435.797 c 0,40,41
 251.5 310.537 251.5 310.537 343.367 228.828 c 128,-1,42
 435.368 147 435.368 147 563 147 c 0,25,26
EndSplineSet
EndChar

StartChar: e
Encoding: 101 101 73
Width: 1228
Flags: W
LayerCount: 2
Fore
SplineSet
1188.43 136.541 m 1,0,-1
 1160.85 121.129 l 2,1,2
 1056.21 62.6499 1056.21 62.6499 920.312 17.1794 c 0,3,4
 782.296 -29 782.296 -29 649 -29 c 0,5,6
 521.787 -29 521.787 -29 419.01 11.7924 c 0,7,8
 314.949 50.3106 314.949 50.3106 250.361 117.124 c 0,9,10
 186.801 182.875 186.801 182.875 153.138 265.097 c 128,-1,11
 119.5 347.256 119.5 347.256 119.5 439.577 c 0,12,13
 119.5 566.576 119.5 566.576 180.872 673.082 c 0,14,15
 242.701 780.382 242.701 780.382 362.593 845.77 c 0,16,17
 482.196 911 482.196 911 637 911 c 0,18,19
 754.357 911 754.357 911 851.241 871.607 c 0,20,21
 948.811 834.392 948.811 834.392 1009.67 773.738 c 0,22,23
 1069.67 713.928 1069.67 713.928 1101.94 642.294 c 0,24,25
 1134.5 569.993 1134.5 569.993 1134.5 496.287 c 2,26,-1
 1134.5 379.5 l 1,27,-1
 298.093 379.5 l 1,28,29
 300.935 363.641 300.935 363.641 305.506 347.703 c 0,30,31
 314.468 316.458 314.468 316.458 339.91 276.036 c 0,32,33
 364.892 236.347 364.892 236.347 401.581 206.362 c 0,34,35
 437.325 177.148 437.325 177.148 501.745 156.177 c 0,36,37
 566.802 135 566.802 135 651 135 c 0,38,39
 816.337 135 816.337 135 1083.47 268.569 c 2,40,-1
 1112.03 282.849 l 1,41,-1
 1188.43 136.541 l 1,0,-1
302.642 540.5 m 1,42,-1
 955.5 540.5 l 1,43,44
 950.691 566.017 950.691 566.017 938.466 591.581 c 0,45,46
 919.075 632.132 919.075 632.132 881.738 668.351 c 0,47,48
 845.758 703.254 845.758 703.254 782.745 725.434 c 0,49,50
 718.633 748 718.633 748 637 748 c 0,51,52
 565.663 748 565.663 748 506.991 729.77 c 0,53,54
 448.664 711.647 448.664 711.647 413.227 685.222 c 0,55,56
 376.485 657.824 376.485 657.824 349.398 623.291 c 0,57,58
 322.144 588.545 322.144 588.545 310.518 561.098 c 0,59,60
 306.229 550.971 306.229 550.971 302.642 540.5 c 1,42,-1
EndSplineSet
EndChar

StartChar: f
Encoding: 102 102 74
Width: 1228
Flags: W
LayerCount: 2
Fore
SplineSet
982.5 161 m 1,0,-1
 982.5 0 l 1,1,-1
 166.5 0 l 1,2,-1
 166.5 161 l 1,3,-1
 379.5 161 l 1,4,-1
 379.5 695 l 1,5,-1
 166.5 695 l 1,6,-1
 166.5 856 l 1,7,-1
 379.5 856 l 1,8,-1
 379.5 938.5 l 2,9,10
 379.5 998.578 379.5 998.578 384.757 1039.58 c 0,11,12
 399.376 1155.96 399.376 1155.96 483.082 1215.48 c 128,-1,13
 566.789 1275 566.789 1275 708 1275 c 0,14,15
 884.882 1275 884.882 1275 1041.81 1246.48 c 2,16,-1
 1081.69 1239.22 l 1,17,-1
 1012.22 1074.43 l 1,18,-1
 985.381 1080.91 l 2,19,20
 848.02 1114.02 848.02 1114.02 716.663 1115 c 0,21,22
 587.199 1116.71 587.199 1116.71 559.867 1053.69 c 0,23,24
 548.396 1026.65 548.396 1026.65 546.5 978.896 c 1,25,-1
 546.5 856 l 1,26,-1
 982.5 856 l 1,27,-1
 982.5 695 l 1,28,-1
 546.5 695 l 1,29,-1
 546.5 161 l 1,30,-1
 982.5 161 l 1,0,-1
EndSplineSet
EndChar

StartChar: g
Encoding: 103 103 75
Width: 1228
Flags: W
LayerCount: 2
Fore
SplineSet
999.5 719 m 1,0,-1
 999.5 80.2972 l 2,1,2
 999.5 -15.0889 999.5 -15.0889 975.922 -82.5042 c 0,3,4
 951.413 -158.264 951.413 -158.264 893.031 -214.423 c 0,5,6
 834.415 -270.806 834.415 -270.806 734.204 -296.948 c 0,7,8
 638.168 -322 638.168 -322 498 -322 c 2,9,-1
 336.5 -322 l 1,10,-1
 336.5 -160 l 1,11,-1
 369 -160 l 2,12,13
 473.546 -160 473.546 -160 525.572 -158.513 c 0,14,15
 576.53 -157.057 576.53 -157.057 643.498 -148.747 c 0,16,17
 705.618 -141.039 705.618 -141.039 731.023 -126.698 c 0,18,19
 758.27 -111.317 758.27 -111.317 787.201 -82.8388 c 0,20,21
 812.383 -58.0494 812.383 -58.0494 821.289 -18.3813 c 0,22,23
 831.5 27.0996 831.5 27.0996 831.5 93.5 c 2,24,-1
 831.5 132.897 l 1,25,26
 807.704 112.42 807.704 112.42 775.412 90.2186 c 0,27,28
 731.388 59.9519 731.388 59.9519 667.724 39.9888 c 128,-1,29
 603.978 20 603.978 20 535 20 c 0,30,31
 404.048 20 404.048 20 294.86 80.5537 c 0,32,33
 186.037 140.905 186.037 140.905 124.8 240.362 c 128,-1,34
 63.5 339.921 63.5 339.921 63.5 454.965 c 0,35,36
 63.5 577.077 63.5 577.077 130.863 678.358 c 0,37,38
 197.875 779.109 197.875 779.109 305.898 834.115 c 0,39,40
 413.682 889 413.682 889 535 889 c 0,41,42
 548.253 889 548.253 889 562.493 887.904 c 0,43,44
 576.114 886.856 576.114 886.856 607.205 883.288 c 0,45,46
 641.309 879.374 641.309 879.374 674.736 867.675 c 0,47,48
 706.312 856.625 706.312 856.625 742.859 839.397 c 0,49,50
 781.67 821.102 781.67 821.102 819.412 789.378 c 0,51,52
 825.243 784.478 825.243 784.478 831.5 778.8 c 1,53,-1
 831.5 881 l 1,54,-1
 1165.5 881 l 1,55,-1
 1165.5 719 l 1,56,-1
 999.5 719 l 1,0,-1
327.481 266.418 m 128,-1,58
 415.46 188 415.46 188 539 188 c 0,59,60
 665.932 188 665.932 188 748.305 266.207 c 0,61,62
 831.5 345.194 831.5 345.194 831.5 451.38 c 0,63,64
 831.5 571.073 831.5 571.073 745.324 645.879 c 0,65,66
 658.786 721 658.786 721 539 721 c 0,67,68
 419.824 721 419.824 721 329.196 645.471 c 0,69,70
 239.5 570.718 239.5 570.718 239.5 456.728 c 0,71,57
 239.5 344.837 239.5 344.837 327.481 266.418 c 128,-1,58
EndSplineSet
EndChar

StartChar: h
Encoding: 104 104 76
Width: 1228
Flags: W
LayerCount: 2
Fore
SplineSet
1210.5 161 m 1,0,-1
 1210.5 0 l 1,1,-1
 696.5 0 l 1,2,-1
 696.5 161 l 1,3,-1
 870.5 161 l 1,4,-1
 870.5 553.715 l 2,5,6
 870.5 643.35 870.5 643.35 824.585 695.186 c 0,7,8
 781.347 744 781.347 744 707 744 c 0,9,10
 569.251 744 569.251 744 384.5 611.707 c 1,11,-1
 384.5 161 l 1,12,-1
 546.5 161 l 1,13,-1
 546.5 0 l 1,14,-1
 45.5 0 l 1,15,-1
 45.5 161 l 1,16,-1
 217.5 161 l 1,17,-1
 217.5 1115.98 l 1,18,-1
 29.2987 1099.23 l 1,19,-1
 15.9313 1261.31 l 1,20,-1
 349.417 1287.9 l 2,21,22
 355.308 1288.37 355.308 1288.37 367.004 1289.3 c 128,-1,23
 378.699 1290.23 378.699 1290.23 384.501 1290.69 c 1,24,-1
 384.5 796.476 l 1,25,26
 412.688 815.908 412.688 815.908 435.245 830.041 c 0,27,28
 479.722 857.908 479.722 857.908 553.069 884.107 c 0,29,30
 628.362 911 628.362 911 702 911 c 0,31,32
 854.608 911 854.608 911 947.305 814.904 c 0,33,34
 1038.5 720.366 1038.5 720.366 1038.5 570.049 c 2,35,-1
 1038.5 161 l 1,36,-1
 1210.5 161 l 1,0,-1
EndSplineSet
EndChar

StartChar: i
Encoding: 105 105 77
Width: 1228
Flags: W
LayerCount: 2
Fore
SplineSet
1056.5 161 m 1,0,-1
 1056.5 0 l 1,1,-1
 174.5 0 l 1,2,-1
 174.5 161 l 1,3,-1
 534.5 161 l 1,4,-1
 534.5 719 l 1,5,-1
 233.5 719 l 1,6,-1
 233.5 881 l 1,7,-1
 702.5 881 l 1,8,-1
 702.5 161 l 1,9,-1
 1056.5 161 l 1,0,-1
702.5 1343 m 1,10,-1
 702.5 1035 l 1,11,-1
 489.5 1035 l 1,12,-1
 489.5 1343 l 1,13,-1
 702.5 1343 l 1,10,-1
EndSplineSet
EndChar

StartChar: j
Encoding: 106 106 78
Width: 1228
Flags: W
LayerCount: 2
Fore
SplineSet
831.5 881 m 1,0,-1
 831.5 104.008 l 2,1,2
 831.5 75.9616 831.5 75.9616 828.937 37.6366 c 0,3,4
 826.246 -2.59225 826.246 -2.59225 814.486 -45.5546 c 0,5,6
 802.476 -92.5104 802.476 -92.5104 777.506 -138.11 c 0,7,8
 751.783 -185.084 751.783 -185.084 706.112 -223.214 c 1,9,10
 658.52 -264.789 658.52 -264.789 586.773 -286.149 c 0,11,12
 517.072 -306.9 517.072 -306.9 416.339 -309 c 1,13,14
 308.739 -309 308.739 -309 132.555 -273.355 c 2,15,-1
 99.7008 -266.708 l 1,16,-1
 137.766 -104.518 l 1,17,-1
 169.341 -111.84 l 2,18,19
 236.569 -127.429 236.569 -127.429 299.254 -134.718 c 128,-1,20
 361.888 -142 361.888 -142 422 -142 c 0,21,22
 486.992 -142 486.992 -142 529.713 -128.509 c 0,23,24
 571.243 -115.394 571.243 -115.394 596.897 -94.3648 c 0,25,26
 622.116 -73.6936 622.116 -73.6936 635.024 -48.2819 c 0,27,28
 649.047 -20.6747 649.047 -20.6747 655.168 9.05372 c 0,29,30
 661.601 37.6814 661.601 37.6814 662.515 64.8876 c 0,31,32
 663.5 94.1957 663.5 94.1957 663.5 118.481 c 2,33,-1
 663.5 719 l 1,34,-1
 141.5 719 l 1,35,-1
 141.5 881 l 1,36,-1
 831.5 881 l 1,0,-1
790.5 1343 m 1,37,-1
 790.5 1035 l 1,38,-1
 577.5 1035 l 1,39,-1
 577.5 1343 l 1,40,-1
 790.5 1343 l 1,37,-1
EndSplineSet
EndChar

StartChar: k
Encoding: 107 107 79
Width: 1228
Flags: W
LayerCount: 2
Fore
SplineSet
1185.5 161 m 1,0,-1
 1185.5 0 l 1,1,-1
 694.5 0 l 1,2,-1
 694.5 161 l 1,3,-1
 786.401 161 l 1,4,5
 679.902 278.423 679.902 278.423 492.001 453.047 c 1,6,-1
 411.5 391.446 l 1,7,-1
 411.5 0 l 1,8,-1
 73.5 0 l 1,9,-1
 73.5 161 l 1,10,-1
 243.5 161 l 1,11,-1
 243.5 1114.03 l 1,12,-1
 52.295 1097.27 l 1,13,-1
 38.946 1259.13 l 1,14,15
 44.3289 1259.59 44.3289 1259.59 55.0927 1260.51 c 128,-1,16
 65.8566 1261.42 65.8566 1261.42 71.2395 1261.88 c 2,17,-1
 411.5 1290.89 l 1,18,-1
 411.5 522.01 l 1,19,-1
 670.769 719 l 1,20,-1
 614.5 719 l 1,21,-1
 614.5 881 l 1,22,-1
 1107.5 881 l 1,23,-1
 1107.5 719 l 1,24,-1
 926.034 719 l 1,25,-1
 621.529 509.692 l 1,26,27
 726.901 422.559 726.901 422.559 829.414 327.182 c 0,28,29
 937.089 227.003 937.089 227.003 996.65 161 c 1,30,-1
 1185.5 161 l 1,0,-1
EndSplineSet
EndChar

StartChar: l
Encoding: 108 108 80
Width: 1228
Flags: W
LayerCount: 2
Fore
SplineSet
1054.5 161 m 1,0,-1
 1054.5 0 l 1,1,-1
 174.5 0 l 1,2,-1
 174.5 161 l 1,3,-1
 530.5 161 l 1,4,-1
 530.5 1085.48 l 1,5,-1
 199.98 1060.74 l 1,6,-1
 183.129 1220.82 l 1,7,-1
 698.5 1253.1 l 1,8,-1
 698.5 161 l 1,9,-1
 1054.5 161 l 1,0,-1
EndSplineSet
EndChar

StartChar: m
Encoding: 109 109 81
Width: 1228
Flags: W
LayerCount: 2
Fore
SplineSet
1259.5 161 m 1,0,-1
 1259.5 0 l 1,1,-1
 975.5 0 l 1,2,-1
 975.5 640.5 l 2,3,4
 975.5 676.837 975.5 676.837 972.171 709.172 c 0,5,6
 969.265 737.4 969.265 737.4 958.822 758.686 c 0,7,8
 949.961 776.748 949.961 776.748 931.967 787.821 c 0,9,10
 913.436 799.224 913.436 799.224 876.294 800.999 c 1,11,12
 792.219 800.173 792.219 800.173 708.5 687.884 c 1,13,-1
 708.5 161 l 1,14,-1
 835.5 161 l 1,15,-1
 835.5 0 l 1,16,-1
 540.5 0 l 1,17,-1
 540.5 597.5 l 2,18,19
 540.5 654.033 540.5 654.033 537.13 691.595 c 0,20,21
 534.047 725.963 534.047 725.963 525.743 747.135 c 0,22,23
 518.685 765.132 518.685 765.132 506.793 775.372 c 0,24,25
 492.747 787.467 492.747 787.467 468.627 797.448 c 0,26,27
 457.841 801.888 457.841 801.888 435.56 801.505 c 0,28,29
 411.999 801.099 411.999 801.099 384.107 790.957 c 0,30,31
 355.383 780.512 355.383 780.512 324.57 758.183 c 0,32,33
 298.101 739.002 298.101 739.002 274.5 707.898 c 1,34,-1
 274.5 161 l 1,35,-1
 413.5 161 l 1,36,-1
 413.5 0 l 1,37,-1
 -32.5 0 l 1,38,-1
 -32.5 161 l 1,39,-1
 106.5 161 l 1,40,-1
 106.5 719 l 1,41,-1
 -32.5 719 l 1,42,-1
 -32.5 881 l 1,43,-1
 265.5 881 l 1,44,-1
 265.5 844.452 l 1,45,46
 288.203 860.456 288.203 860.456 311.739 872.454 c 0,47,48
 340.222 886.974 340.222 886.974 370.949 895.355 c 0,49,50
 402.634 903.997 402.634 903.997 436.564 903 c 0,51,52
 510.659 902.697 510.659 902.697 573.477 864.213 c 0,53,54
 616.796 837.675 616.796 837.675 646.7 795.93 c 1,55,56
 752.813 903 752.813 903 874 903 c 0,57,58
 934.273 903 934.273 903 992.852 875.4 c 0,59,60
 1053.03 849.412 1053.03 849.412 1083.9 806.963 c 0,61,62
 1118.39 761.074 1118.39 761.074 1130.76 709.052 c 0,63,64
 1142.5 659.643 1142.5 659.643 1142.5 553.764 c 2,65,-1
 1142.5 161 l 1,66,-1
 1259.5 161 l 1,0,-1
EndSplineSet
EndChar

StartChar: n
Encoding: 110 110 82
Width: 1228
Flags: W
LayerCount: 2
Fore
SplineSet
1193.5 161 m 1,0,-1
 1193.5 0 l 1,1,-1
 686.5 0 l 1,2,-1
 686.5 161 l 1,3,-1
 862.5 161 l 1,4,-1
 862.5 553.715 l 2,5,6
 862.5 643.894 862.5 643.894 815.033 695.141 c 0,7,8
 769.779 744 769.779 744 694 744 c 0,9,10
 563.753 744 563.753 744 372.5 611.415 c 1,11,-1
 372.5 161 l 1,12,-1
 544.5 161 l 1,13,-1
 544.5 0 l 1,14,-1
 37.5 0 l 1,15,-1
 37.5 161 l 1,16,-1
 205.5 161 l 1,17,-1
 205.5 719 l 1,18,-1
 37.5 719 l 1,19,-1
 37.5 881 l 1,20,-1
 372.5 881 l 1,21,-1
 372.5 795.597 l 1,22,23
 387.742 805.897 387.742 805.897 398.124 812.465 c 0,24,25
 423.621 828.596 423.621 828.596 475.176 856.161 c 0,26,27
 529.292 885.094 529.292 885.094 582.269 898.067 c 128,-1,28
 635.082 911 635.082 911 692 911 c 0,29,30
 844.55 911 844.55 911 937.741 814.971 c 0,31,32
 1029.5 720.416 1029.5 720.416 1029.5 570.049 c 2,33,-1
 1029.5 161 l 1,34,-1
 1193.5 161 l 1,0,-1
EndSplineSet
EndChar

StartChar: o
Encoding: 111 111 83
Width: 1228
Flags: W
LayerCount: 2
Fore
SplineSet
1133.74 306.818 m 0,0,1
 1112.78 238.748 1112.78 238.748 1067.87 178.017 c 0,2,3
 1024.02 117.279 1024.02 117.279 960.847 71.9123 c 0,4,5
 897.327 26.2995 897.327 26.2995 807.392 -0.458035 c 0,6,7
 718.064 -29 718.064 -29 614 -29 c 0,8,9
 486.728 -29 486.728 -29 382.403 12.8351 c 0,10,11
 277.114 52.1135 277.114 52.1135 210.146 119.437 c 0,12,13
 143.965 185.97 143.965 185.97 108.727 269.911 c 128,-1,14
 73.5 353.824 73.5 353.824 73.5 446.035 c 0,15,16
 73.5 539.179 73.5 539.179 108.727 623.089 c 128,-1,17
 143.969 707.035 143.969 707.035 210.146 773.563 c 0,18,19
 277.118 840.889 277.118 840.889 382.403 880.165 c 0,20,21
 486.73 922 486.73 922 614 922 c 0,22,23
 744.466 922 744.466 922 849.435 878.527 c 0,24,25
 955.266 837.715 955.266 837.715 1021.19 769.281 c 0,26,27
 1086.19 701.807 1086.19 701.807 1120.35 618.834 c 128,-1,28
 1154.5 535.868 1154.5 535.868 1154.5 445.52 c 0,29,30
 1154.5 374.225 1154.5 374.225 1133.74 306.818 c 0,0,1
614 139 m 0,31,32
 702.702 139 702.702 139 773.697 164.85 c 0,33,34
 843.955 191.257 843.955 191.257 887.628 234.012 c 0,35,36
 931.994 277.445 931.994 277.445 955.762 332.012 c 128,-1,37
 979.5 386.513 979.5 386.513 979.5 446.048 c 128,-1,38
 979.5 505.624 979.5 505.624 955.731 560.606 c 128,-1,39
 931.965 615.582 931.965 615.582 887.628 658.988 c 0,40,41
 844.025 701.676 844.025 701.676 773.694 727.699 c 0,42,43
 702.616 754 702.616 754 614 754 c 0,44,45
 527.237 754 527.237 754 456.536 728.505 c 0,46,47
 386.79 703.355 386.79 703.355 342.759 660.687 c 0,48,49
 297.927 617.242 297.927 617.242 273.691 562.237 c 128,-1,50
 249.5 507.332 249.5 507.332 249.5 446.048 c 0,51,52
 249.5 385.668 249.5 385.668 273.691 330.763 c 128,-1,53
 297.93 275.75 297.93 275.75 342.267 232.758 c 0,54,55
 385.865 190.482 385.865 190.482 455.706 164.885 c 0,56,57
 526.334 139 526.334 139 614 139 c 0,31,32
EndSplineSet
EndChar

StartChar: p
Encoding: 112 112 84
Width: 1228
Flags: W
LayerCount: 2
Fore
SplineSet
646.5 -160 m 1,0,-1
 646.5 -322 l 1,1,-1
 6.5 -322 l 1,2,-1
 6.5 -160 l 1,3,-1
 174.5 -160 l 1,4,-1
 174.5 719 l 1,5,-1
 6.5 719 l 1,6,-1
 6.5 881 l 1,7,-1
 341.5 881 l 1,8,-1
 341.5 784.013 l 1,9,10
 470.146 907 470.146 907 666 907 c 0,11,12
 809.32 907 809.32 907 923.713 840.46 c 0,13,14
 1037.66 774.178 1037.66 774.178 1096.26 670.532 c 0,15,16
 1154.5 567.504 1154.5 567.504 1154.5 450.099 c 0,17,18
 1154.5 351.389 1154.5 351.389 1112.15 263.512 c 0,19,20
 1069.95 175.94 1069.95 175.94 1001.13 116.341 c 0,21,22
 932.969 57.3115 932.969 57.3115 846.736 23.0992 c 0,23,24
 759.631 -14 759.631 -14 670 -14 c 0,25,26
 650.097 -14 650.097 -14 631.199 -12.95 c 0,27,28
 610.604 -11.8059 610.604 -11.8059 564.566 -1.75163 c 0,29,30
 518.044 8.40822 518.044 8.40822 476.698 26.1278 c 0,31,32
 434.767 44.098 434.767 44.098 382.758 82.3088 c 0,33,34
 361.569 97.8758 361.569 97.8758 341.5 116.297 c 1,35,-1
 341.5 -160 l 1,36,-1
 646.5 -160 l 1,0,-1
575.469 164.918 m 128,-1,38
 621.576 153 621.576 153 666 153 c 0,39,40
 793.353 153 793.353 153 886.298 238.311 c 0,41,42
 979.5 323.858 979.5 323.858 979.5 450.551 c 0,43,44
 979.5 504.033 979.5 504.033 959.371 555.105 c 128,-1,45
 939.222 606.23 939.222 606.23 901.194 648.716 c 0,46,47
 864.458 689.758 864.458 689.758 804.353 714.795 c 0,48,49
 743.844 740 743.844 740 668 740 c 0,50,51
 524.281 740 524.281 740 428.759 655.641 c 0,52,53
 333.5 571.513 333.5 571.513 333.5 454.153 c 0,54,55
 333.5 396.354 333.5 396.354 353.992 346.338 c 0,56,57
 374.391 296.55 374.391 296.55 407.87 262.39 c 0,58,59
 442.372 227.186 442.372 227.186 486.06 201.93 c 128,-1,37
 529.55 176.788 529.55 176.788 575.469 164.918 c 128,-1,38
EndSplineSet
EndChar

StartChar: q
Encoding: 113 113 85
Width: 1228
Flags: W
LayerCount: 2
Fore
SplineSet
1222.5 -160 m 1,0,-1
 1222.5 -322 l 1,1,-1
 581.5 -322 l 1,2,-1
 581.5 -160 l 1,3,-1
 887.5 -160 l 1,4,-1
 887.5 117.219 l 1,5,6
 866.853 98.1851 866.853 98.1851 845.242 82.3088 c 0,7,8
 793.294 44.1441 793.294 44.1441 751.944 26.189 c 0,9,10
 711.036 8.42565 711.036 8.42565 664.434 -1.75163 c 0,11,12
 618.396 -11.8059 618.396 -11.8059 597.803 -12.95 c 0,13,14
 578.902 -14 578.902 -14 559.002 -14 c 0,15,16
 438.544 -14 438.544 -14 328.158 43.5601 c 128,-1,17
 217.868 101.07 217.868 101.07 145.94 208.567 c 0,18,19
 73.5 316.83 73.5 316.83 73.5 448.835 c 0,20,21
 73.5 566.621 73.5 566.621 132.301 669.979 c 0,22,23
 191.39 773.844 191.39 773.844 305.287 840.276 c 0,24,25
 419.684 907 419.684 907 563 907 c 0,26,27
 759.063 907 759.063 907 887.5 783.083 c 1,28,-1
 887.5 881 l 1,29,-1
 1222.5 881 l 1,30,-1
 1222.5 719 l 1,31,-1
 1054.5 719 l 1,32,-1
 1054.5 -160 l 1,33,-1
 1222.5 -160 l 1,0,-1
653.531 164.918 m 128,-1,35
 699.495 176.799 699.495 176.799 742.441 201.48 c 0,36,37
 786.599 227.156 786.599 227.156 821.13 262.39 c 0,38,39
 854.609 296.55 854.609 296.55 875.008 346.338 c 0,40,41
 895.5 396.354 895.5 396.354 895.5 454.153 c 0,42,43
 895.5 571.513 895.5 571.513 800.241 655.641 c 0,44,45
 704.719 740 704.719 740 561 740 c 0,46,47
 485.154 740 485.154 740 424.647 714.795 c 0,48,49
 364.543 689.758 364.543 689.758 327.806 648.716 c 0,50,51
 289.78 606.233 289.78 606.233 269.629 555.105 c 128,-1,52
 249.5 504.033 249.5 504.033 249.5 450.551 c 0,53,54
 249.5 323.858 249.5 323.858 342.702 238.311 c 0,55,56
 435.647 153 435.647 153 563 153 c 0,57,34
 607.424 153 607.424 153 653.531 164.918 c 128,-1,35
EndSplineSet
EndChar

StartChar: r
Encoding: 114 114 86
Width: 1228
Flags: W
LayerCount: 2
Fore
SplineSet
931.5 161 m 1,0,-1
 931.5 0 l 1,1,-1
 121.5 0 l 1,2,-1
 121.5 161 l 1,3,-1
 375.5 161 l 1,4,-1
 375.5 719 l 1,5,-1
 137.5 719 l 1,6,-1
 137.5 881 l 1,7,-1
 542.5 881 l 1,8,-1
 542.5 720.677 l 1,9,10
 545.815 723.895 545.815 723.895 548.993 726.945 c 0,11,12
 562.275 739.696 562.275 739.696 578.615 753.401 c 0,13,14
 594.309 766.565 594.309 766.565 620.641 787.833 c 0,15,16
 652.035 812.947 652.035 812.947 685.469 834.366 c 0,17,18
 719.866 856.402 719.866 856.402 758.5 872.5 c 0,19,20
 796.924 888.511 796.924 888.511 839.49 898.62 c 0,21,22
 883.193 909 883.193 909 934 909 c 0,23,24
 983.234 909 983.234 909 1021.32 898.918 c 128,-1,25
 1059.46 888.819 1059.46 888.819 1090.18 871.186 c 0,26,27
 1120.58 855.199 1120.58 855.199 1144.93 833.931 c 0,28,29
 1167.57 814.15 1167.57 814.15 1187.6 792.907 c 2,30,-1
 1210.49 768.621 l 1,31,-1
 1045.56 656.694 l 1,32,-1
 1027.13 684.835 l 2,33,34
 1015.86 702.04 1015.86 702.04 1004.72 716.08 c 0,35,36
 995.589 727.578 995.589 727.578 983.5 735.884 c 0,37,38
 971.915 743.844 971.915 743.844 956.677 748.27 c 128,-1,39
 941.313 752.733 941.313 752.733 918.346 752.833 c 0,40,41
 874.453 751.885 874.453 751.885 834.281 738.944 c 0,42,43
 791.788 725.254 791.788 725.254 753.022 704.289 c 0,44,45
 713.907 683.134 713.907 683.134 680.009 656.823 c 0,46,47
 645.035 629.677 645.035 629.677 616.481 603.517 c 0,48,49
 587.62 577.077 587.62 577.077 567.234 556.176 c 0,50,51
 553.011 541.594 553.011 541.594 542.5 531.004 c 1,52,-1
 542.5 161 l 1,53,-1
 931.5 161 l 1,0,-1
EndSplineSet
EndChar

StartChar: s
Encoding: 115 115 87
Width: 1228
Flags: W
LayerCount: 2
Fore
SplineSet
863.601 523.978 m 1,0,-1
 857.274 552.45 l 2,1,2
 853.124 571.124 853.124 571.124 849.002 594.311 c 0,3,4
 845.731 612.707 845.731 612.707 835.974 633.918 c 0,5,6
 826.582 654.336 826.582 654.336 809.476 673.112 c 0,7,8
 793.182 690.996 793.182 690.996 763.801 705.266 c 0,9,10
 732.459 720.488 732.459 720.488 685.446 730.168 c 0,11,12
 637.692 740 637.692 740 567 740 c 0,13,14
 512.248 740 512.248 740 469.353 729.498 c 0,15,16
 427.031 719.136 427.031 719.136 398.15 702.617 c 0,17,18
 371.44 687.341 371.44 687.341 357.919 667.781 c 0,19,20
 345.5 649.814 345.5 649.814 345.5 629.989 c 0,21,22
 345.5 597.108 345.5 597.108 361.009 579.023 c 0,23,24
 378.693 558.401 378.693 558.401 411.643 544.371 c 0,25,26
 447.592 529.064 447.592 529.064 498.702 521.432 c 0,27,28
 552.354 513.422 552.354 513.422 617.914 508.882 c 1,29,30
 664.201 507.02 664.201 507.02 692.775 505.174 c 128,-1,31
 721.512 503.317 721.512 503.317 733.699 502.382 c 0,32,33
 745.475 501.479 745.475 501.479 772.401 499.642 c 0,34,35
 801.166 497.68 801.166 497.68 835.4 491.862 c 0,36,37
 871.107 485.793 871.107 485.793 910.142 471.32 c 0,38,39
 951.159 456.112 951.159 456.112 984.753 429.379 c 0,40,41
 1019.03 402.099 1019.03 402.099 1041.42 361.945 c 0,42,43
 1064.5 320.53 1064.5 320.53 1064.5 262.67 c 0,44,45
 1064.5 183.615 1064.5 183.615 1023.5 127.262 c 0,46,47
 984.089 73.0937 984.089 73.0937 921.615 37.4654 c 0,48,49
 860.636 2.68969 860.636 2.68969 786.007 -13.6211 c 0,50,51
 712.805 -31 712.805 -31 641 -31 c 0,52,53
 469.32 -31 469.32 -31 337.201 50.6742 c 1,54,55
 329.097 31.1058 329.097 31.1058 320.486 -2.55458 c 2,56,-1
 314.233 -27 l 1,57,-1
 160.454 -27 l 1,58,-1
 166.967 10.9913 l 2,59,60
 178.5 78.2667 178.5 78.2667 178.5 134.5 c 0,61,62
 178.5 195.108 178.5 195.108 166.617 334.744 c 2,63,-1
 163.931 366.303 l 1,64,-1
 314.399 383.022 l 1,65,-1
 320.726 354.55 l 2,66,67
 324.88 335.859 324.88 335.859 328.998 312.689 c 0,68,69
 332.281 294.223 332.281 294.223 343.087 270.449 c 128,-1,70
 353.924 246.606 353.924 246.606 372.924 222.745 c 0,71,72
 391.153 199.853 391.153 199.853 421.254 180.222 c 0,73,74
 451.149 160.726 451.149 160.726 498.312 149.047 c 0,75,76
 546.964 137 546.964 137 618 137 c 0,77,78
 641.526 137 641.526 137 673.058 139.638 c 0,79,80
 704.188 142.242 704.188 142.242 735.853 148.33 c 0,81,82
 766.444 154.212 766.444 154.212 796.694 165.599 c 0,83,84
 824.655 176.124 824.655 176.124 845.063 192.603 c 0,85,86
 865.213 208.873 865.213 208.873 877.949 230.422 c 0,87,88
 889.5 249.964 889.5 249.964 889.5 278.245 c 0,89,90
 889.5 303.764 889.5 303.764 874.783 317.588 c 0,91,92
 855.732 335.484 855.732 335.484 829.833 344.65 c 0,93,94
 801.291 354.751 801.291 354.751 768.507 358.012 c 0,95,96
 733.249 361.52 733.249 361.52 710.278 361.52 c 1,97,98
 664.698 363.384 664.698 363.384 609.33 365.22 c 0,99,100
 552.127 367.116 552.127 367.116 493.944 374.697 c 0,101,102
 435.122 382.361 435.122 382.361 379.877 397.228 c 0,103,104
 321.407 412.963 321.407 412.963 275.808 443.664 c 0,105,106
 229.171 475.064 229.171 475.064 200.224 522.067 c 0,107,108
 170.5 570.332 170.5 570.332 170.5 638.028 c 0,109,110
 170.5 699.504 170.5 699.504 202.449 749.748 c 0,111,112
 233.633 798.789 233.633 798.789 288.658 833.406 c 0,113,114
 341.85 866.87 341.85 866.87 412.227 886.149 c 0,115,116
 482.264 907 482.264 907 565 907 c 0,117,118
 645.217 907 645.217 907 711.796 889.423 c 0,119,120
 779.206 871.627 779.206 871.627 830.623 838.808 c 0,121,122
 837.61 834.251 837.61 834.251 842.969 831.711 c 1,123,124
 844.089 833.465 844.089 833.465 845.023 835.162 c 0,125,126
 848.757 841.952 848.757 841.952 852.75 855.928 c 0,127,128
 857.557 872.751 857.557 872.751 863.397 897.085 c 2,129,-1
 870.441 926.433 l 1,130,-1
 1024.96 901.241 l 1,131,-1
 1018.97 868.629 l 2,132,133
 1001.5 773.549 1001.5 773.549 1001.5 698.5 c 0,134,135
 1001.5 680.025 1001.5 680.025 1004.36 649.534 c 0,136,137
 1007.38 617.26 1007.38 617.26 1011.37 572.378 c 2,138,-1
 1014.19 540.71 l 1,139,-1
 863.601 523.978 l 1,0,-1
EndSplineSet
EndChar

StartChar: t
Encoding: 116 116 88
Width: 1228
Flags: W
LayerCount: 2
Fore
SplineSet
1143.8 103.67 m 1,0,-1
 1115.34 90.8625 l 2,1,2
 848.993 -29 848.993 -29 680 -29 c 0,3,4
 504.536 -29 504.536 -29 403.019 64.113 c 0,5,6
 373.367 91.3102 373.367 91.3102 355.527 123.508 c 0,7,8
 337.518 156.009 337.518 156.009 330.785 202.321 c 0,9,10
 324.601 244.862 324.601 244.862 323.036 275.49 c 0,11,12
 321.5 305.543 321.5 305.543 321.5 365.854 c 2,13,-1
 321.5 691 l 1,14,-1
 182.5 691 l 1,15,-1
 182.5 852 l 1,16,-1
 321.5 852 l 1,17,-1
 321.5 1153 l 1,18,-1
 489.5 1153 l 1,19,-1
 489.5 852 l 1,20,-1
 984.5 852 l 1,21,-1
 984.5 691 l 1,22,-1
 489.5 691 l 1,23,-1
 489.5 370.267 l 2,24,25
 489.5 341.6 489.5 341.6 490.473 326.803 c 0,26,27
 492.362 267.657 492.362 267.657 495.878 248.065 c 1,28,29
 507.142 205.132 507.142 205.132 519.514 191.458 c 0,30,31
 528.242 181.308 528.242 181.308 542.722 168.29 c 0,32,33
 561.933 152.081 561.933 152.081 612.223 143.832 c 0,34,35
 638.326 139 638.326 139 670 139 c 0,36,37
 748.374 139 748.374 139 860.78 171.665 c 0,38,39
 941.98 196.123 941.98 196.123 1052.42 242.468 c 2,40,-1
 1082.84 255.234 l 1,41,-1
 1143.8 103.67 l 1,0,-1
EndSplineSet
EndChar

StartChar: u
Encoding: 117 117 89
Width: 1228
Flags: W
LayerCount: 2
Fore
SplineSet
1171.5 161 m 1,0,-1
 1171.5 0 l 1,1,-1
 837.5 0 l 1,2,-1
 837.5 76.0067 l 1,3,4
 836.231 75.0486 836.231 75.0486 835.5 74.5 c 0,5,6
 810.162 55.4966 810.162 55.4966 766.221 29.1315 c 0,7,8
 719.9 1.33839 719.9 1.33839 664.603 -13.8406 c 128,-1,9
 609.378 -29 609.378 -29 549 -29 c 0,10,11
 468.74 -29 468.74 -29 405.43 -3.67549 c 0,12,13
 341.284 19.8656 341.284 19.8656 302.372 57.6673 c 0,14,15
 264.418 94.5378 264.418 94.5378 240.643 145.265 c 0,16,17
 217.589 194.454 217.589 194.454 208.942 242.055 c 0,18,19
 200.5 288.528 200.5 288.528 200.5 339.623 c 2,20,-1
 200.5 719 l 1,21,-1
 33.5 719 l 1,22,-1
 33.5 881 l 1,23,-1
 368.5 881 l 1,24,-1
 368.5 323.013 l 1,25,26
 370.435 279.544 370.435 279.544 382.923 244.28 c 0,27,28
 402.059 189.495 402.059 189.495 439.938 164.248 c 128,-1,29
 477.816 139 477.816 139 541 139 c 0,30,31
 690.265 139 690.265 139 837.5 281.211 c 1,32,-1
 837.5 719 l 1,33,-1
 661.5 719 l 1,34,-1
 661.5 881 l 1,35,-1
 1005.5 881 l 1,36,-1
 1005.5 161 l 1,37,-1
 1171.5 161 l 1,0,-1
EndSplineSet
EndChar

StartChar: v
Encoding: 118 118 90
Width: 1228
Flags: W
LayerCount: 2
Fore
SplineSet
1054.6 719 m 1,0,-1
 684.599 0 l 1,1,-1
 546.448 0 l 1,2,-1
 174.448 719 l 1,3,-1
 10.5 719 l 1,4,-1
 10.5 881 l 1,5,-1
 511.5 881 l 1,6,-1
 511.5 719 l 1,7,-1
 363.869 719 l 1,8,-1
 621.143 163.523 l 1,9,-1
 880.922 719 l 1,10,-1
 737.5 719 l 1,11,-1
 737.5 881 l 1,12,-1
 1218.5 881 l 1,13,-1
 1218.5 719 l 1,14,-1
 1054.6 719 l 1,0,-1
EndSplineSet
EndChar

StartChar: w
Encoding: 119 119 91
Width: 1228
Flags: W
LayerCount: 2
Fore
SplineSet
1169.34 719 m 1,0,-1
 939.335 0 l 1,1,-1
 786.357 0 l 1,2,-1
 614.397 465.617 l 1,3,-1
 446.845 0 l 1,4,-1
 299.724 0 l 1,5,-1
 67.7242 719 l 1,6,-1
 -28.5 719 l 1,7,-1
 -28.5 881 l 1,8,-1
 403.5 881 l 1,9,-1
 403.5 719 l 1,10,-1
 244.277 719 l 1,11,-1
 386.133 230.386 l 1,12,-1
 563.177 721 l 1,13,-1
 679.857 721 l 1,14,-1
 859.139 222.012 l 1,15,-1
 1005.55 719 l 1,16,-1
 844.5 719 l 1,17,-1
 844.5 881 l 1,18,-1
 1257.5 881 l 1,19,-1
 1257.5 719 l 1,20,-1
 1169.34 719 l 1,0,-1
EndSplineSet
EndChar

StartChar: x
Encoding: 120 120 92
Width: 1228
Flags: W
LayerCount: 2
Fore
SplineSet
1208.5 161 m 1,0,-1
 1208.5 0 l 1,1,-1
 727.5 0 l 1,2,-1
 727.5 161 l 1,3,-1
 827.279 161 l 1,4,-1
 609.922 381.304 l 1,5,-1
 391.091 161 l 1,6,-1
 489.5 161 l 1,7,-1
 489.5 0 l 1,8,-1
 20.5 0 l 1,9,-1
 20.5 161 l 1,10,-1
 166.433 161 l 1,11,-1
 495.059 458.601 l 1,12,-1
 201.626 719 l 1,13,-1
 51.5 719 l 1,14,-1
 51.5 881 l 1,15,-1
 511.5 881 l 1,16,-1
 511.5 719 l 1,17,-1
 432.462 719 l 1,18,-1
 610 541.462 l 1,19,-1
 787.538 719 l 1,20,-1
 715.5 719 l 1,21,-1
 715.5 881 l 1,22,-1
 1156.5 881 l 1,23,-1
 1156.5 719 l 1,24,-1
 1012.52 719 l 1,25,-1
 724.016 458.985 l 1,26,-1
 1060.36 161 l 1,27,-1
 1208.5 161 l 1,0,-1
EndSplineSet
EndChar

StartChar: y
Encoding: 121 121 93
Width: 1228
Flags: W
LayerCount: 2
Fore
SplineSet
728.5 -152 m 1,0,-1
 728.5 -313 l 1,1,-1
 49.5 -313 l 1,2,-1
 49.5 -152 l 1,3,-1
 378.293 -152 l 1,4,-1
 517.896 71.639 l 1,5,-1
 154.315 719 l 1,6,-1
 16.5 719 l 1,7,-1
 16.5 881 l 1,8,-1
 464.5 881 l 1,9,-1
 464.5 719 l 1,10,-1
 344.498 719 l 1,11,-1
 615.426 197.274 l 1,12,-1
 914.874 719 l 1,13,-1
 798.5 719 l 1,14,-1
 798.5 881 l 1,15,-1
 1238.5 881 l 1,16,-1
 1238.5 719 l 1,17,-1
 1105.84 719 l 1,18,-1
 570.052 -152 l 1,19,-1
 728.5 -152 l 1,0,-1
EndSplineSet
EndChar

StartChar: z
Encoding: 122 122 94
Width: 1228
Flags: W
LayerCount: 2
Fore
SplineSet
1048.5 350 m 1,0,-1
 1048.5 0 l 1,1,-1
 180.5 0 l 1,2,-1
 180.5 129.792 l 1,3,-1
 794.026 719 l 1,4,-1
 362.5 719 l 1,5,-1
 362.5 537 l 1,6,-1
 200.5 537 l 1,7,-1
 200.5 881 l 1,8,-1
 1048.5 881 l 1,9,-1
 1048.5 758.552 l 1,10,-1
 427.848 161 l 1,11,-1
 887.5 161 l 1,12,-1
 887.5 350 l 1,13,-1
 1048.5 350 l 1,0,-1
EndSplineSet
EndChar

StartChar: braceleft
Encoding: 123 123 95
Width: 1228
Flags: W
LayerCount: 2
Fore
SplineSet
943 -235.5 m 2,0,1
 890.359 -235.5 890.359 -235.5 829.747 -225.573 c 0,2,3
 766.29 -215.179 766.29 -215.179 711.937 -185.532 c 0,4,5
 655.547 -154.772 655.547 -154.772 618.13 -99.7827 c 0,6,7
 579.5 -43.01 579.5 -43.01 579.5 45 c 0,8,9
 579.5 88.9169 579.5 88.9169 587.518 133.28 c 0,10,11
 595.154 175.529 595.154 175.529 604.819 217.752 c 0,12,13
 614.172 258.61 614.172 258.61 621.543 298.418 c 0,14,15
 628.5 335.988 628.5 335.988 628.5 372 c 0,16,17
 628.5 419.945 628.5 419.945 593.983 449.21 c 0,18,19
 556.476 481.01 556.476 481.01 489.933 485.5 c 1,20,-1
 448.5 485.5 l 1,21,-1
 448.5 652.5 l 1,22,-1
 490.097 652.5 l 1,23,24
 521.948 654.338 521.948 654.338 548.132 663.629 c 0,25,26
 573.554 672.65 573.554 672.65 591.532 687.831 c 0,27,28
 608.922 702.517 608.922 702.517 618.931 722.534 c 0,29,30
 628.5 741.672 628.5 741.672 628.5 766 c 0,31,32
 628.5 802.012 628.5 802.012 621.543 839.582 c 0,33,34
 614.172 879.39 614.172 879.39 604.819 920.248 c 0,35,36
 595.153 962.473 595.153 962.473 587.518 1004.72 c 0,37,38
 579.5 1049.08 579.5 1049.08 579.5 1093 c 0,39,40
 579.5 1181.01 579.5 1181.01 618.13 1237.78 c 0,41,42
 655.544 1292.77 655.544 1292.77 711.937 1323.53 c 0,43,44
 766.287 1353.18 766.287 1353.18 829.747 1363.57 c 0,45,46
 890.364 1373.5 890.364 1373.5 943 1373.5 c 2,47,-1
 974.869 1373.5 l 1,48,-1
 978.143 1206.5 l 1,49,-1
 945 1206.5 l 2,50,51
 919.286 1206.5 919.286 1206.5 889.612 1204.11 c 0,52,53
 861.205 1201.81 861.205 1201.81 835.252 1195.44 c 0,54,55
 810.277 1189.3 810.277 1189.3 788.534 1178.43 c 0,56,57
 770.015 1169.17 770.015 1169.17 759.509 1155.86 c 2,58,-1
 754.455 1149.46 l 1,59,60
 749.032 1140.36 749.032 1140.36 746.655 1130.14 c 0,61,62
 742.5 1112.27 742.5 1112.27 742.5 1093 c 0,63,64
 742.5 1063.1 742.5 1063.1 749.415 1027.14 c 0,65,66
 756.811 988.675 756.811 988.675 766.196 947.17 c 0,67,68
 775.896 904.307 775.896 904.307 783.558 858.344 c 0,69,70
 791.5 810.698 791.5 810.698 791.5 763 c 0,71,72
 791.5 729.255 791.5 729.255 781.644 696.211 c 0,73,74
 772.015 663.925 772.015 663.925 755.013 635.022 c 128,-1,75
 738.112 606.291 738.112 606.291 715.021 582.073 c 0,76,77
 708.063 574.775 708.063 574.775 700.176 567.797 c 1,78,79
 732.711 538.609 732.711 538.609 755.301 503.632 c 0,80,81
 791.5 447.585 791.5 447.585 791.5 375 c 0,82,83
 791.5 327.301 791.5 327.301 783.558 279.657 c 0,84,85
 775.896 233.696 775.896 233.696 766.199 190.83 c 0,86,87
 756.82 149.369 756.82 149.369 749.415 110.862 c 0,88,89
 742.5 74.9025 742.5 74.9025 742.5 45 c 0,90,91
 742.5 25.7303 742.5 25.7303 746.655 7.86169 c 0,92,93
 748.802 -1.36834 748.802 -1.36834 753.551 -9.90156 c 1,94,-1
 760 -18.5 l 2,95,96
 770.312 -32.2494 770.312 -32.2494 787.796 -40.813 c 0,97,98
 809.094 -51.2445 809.094 -51.2445 834.626 -57.4073 c 0,99,100
 861.151 -63.81 861.151 -63.81 889.612 -66.1052 c 0,101,102
 919.309 -68.5 919.309 -68.5 945 -68.5 c 2,103,-1
 978.143 -68.5 l 1,104,-1
 974.869 -235.5 l 1,105,-1
 943 -235.5 l 2,0,1
EndSplineSet
EndChar

StartChar: bar
Encoding: 124 124 96
Width: 1228
Flags: W
LayerCount: 2
Fore
SplineSet
702.5 -411.5 m 1,0,-1
 528.5 -411.5 l 1,1,-1
 528.5 1410.5 l 1,2,-1
 702.5 1410.5 l 1,3,-1
 702.5 -411.5 l 1,0,-1
EndSplineSet
EndChar

StartChar: braceright
Encoding: 125 125 97
Width: 1228
Flags: W
LayerCount: 2
Fore
SplineSet
482.345 9.86169 m 0,0,1
 486.5 27.7303 486.5 27.7303 486.5 47 c 0,2,3
 486.5 76.9022 486.5 76.9022 479.585 112.862 c 0,4,5
 472.189 151.323 472.189 151.323 462.801 192.83 c 0,6,7
 453.095 235.741 453.095 235.741 445.442 281.657 c 0,8,9
 437.5 329.31 437.5 329.31 437.5 377 c 0,10,11
 437.5 449.582 437.5 449.582 473.699 505.632 c 0,12,13
 496.286 540.607 496.286 540.607 528.824 569.797 c 1,14,15
 520.936 576.775 520.936 576.775 513.979 584.073 c 0,16,17
 490.887 608.291 490.887 608.291 473.987 637.022 c 128,-1,18
 456.983 665.929 456.983 665.929 447.356 698.211 c 0,19,20
 437.5 731.258 437.5 731.258 437.5 765 c 0,21,22
 437.5 812.69 437.5 812.69 445.442 860.343 c 0,23,24
 453.096 906.265 453.096 906.265 462.801 949.168 c 0,25,26
 472.189 990.678 472.189 990.678 479.585 1029.14 c 0,27,28
 486.5 1065.1 486.5 1065.1 486.5 1095 c 0,29,30
 486.5 1114.27 486.5 1114.27 482.345 1132.14 c 0,31,32
 479.968 1142.36 479.968 1142.36 474.545 1151.46 c 1,33,-1
 469.491 1157.86 l 2,34,35
 458.984 1171.17 458.984 1171.17 440.466 1180.43 c 0,36,37
 418.722 1191.3 418.722 1191.3 393.748 1197.44 c 0,38,39
 367.794 1203.81 367.794 1203.81 339.388 1206.11 c 0,40,41
 309.714 1208.5 309.714 1208.5 284 1208.5 c 2,42,-1
 250.856 1208.5 l 1,43,-1
 254.131 1375.5 l 1,44,-1
 286 1375.5 l 2,45,46
 338.637 1375.5 338.637 1375.5 399.253 1365.57 c 0,47,48
 462.713 1355.18 462.713 1355.18 517.063 1325.53 c 0,49,50
 573.456 1294.77 573.456 1294.77 610.87 1239.78 c 0,51,52
 649.5 1183.01 649.5 1183.01 649.5 1095 c 0,53,54
 649.5 1051.08 649.5 1051.08 641.482 1006.72 c 0,55,56
 633.847 964.474 633.847 964.474 624.181 922.248 c 0,57,58
 614.828 881.39 614.828 881.39 607.457 841.582 c 0,59,60
 600.5 804.012 600.5 804.012 600.5 768 c 0,61,62
 600.5 743.672 600.5 743.672 610.069 724.534 c 0,63,64
 620.078 704.517 620.078 704.517 637.468 689.831 c 0,65,66
 655.446 674.65 655.446 674.65 680.868 665.629 c 0,67,68
 707.052 656.338 707.052 656.338 738.903 654.5 c 1,69,-1
 780.5 654.5 l 1,70,-1
 780.5 487.5 l 1,71,-1
 739.067 487.5 l 1,72,73
 672.524 483.01 672.524 483.01 635.017 451.21 c 0,74,75
 600.5 421.945 600.5 421.945 600.5 374 c 0,76,77
 600.5 337.988 600.5 337.988 607.457 300.418 c 0,78,79
 614.828 260.61 614.828 260.61 624.181 219.752 c 0,80,81
 633.846 177.529 633.846 177.529 641.482 135.28 c 0,82,83
 649.5 90.9169 649.5 90.9169 649.5 47 c 0,84,85
 649.5 -41.0101 649.5 -41.0101 610.87 -97.7827 c 0,86,87
 573.453 -152.772 573.453 -152.772 517.063 -183.532 c 0,88,89
 462.711 -213.179 462.711 -213.179 399.253 -223.573 c 0,90,91
 338.643 -233.5 338.643 -233.5 286 -233.5 c 2,92,-1
 254.131 -233.5 l 1,93,-1
 250.856 -66.5 l 1,94,-1
 284 -66.5 l 2,95,96
 309.691 -66.5 309.691 -66.5 339.388 -64.1052 c 0,97,98
 367.85 -61.8099 367.85 -61.8099 394.374 -55.4073 c 0,99,100
 419.907 -49.2441 419.907 -49.2441 441.204 -38.813 c 0,101,102
 459.069 -30.063 459.069 -30.063 469.418 -16.9545 c 0,103,104
 478.962 -4.68337 478.962 -4.68337 482.345 9.86169 c 0,0,1
EndSplineSet
EndChar

StartChar: asciitilde
Encoding: 126 126 98
Width: 1228
Flags: W
LayerCount: 2
Fore
SplineSet
1083.15 698.759 m 2,0,1
 1067.74 672.048 1067.74 672.048 1056.29 654.344 c 0,2,3
 1044.41 635.995 1044.41 635.995 1017.92 602.746 c 0,4,5
 990.017 567.736 990.017 567.736 961.989 545.874 c 0,6,7
 933.648 523.767 933.648 523.767 892.254 506.107 c 0,8,9
 848.641 487.5 848.641 487.5 803 487.5 c 0,10,11
 749.783 487.5 749.783 487.5 597.579 547.964 c 1,12,13
 498.427 590.6 498.427 590.6 472.723 599.168 c 0,14,15
 450.726 606.5 450.726 606.5 426 606.5 c 0,16,17
 403.094 606.5 403.094 606.5 385.541 598.455 c 128,-1,18
 368.054 590.441 368.054 590.441 349.208 568.386 c 0,19,20
 327.177 542.605 327.177 542.605 313.395 521.014 c 0,21,22
 298.716 498.017 298.716 498.017 272.029 452.548 c 2,23,-1
 248.869 413.091 l 1,24,-1
 136.285 545.542 l 1,25,-1
 147.971 565.452 l 2,26,27
 175.441 612.252 175.441 612.252 193.958 640.028 c 0,28,29
 213.209 668.903 213.209 668.903 246.709 706.592 c 0,30,31
 283.281 747.736 283.281 747.736 328.051 768.087 c 128,-1,32
 372.959 788.5 372.959 788.5 426 788.5 c 0,33,34
 472.151 788.5 472.151 788.5 518.554 773.406 c 0,35,36
 561.454 759.451 561.454 759.451 653.615 719.953 c 0,37,38
 692.299 703.935 692.299 703.935 726.431 691.779 c 128,-1,39
 760.562 679.623 760.562 679.623 778.417 674.562 c 128,-1,40
 796.271 669.5 796.271 669.5 801 669.5 c 0,41,42
 878.016 669.5 878.016 669.5 956.693 808.968 c 2,43,-1
 978.942 848.409 l 1,44,-1
 1094.93 719.17 l 1,45,-1
 1083.15 698.759 l 2,0,1
EndSplineSet
EndChar

StartChar: exclamdown
Encoding: 161 161 100
Width: 1228
Flags: W
LayerCount: 2
Fore
SplineSet
732.045 -315.5 m 1,0,-1
 493.823 -315.5 l 1,1,-1
 536.094 524.5 l 1,2,-1
 693.025 524.5 l 1,3,-1
 732.045 -315.5 l 1,0,-1
788.5 795 m 0,4,5
 788.5 728.299 788.5 728.299 735.964 682.096 c 0,6,7
 685.255 637.5 685.255 637.5 614 637.5 c 0,8,9
 540.276 637.5 540.276 637.5 490.931 683.142 c 0,10,11
 440.5 729.789 440.5 729.789 440.5 797 c 0,12,13
 440.5 863.581 440.5 863.581 492.39 909.774 c 0,14,15
 542.631 954.5 542.631 954.5 614 954.5 c 128,-1,16
 685.255 954.5 685.255 954.5 735.964 909.904 c 0,17,18
 788.5 863.701 788.5 863.701 788.5 795 c 0,4,5
EndSplineSet
EndChar

StartChar: cent
Encoding: 162 162 101
Width: 1228
Flags: W
LayerCount: 2
Fore
SplineSet
712.5 -149.5 m 1,0,-1
 547.5 -149.5 l 1,1,-1
 547.5 152.071 l 1,2,3
 446.222 176.303 446.222 176.303 390.35 208.297 c 0,4,5
 325.541 245.409 325.541 245.409 272.203 321.608 c 1,6,7
 194.5 437.08 194.5 437.08 194.5 575 c 0,8,9
 194.5 736.877 194.5 736.877 296.152 857.448 c 0,10,11
 389.739 968.453 389.739 968.453 547.5 1001.97 c 1,12,-1
 547.5 1285.5 l 1,13,-1
 712.5 1285.5 l 1,14,-1
 712.5 1003.97 l 1,15,16
 760.495 996.874 760.495 996.874 802.865 980.257 c 0,17,18
 857.975 958.644 857.975 958.644 881.5 941 c 0,19,20
 886.571 937.197 886.571 937.197 891.754 933.018 c 1,21,-1
 892.47 935.882 l 2,22,23
 895.5 948 895.5 948 895.5 952 c 2,24,-1
 895.5 988.061 l 1,25,-1
 1061.64 970.755 l 1,26,-1
 1056.07 936.752 l 2,27,28
 1038.5 829.365 1038.5 829.365 1038.5 776 c 0,29,30
 1038.5 745.065 1038.5 745.065 1044.43 655.138 c 2,31,-1
 1046.45 624.514 l 1,32,-1
 883.505 604.356 l 1,33,-1
 882.513 640.098 l 2,34,35
 881.562 674.293 881.562 674.293 878.314 697.494 c 0,36,37
 875.492 717.649 875.492 717.649 859.068 752.715 c 0,38,39
 844.158 784.551 844.158 784.551 819.017 802.62 c 0,40,41
 787.554 825.345 787.554 825.345 747.98 836.777 c 0,42,43
 729.354 842.157 729.354 842.157 712.5 845.242 c 1,44,-1
 712.5 317.744 l 1,45,46
 776.13 330.119 776.13 330.119 816.167 345.769 c 0,47,48
 868.621 366.273 868.621 366.273 976.279 430.869 c 2,49,-1
 1004.49 447.797 l 1,50,-1
 1098.58 286.5 l 1,51,-1
 1049.95 286.5 l 1,52,53
 1047.55 285.19 1047.55 285.19 1044.4 283.614 c 0,54,55
 944.742 219.461 944.742 219.461 878.619 194.148 c 0,56,57
 819.236 171.415 819.236 171.415 712.5 150.958 c 1,58,-1
 712.5 -149.5 l 1,0,-1
547.5 831.177 m 1,59,60
 524.509 823.171 524.509 823.171 504.367 812.362 c 0,61,62
 467.292 792.468 467.292 792.468 445.507 771.555 c 128,-1,63
 423.808 750.724 423.808 750.724 408.106 723.681 c 0,64,65
 391.626 695.298 391.626 695.298 384.135 674.15 c 0,66,67
 376.472 652.512 376.472 652.512 371.936 628.474 c 0,68,69
 367.356 604.194 367.356 604.194 366.963 595.954 c 0,70,71
 366.5 586.229 366.5 586.229 366.5 578 c 0,72,73
 366.5 479.125 366.5 479.125 428.608 399.013 c 0,74,75
 451.109 370.453 451.109 370.453 479.448 352.419 c 0,76,77
 508.811 333.734 508.811 333.734 528.694 327.521 c 0,78,79
 536.937 324.945 536.937 324.945 547.5 322.128 c 1,80,-1
 547.5 831.177 l 1,59,60
EndSplineSet
EndChar

StartChar: sterling
Encoding: 163 163 102
Width: 1228
Flags: W
LayerCount: 2
Fore
SplineSet
1103.98 55.019 m 2,0,1
 1083.04 34.0788 1083.04 34.0788 1065.53 19.2185 c 0,2,3
 1047.4 3.83972 1047.4 3.83972 1016.1 -16.3232 c 0,4,5
 982.529 -37.9443 982.529 -37.9443 940.873 -49.7654 c 0,6,7
 899.521 -61.5 899.521 -61.5 854 -61.5 c 0,8,9
 787.059 -61.5 787.059 -61.5 699.601 -28.4354 c 0,10,11
 639.245 -6.04519 639.245 -6.04519 613.844 0.540101 c 0,12,13
 590.855 6.5 590.855 6.5 563 6.5 c 0,14,15
 477.795 6.5 477.795 6.5 348.389 -69.0654 c 2,16,-1
 323.738 -83.4601 l 1,17,-1
 220.952 49.5571 l 1,18,-1
 240.817 69.7767 l 2,19,20
 294.115 124.027 294.115 124.027 329.631 183.221 c 0,21,22
 364.898 241.999 364.898 241.999 379.218 292.816 c 0,23,24
 394.141 345.77 394.141 345.77 398.836 378.161 c 0,25,26
 403.5 410.342 403.5 410.342 403.5 440 c 0,27,28
 403.5 504.581 403.5 504.581 387.572 565.5 c 1,29,-1
 164.5 565.5 l 1,30,-1
 164.5 726.5 l 1,31,-1
 336.854 726.5 l 1,32,33
 297.5 842.891 297.5 842.891 297.5 918 c 0,34,35
 297.5 1074.59 297.5 1074.59 416.901 1180.78 c 0,36,37
 534.643 1285.5 534.643 1285.5 696 1285.5 c 0,38,39
 814.33 1285.5 814.33 1285.5 940.429 1234.84 c 1,40,-1
 947.57 1251.5 l 1,41,-1
 1102.88 1251.5 l 1,42,43
 1097.68 1231.21 1097.68 1231.21 1092.48 1210.93 c 0,44,45
 1063.17 1096.64 1063.17 1096.64 1054.4 986.42 c 2,46,-1
 1052.26 959.598 l 1,47,-1
 895.23 942.529 l 1,48,-1
 897.56 980.966 l 2,49,50
 901.137 1040 901.137 1040 901.498 1047.54 c 0,51,52
 901.294 1067.22 901.294 1067.22 889.593 1076.47 c 1,53,54
 863.433 1090.29 863.433 1090.29 808.949 1105.15 c 0,55,56
 752.634 1120.5 752.634 1120.5 700 1120.5 c 0,57,58
 589.194 1120.5 589.194 1120.5 525.66 1058.7 c 0,59,60
 462.5 997.269 462.5 997.269 462.5 920 c 0,61,62
 462.5 881.832 462.5 881.832 472.609 839.559 c 0,63,64
 481.845 800.934 481.845 800.934 507.951 726.5 c 1,65,-1
 1015.5 726.5 l 1,66,-1
 1015.5 565.5 l 1,67,-1
 553.548 565.5 l 1,68,69
 564.5 502.728 564.5 502.728 564.5 449 c 0,70,71
 564.5 361.836 564.5 361.836 544.452 284.814 c 0,72,73
 524.502 208.169 524.502 208.169 503.251 167.847 c 0,74,75
 500.495 162.618 500.495 162.618 497.44 157.071 c 1,76,77
 537.389 167.5 537.389 167.5 573 167.5 c 0,78,79
 643.171 167.5 643.171 167.5 742.855 128.261 c 0,80,81
 814.107 100.5 814.107 100.5 848 100.5 c 0,82,83
 884.949 100.5 884.949 100.5 913.83 115.743 c 0,84,85
 947.042 133.27 947.042 133.27 1001.59 177.291 c 2,86,-1
 1027.03 197.823 l 1,87,-1
 1124.52 75.5539 l 1,88,-1
 1103.98 55.019 l 2,0,1
EndSplineSet
EndChar

StartChar: currency
Encoding: 164 164 103
Width: 1228
Flags: W
LayerCount: 2
Fore
SplineSet
1121.48 195.186 m 1,0,-1
 1003.98 79.3374 l 1,1,-1
 835.038 246.24 l 1,2,3
 739.417 180.5 739.417 180.5 614 180.5 c 0,4,5
 491.823 180.5 491.823 180.5 394.197 246.472 c 1,6,-1
 225.024 79.3374 l 1,7,-1
 107.52 195.186 l 1,8,-1
 280.09 362.62 l 1,9,10
 217.5 463.512 217.5 463.512 217.5 563 c 0,11,12
 217.5 627.23 217.5 627.23 232.082 682.317 c 128,-1,13
 246.621 737.241 246.621 737.241 261.09 763.283 c 0,14,15
 269.107 777.714 269.107 777.714 280.071 794.74 c 1,16,-1
 107.216 965.538 l 1,17,-1
 225.518 1077.17 l 1,18,-1
 394.197 910.528 l 1,19,20
 491.818 976.5 491.818 976.5 614 976.5 c 0,21,22
 732.835 976.5 732.835 976.5 834.417 910.146 c 1,23,-1
 1003.48 1077.17 l 1,24,25
 1014.89 1066.4 1014.89 1066.4 1026.31 1055.64 c 2,26,-1
 1121.78 965.538 l 1,27,-1
 949.17 794.979 l 1,28,29
 1013.5 695.232 1013.5 695.232 1013.5 594 c 0,30,31
 1013.5 464.261 1013.5 464.261 949.245 362.295 c 1,32,-1
 1121.48 195.186 l 1,0,-1
612 341.5 m 0,33,34
 717.932 341.5 717.932 341.5 784.804 412.743 c 0,35,36
 852.5 484.864 852.5 484.864 852.5 580 c 128,-1,37
 852.5 675.081 852.5 675.081 785.864 745.693 c 0,38,39
 719.988 815.5 719.988 815.5 614 815.5 c 0,40,41
 508.331 815.5 508.331 815.5 443.994 745.079 c 0,42,43
 378.5 673.392 378.5 673.392 378.5 580 c 0,44,45
 378.5 483.548 378.5 483.548 443.568 411.84 c 0,46,47
 507.395 341.5 507.395 341.5 612 341.5 c 0,33,34
EndSplineSet
EndChar

StartChar: yen
Encoding: 165 165 104
Width: 1228
Flags: W
LayerCount: 2
Fore
SplineSet
945.5 -32.5 m 1,0,-1
 295.5 -32.5 l 1,1,-1
 295.5 128.5 l 1,2,-1
 538.5 128.5 l 1,3,-1
 538.5 252.5 l 1,4,-1
 237.5 252.5 l 1,5,-1
 237.5 413.5 l 1,6,-1
 538.5 413.5 l 1,7,-1
 538.5 467.5 l 1,8,-1
 237.5 467.5 l 1,9,-1
 237.5 628.5 l 1,10,-1
 525.754 628.5 l 1,11,-1
 174.003 1085.5 l 1,12,-1
 33.5 1085.5 l 1,13,-1
 33.5 1246.5 l 1,14,-1
 501.5 1246.5 l 1,15,-1
 501.5 1085.5 l 1,16,-1
 379.144 1085.5 l 1,17,-1
 620.703 772.572 l 1,18,-1
 856.772 1085.5 l 1,19,-1
 733.5 1085.5 l 1,20,-1
 733.5 1246.5 l 1,21,-1
 1195.5 1246.5 l 1,22,-1
 1195.5 1085.5 l 1,23,-1
 1056.28 1085.5 l 1,24,-1
 714.687 628.5 l 1,25,-1
 997.5 628.5 l 1,26,-1
 997.5 467.5 l 1,27,-1
 702.5 467.5 l 1,28,-1
 702.5 413.5 l 1,29,-1
 997.5 413.5 l 1,30,-1
 997.5 252.5 l 1,31,-1
 702.5 252.5 l 1,32,-1
 702.5 128.5 l 1,33,-1
 945.5 128.5 l 1,34,-1
 945.5 -32.5 l 1,0,-1
EndSplineSet
EndChar

StartChar: brokenbar
Encoding: 166 166 105
Width: 1228
Flags: W
LayerCount: 2
Fore
SplineSet
702.5 581.5 m 1,0,-1
 528.5 581.5 l 1,1,-1
 528.5 1410.5 l 1,2,-1
 702.5 1410.5 l 1,3,-1
 702.5 581.5 l 1,0,-1
702.5 -411.5 m 1,4,-1
 528.5 -411.5 l 1,5,-1
 528.5 417.5 l 1,6,-1
 702.5 417.5 l 1,7,-1
 702.5 -411.5 l 1,4,-1
EndSplineSet
EndChar

StartChar: section
Encoding: 167 167 106
Width: 1228
Flags: W
LayerCount: 2
Fore
SplineSet
604 -57.5 m 2,0,1
 658.454 -57.5 658.454 -57.5 699.425 -31.1617 c 0,2,3
 733.5 -9.25677 733.5 -9.25677 733.5 35 c 0,4,5
 733.5 57.9969 733.5 57.9969 721.631 77.7789 c 0,6,7
 708.436 99.7723 708.436 99.7723 662.375 134.093 c 2,8,-1
 388.134 345.279 l 2,9,10
 347.372 376.87 347.372 376.87 324.215 396.94 c 0,11,12
 299.892 418.021 299.892 418.021 274.324 447.849 c 0,13,14
 246.462 480.355 246.462 480.355 233.941 514.936 c 0,15,16
 221.5 549.297 221.5 549.297 221.5 590 c 0,17,18
 221.5 672.308 221.5 672.308 278.023 743.678 c 0,19,20
 317.102 793.023 317.102 793.023 367.521 816.15 c 1,21,22
 338.5 868.079 338.5 868.079 338.5 936 c 0,23,24
 338.5 1005.29 338.5 1005.29 371.406 1058.17 c 0,25,26
 403.015 1108.97 403.015 1108.97 446.557 1138.76 c 0,27,28
 513.815 1185.5 513.815 1185.5 657 1185.5 c 2,29,-1
 993.5 1185.5 l 1,30,-1
 993.5 848.5 l 1,31,-1
 831.5 848.5 l 1,32,-1
 831.5 1024.5 l 1,33,-1
 629 1024.5 l 2,34,35
 562.143 1024.5 562.143 1024.5 535.821 1003.86 c 128,-1,36
 509.5 983.226 509.5 983.226 509.5 938 c 0,37,38
 509.5 886.335 509.5 886.335 570.581 840.94 c 1,39,-1
 853.944 623.662 l 2,40,41
 901.548 586.189 901.548 586.189 925.564 565.75 c 0,42,43
 950.908 544.18 950.908 544.18 979.508 511.345 c 0,44,45
 1010.62 475.628 1010.62 475.628 1023.68 438.215 c 0,46,47
 1036.5 401.515 1036.5 401.515 1036.5 358 c 0,48,49
 1036.5 325.261 1036.5 325.261 1026.64 292.211 c 0,50,51
 1016.91 259.557 1016.91 259.557 996.613 226.861 c 0,52,53
 974.746 191.629 974.746 191.629 933.575 165.162 c 0,54,55
 910.047 150.037 910.047 150.037 881.488 139.706 c 1,56,57
 904.5 88.3066 904.5 88.3066 904.5 37 c 0,58,59
 904.5 -82.8321 904.5 -82.8321 816.035 -152.09 c 0,60,61
 731.208 -218.5 731.208 -218.5 592 -218.5 c 2,62,-1
 235.5 -218.5 l 1,63,-1
 235.5 141.5 l 1,64,-1
 397.5 141.5 l 1,65,-1
 397.5 -57.5 l 1,66,-1
 604 -57.5 l 2,0,1
751.188 277.206 m 1,67,68
 783.468 279.934 783.468 279.934 807.088 289.238 c 0,69,70
 832.648 299.307 832.648 299.307 843.418 311.76 c 0,71,72
 855.683 325.941 855.683 325.941 860.143 337.607 c 0,73,74
 864.5 349.002 864.5 349.002 864.5 358 c 0,75,76
 864.5 383.67 864.5 383.67 846.543 406.296 c 0,77,78
 823.959 434.753 823.959 434.753 750.052 492.342 c 2,79,-1
 498.663 687.12 l 1,80,81
 470.873 682.856 470.873 682.856 450.454 673.148 c 0,82,83
 425.787 661.42 425.787 661.42 416.118 650.716 c 0,84,85
 405.916 639.42 405.916 639.42 400.068 625.164 c 0,86,87
 394.084 610.578 394.084 610.578 393.289 605.323 c 0,88,89
 392.5 597.823 392.5 597.823 392.5 592 c 0,90,91
 392.5 572.726 392.5 572.726 406.116 554.345 c 0,92,93
 423.464 530.925 423.464 530.925 482.922 484.678 c 2,94,-1
 751.188 277.206 l 1,67,68
EndSplineSet
EndChar

StartChar: dieresis
Encoding: 168 168 107
Width: 1228
Flags: W
LayerCount: 2
Fore
SplineSet
587.5 1018.5 m 1,0,-1
 375.5 1018.5 l 1,1,-1
 375.5 1304.5 l 1,2,-1
 587.5 1304.5 l 1,3,-1
 587.5 1018.5 l 1,0,-1
853.5 1018.5 m 1,4,-1
 641.5 1018.5 l 1,5,-1
 641.5 1304.5 l 1,6,-1
 853.5 1304.5 l 1,7,-1
 853.5 1018.5 l 1,4,-1
EndSplineSet
EndChar

StartChar: copyright
Encoding: 169 169 108
Width: 1228
Flags: W
LayerCount: 2
Fore
SplineSet
1156.13 277.725 m 0,0,1
 1072.83 133.25 1072.83 133.25 928.312 49.39 c 128,-1,2
 783.746 -34.5 783.746 -34.5 614 -34.5 c 128,-1,3
 444.228 -34.5 444.228 -34.5 300.143 49.416 c 128,-1,4
 156.226 133.235 156.226 133.235 71.9087 278.156 c 128,-1,5
 -12.5 423.234 -12.5 423.234 -12.5 594 c 0,6,7
 -12.5 765.841 -12.5 765.841 72.4793 910.465 c 0,8,9
 157.338 1054.88 157.338 1054.88 301.298 1137.67 c 128,-1,10
 445.322 1220.5 445.322 1220.5 614 1220.5 c 0,11,12
 783.694 1220.5 783.694 1220.5 928.235 1137.15 c 128,-1,13
 1072.74 1053.83 1072.74 1053.83 1156.61 909.312 c 128,-1,14
 1240.5 764.759 1240.5 764.759 1240.5 594 c 128,-1,15
 1240.5 423.245 1240.5 423.245 1156.13 277.725 c 0,0,1
855.698 173.116 m 128,-1,17
 967.276 237.81 967.276 237.81 1032.44 349.39 c 128,-1,18
 1097.5 460.808 1097.5 460.808 1097.5 592 c 0,19,20
 1097.5 724.28 1097.5 724.28 1032.85 836.249 c 128,-1,21
 968.199 948.237 968.199 948.237 856.698 1012.88 c 128,-1,22
 745.252 1077.5 745.252 1077.5 614 1077.5 c 0,23,24
 516.616 1077.5 516.616 1077.5 427.189 1039.58 c 0,25,26
 337.464 1001.53 337.464 1001.53 272.398 936.936 c 128,-1,27
 207.423 872.431 207.423 872.431 168.912 781.791 c 0,28,29
 130.5 691.384 130.5 691.384 130.5 592 c 0,30,31
 130.5 460.798 130.5 460.798 195.564 349.39 c 128,-1,32
 260.731 237.808 260.731 237.808 372.302 173.116 c 128,-1,33
 483.741 108.5 483.741 108.5 614 108.5 c 128,-1,16
 744.255 108.5 744.255 108.5 855.698 173.116 c 128,-1,17
951.673 342.715 m 2,34,35
 911.585 303.682 911.585 303.682 867.677 274.059 c 128,-1,36
 823.575 244.303 823.575 244.303 787.693 229.081 c 0,37,38
 752.402 214.109 752.402 214.109 716.493 204.998 c 128,-1,39
 680.644 195.902 680.644 195.902 658.234 193.661 c 0,40,41
 636.62 191.5 636.62 191.5 616 191.5 c 0,42,43
 531.605 191.5 531.605 191.5 462.436 224.701 c 0,44,45
 393.031 258.015 393.031 258.015 348.333 315.564 c 0,46,47
 304.83 371.575 304.83 371.575 281.576 443.502 c 0,48,49
 258.5 514.88 258.5 514.88 258.5 595 c 0,50,51
 258.5 604.546 258.5 604.546 258.845 613.959 c 0,52,53
 261.527 687.01 261.527 687.01 285.004 750.735 c 0,54,55
 311.807 823.487 311.807 823.487 359.886 874.33 c 128,-1,56
 407.893 925.096 407.893 925.096 472.894 953.74 c 0,57,58
 494.686 963.344 494.686 963.344 517.583 969.744 c 0,59,60
 563.213 982.5 563.213 982.5 613 982.5 c 0,61,62
 708.088 982.5 708.088 982.5 773.147 934.767 c 1,63,64
 773.5 939.644 773.5 939.644 773.5 943 c 2,65,-1
 773.5 975.5 l 1,66,-1
 883.433 975.5 l 1,67,-1
 882.487 942.081 l 2,68,69
 879.555 838.601 879.555 838.601 895.245 714.062 c 2,70,-1
 899.182 682.81 l 1,71,-1
 779.375 663.893 l 1,72,-1
 773.965 695.52 l 2,73,74
 762.205 764.281 762.205 764.281 738.957 799.975 c 0,75,76
 700.288 856.5 700.288 856.5 611 856.5 c 0,77,78
 582.849 856.5 582.849 856.5 557.278 850.151 c 0,79,80
 537.656 845.279 537.656 845.279 519.426 836.635 c 0,81,82
 477.58 816.792 477.58 816.792 449.724 782.506 c 0,83,84
 420.928 747.064 420.928 747.064 404.803 699.136 c 0,85,86
 390.477 656.554 390.477 656.554 388.74 609.197 c 0,87,88
 388.5 602.653 388.5 602.653 388.5 596 c 0,89,90
 388.5 559.82 388.5 559.82 395.013 522.602 c 0,91,92
 401.346 486.419 401.346 486.419 418.299 447.471 c 0,93,94
 434.725 409.735 434.725 409.735 459.77 381.615 c 0,95,96
 483.775 354.663 483.775 354.663 524.14 335.999 c 0,97,98
 564.149 317.5 564.149 317.5 616 317.5 c 0,99,100
 684.38 317.5 684.38 317.5 743.055 346.613 c 0,101,102
 804.618 377.16 804.618 377.16 867.34 433.23 c 2,103,-1
 891.094 454.465 l 1,104,-1
 974.433 364.876 l 1,105,-1
 951.673 342.715 l 2,34,35
EndSplineSet
EndChar

StartChar: ordfeminine
Encoding: 170 170 109
Width: 1228
Flags: W
LayerCount: 2
Fore
SplineSet
906.5 676.5 m 1,0,-1
 676.5 676.5 l 1,1,-1
 676.5 704.148 l 1,2,3
 650.687 688.649 650.687 688.649 627.815 679.724 c 0,4,5
 581.114 661.5 581.114 661.5 528 661.5 c 0,6,7
 443.712 661.5 443.712 661.5 383.497 714.63 c 0,8,9
 321.5 769.333 321.5 769.333 321.5 848 c 0,10,11
 321.5 938.587 321.5 938.587 398.434 994.32 c 0,12,13
 470.464 1046.5 470.464 1046.5 582 1046.5 c 0,14,15
 622.526 1046.5 622.526 1046.5 674.552 1040.93 c 1,16,17
 670.954 1058.94 670.954 1058.94 661.733 1066.92 c 0,18,19
 644.891 1081.5 644.891 1081.5 598 1081.5 c 0,20,21
 534.762 1081.5 534.762 1081.5 432.969 1037.2 c 2,22,-1
 402.636 1024 l 1,23,-1
 348.434 1154.83 l 1,24,-1
 378.806 1167.13 l 2,25,26
 510.653 1220.5 510.653 1220.5 600 1220.5 c 0,27,28
 703.196 1220.5 703.196 1220.5 760.848 1169.69 c 128,-1,29
 818.5 1118.87 818.5 1118.87 818.5 1024 c 2,30,-1
 818.5 814.5 l 1,31,-1
 906.5 814.5 l 1,32,-1
 906.5 676.5 l 1,0,-1
676.5 901.48 m 1,33,34
 626.225 907.5 626.225 907.5 592 907.5 c 0,35,36
 527.673 907.5 527.673 907.5 491.694 886.822 c 0,37,38
 464.5 871.193 464.5 871.193 464.5 848 c 0,39,40
 464.5 831.29 464.5 831.29 481.721 817.038 c 0,41,42
 501.704 800.5 501.704 800.5 528 800.5 c 0,43,44
 602.021 800.5 602.021 800.5 676.5 878.696 c 1,45,-1
 676.5 901.48 l 1,33,34
896.5 512.5 m 1,46,-1
 332.5 512.5 l 1,47,-1
 332.5 650.5 l 1,48,-1
 896.5 650.5 l 1,49,-1
 896.5 512.5 l 1,46,-1
EndSplineSet
EndChar

StartChar: guillemotleft
Encoding: 171 171 110
Width: 1228
Flags: W
LayerCount: 2
Fore
SplineSet
645.382 6.3629 m 1,0,-1
 112.299 464.881 l 1,1,-1
 643.549 926.259 l 1,2,-1
 755.666 804.249 l 1,3,-1
 360.708 464.863 l 1,4,-1
 744.834 131.099 l 1,5,-1
 645.382 6.3629 l 1,0,-1
1003.22 6.5963 m 1,6,-1
 468.18 464.881 l 1,7,-1
 1001.95 926.52 l 1,8,-1
 1111.26 803.957 l 1,9,-1
 717.746 464.957 l 1,10,-1
 1104.08 130.992 l 1,11,-1
 1003.22 6.5963 l 1,6,-1
EndSplineSet
EndChar

StartChar: logicalnot
Encoding: 172 172 111
Width: 1228
Flags: W
LayerCount: 2
Fore
SplineSet
1095.5 313.5 m 1,0,-1
 928.5 313.5 l 1,1,-1
 928.5 762.5 l 1,2,-1
 151.5 762.5 l 1,3,-1
 151.5 929.5 l 1,4,-1
 1095.5 929.5 l 1,5,-1
 1095.5 313.5 l 1,0,-1
EndSplineSet
EndChar

StartChar: registered
Encoding: 174 174 112
Width: 1228
Flags: W
LayerCount: 2
Fore
SplineSet
1156.11 280.68 m 0,0,1
 1072.85 136.296 1072.85 136.296 928.389 51.9346 c 128,-1,2
 783.798 -32.5 783.798 -32.5 614 -32.5 c 128,-1,3
 444.207 -32.5 444.207 -32.5 299.611 51.9346 c 128,-1,4
 155.198 136.263 155.198 136.263 71.39 280.688 c 128,-1,5
 -12.5 425.254 -12.5 425.254 -12.5 594 c 0,6,7
 -12.5 765.841 -12.5 765.841 72.4793 910.465 c 0,8,9
 157.338 1054.88 157.338 1054.88 301.298 1137.67 c 128,-1,10
 445.322 1220.5 445.322 1220.5 614 1220.5 c 0,11,12
 783.678 1220.5 783.678 1220.5 927.702 1137.67 c 128,-1,13
 1071.7 1054.86 1071.7 1054.86 1156.07 910.389 c 128,-1,14
 1240.5 765.801 1240.5 765.801 1240.5 594 c 0,15,16
 1240.5 425.204 1240.5 425.204 1156.11 280.68 c 0,0,1
857.61 175.065 m 0,17,18
 969.114 240.655 969.114 240.655 1033.33 352.214 c 128,-1,19
 1097.5 463.681 1097.5 463.681 1097.5 594 c 0,20,21
 1097.5 727.163 1097.5 727.163 1031.99 838.522 c 0,22,23
 966.344 950.103 966.344 950.103 855.324 1013.81 c 128,-1,24
 744.34 1077.5 744.34 1077.5 614 1077.5 c 128,-1,25
 483.681 1077.5 483.681 1077.5 372.214 1013.33 c 128,-1,26
 260.701 949.14 260.701 949.14 195.564 837.61 c 128,-1,27
 130.5 726.202 130.5 726.202 130.5 594 c 0,28,29
 130.5 463.685 130.5 463.685 194.667 352.214 c 128,-1,30
 258.857 240.702 258.857 240.702 370.39 175.564 c 128,-1,31
 481.798 110.5 481.798 110.5 614 110.5 c 128,-1,32
 746.255 110.5 746.255 110.5 857.61 175.065 c 0,17,18
979.5 243.5 m 1,33,-1
 776.205 243.5 l 1,34,-1
 767.491 262.381 l 2,35,36
 726.457 351.286 726.457 351.286 653.697 463.37 c 0,37,38
 635.807 491.199 635.807 491.199 627.855 503.128 c 0,39,40
 606.565 535.882 606.565 535.882 596.466 540.931 c 2,41,-1
 595.429 541.45 l 1,42,-1
 594.431 542.041 l 2,43,44
 575.094 553.5 575.094 553.5 553 553.5 c 2,45,-1
 498.5 553.5 l 1,46,-1
 498.5 364.5 l 1,47,-1
 605.5 364.5 l 1,48,-1
 605.5 243.5 l 1,49,-1
 275.5 243.5 l 1,50,-1
 275.5 364.5 l 1,51,-1
 373.5 364.5 l 1,52,-1
 373.5 863.5 l 1,53,-1
 275.5 863.5 l 1,54,-1
 275.5 984.5 l 1,55,-1
 616 984.5 l 2,56,57
 682.762 984.5 682.762 984.5 720.491 978.033 c 0,58,59
 762.288 970.868 762.288 970.868 798.198 946.928 c 0,60,61
 885.5 887.134 885.5 887.134 885.5 774 c 0,62,63
 885.5 699.168 885.5 699.168 840.058 638.578 c 0,64,65
 815.65 605.628 815.65 605.628 771.494 582.665 c 0,66,67
 751.935 572.494 751.935 572.494 729.762 565.757 c 1,68,69
 775.787 503.043 775.787 503.043 859.376 364.5 c 1,70,-1
 979.5 364.5 l 1,71,-1
 979.5 243.5 l 1,33,-1
498.5 674.5 m 1,72,-1
 602 674.5 l 2,73,74
 686.594 674.5 686.594 674.5 721.047 698.991 c 128,-1,75
 755.5 723.482 755.5 723.482 755.5 774 c 0,76,77
 755.5 813.268 755.5 813.268 740.624 832.226 c 128,-1,78
 725.748 851.185 725.748 851.185 690.694 858.118 c 2,79,-1
 689.902 858.274 l 1,80,-1
 689.118 858.47 l 2,81,82
 669 863.5 669 863.5 614 863.5 c 2,83,-1
 498.5 863.5 l 1,84,-1
 498.5 674.5 l 1,72,-1
EndSplineSet
EndChar

StartChar: overscore.001
Encoding: 175 175 113
Width: 1228
Flags: W
LayerCount: 2
Fore
SplineSet
995.5 1077.5 m 1,0,-1
 233.5 1077.5 l 1,1,-1
 233.5 1244.5 l 1,2,-1
 995.5 1244.5 l 1,3,-1
 995.5 1077.5 l 1,0,-1
EndSplineSet
EndChar

StartChar: degree
Encoding: 176 176 114
Width: 1228
Flags: W
LayerCount: 2
Fore
SplineSet
960.5 956 m 0,0,1
 960.5 814.538 960.5 814.538 859.481 713.519 c 128,-1,2
 758.462 612.5 758.462 612.5 614 612.5 c 128,-1,3
 469.592 612.5 469.592 612.5 369.082 712.456 c 128,-1,4
 268.5 812.484 268.5 812.484 268.5 956 c 0,5,6
 268.5 1100.36 268.5 1100.36 369.394 1202.36 c 128,-1,7
 470.434 1304.5 470.434 1304.5 614 1304.5 c 0,8,9
 759.73 1304.5 759.73 1304.5 860.29 1201.17 c 0,10,11
 960.5 1098.2 960.5 1098.2 960.5 956 c 0,0,1
733.115 839.077 m 0,12,13
 782.5 887.625 782.5 887.625 782.5 958 c 0,14,15
 782.5 1029.53 782.5 1029.53 734.019 1078.02 c 128,-1,16
 685.542 1126.5 685.542 1126.5 614 1126.5 c 0,17,18
 543.548 1126.5 543.548 1126.5 495.079 1077.62 c 128,-1,19
 446.5 1028.62 446.5 1028.62 446.5 958 c 0,20,21
 446.5 888.462 446.5 888.462 495.481 839.481 c 128,-1,22
 544.462 790.5 544.462 790.5 614 790.5 c 0,23,24
 684.538 790.5 684.538 790.5 733.115 839.077 c 0,12,13
EndSplineSet
EndChar

StartChar: plusminus
Encoding: 177 177 115
Width: 1228
Flags: W
LayerCount: 2
Fore
SplineSet
1126.5 643.5 m 1,0,-1
 698.5 643.5 l 1,1,-1
 698.5 241.5 l 1,2,-1
 530.5 241.5 l 1,3,-1
 530.5 643.5 l 1,4,-1
 102.5 643.5 l 1,5,-1
 102.5 810.5 l 1,6,-1
 530.5 810.5 l 1,7,-1
 530.5 1212.5 l 1,8,-1
 698.5 1212.5 l 1,9,-1
 698.5 810.5 l 1,10,-1
 1126.5 810.5 l 1,11,-1
 1126.5 643.5 l 1,0,-1
1126.5 30.5 m 1,12,-1
 102.5 30.5 l 1,13,-1
 102.5 198.5 l 1,14,-1
 1126.5 198.5 l 1,15,-1
 1126.5 30.5 l 1,12,-1
EndSplineSet
EndChar

StartChar: twosuperior
Encoding: 178 178 116
Width: 1228
Flags: W
LayerCount: 2
Fore
SplineSet
863.5 475.5 m 1,0,-1
 309.5 475.5 l 1,1,-1
 309.5 602.595 l 1,2,-1
 338.389 628.273 l 2,3,4
 506.278 778.173 506.278 778.173 568.037 834.956 c 0,5,6
 668.08 926.253 668.08 926.253 691.853 962.369 c 0,7,8
 712.5 993.736 712.5 993.736 712.5 1042 c 0,9,10
 712.5 1089.21 712.5 1089.21 677.412 1123.13 c 0,11,12
 641.862 1157.5 641.862 1157.5 592 1157.5 c 0,13,14
 545.761 1157.5 545.761 1157.5 513.398 1133.42 c 0,15,16
 485.875 1112.95 485.875 1112.95 483.584 1087.35 c 1,17,-1
 488.321 1030.5 l 1,18,-1
 334.5 1030.5 l 1,19,-1
 334.5 1170.36 l 1,20,-1
 341.578 1179.25 l 2,21,22
 441.337 1304.5 441.337 1304.5 594 1304.5 c 0,23,24
 707.112 1304.5 707.112 1304.5 786.559 1227.89 c 0,25,26
 866.5 1150.81 866.5 1150.81 866.5 1040 c 0,27,28
 866.5 955.438 866.5 955.438 817.794 888.398 c 0,29,30
 773.389 827.278 773.389 827.278 629.983 695.063 c 2,31,-1
 550.67 622.5 l 1,32,-1
 719.5 622.5 l 1,33,-1
 719.5 739.5 l 1,34,-1
 863.5 739.5 l 1,35,-1
 863.5 475.5 l 1,0,-1
EndSplineSet
EndChar

StartChar: threesuperior
Encoding: 179 179 117
Width: 1228
Flags: W
LayerCount: 2
Fore
SplineSet
296.979 537.521 m 1,0,-1
 356.47 674.532 l 1,1,-1
 386.706 660.468 l 2,2,3
 509.18 603.5 509.18 603.5 578 603.5 c 0,4,5
 635.07 603.5 635.07 603.5 671.177 637.621 c 0,6,7
 706.5 671.001 706.5 671.001 706.5 723 c 128,-1,8
 706.5 774.825 706.5 774.825 675.137 801.08 c 0,9,10
 641.189 829.5 641.189 829.5 573 829.5 c 2,11,-1
 491.5 829.5 l 1,12,-1
 491.5 975.904 l 1,13,-1
 523.398 976.494 l 2,14,15
 573.624 977.423 573.624 977.423 595.472 982.993 c 0,16,17
 614.655 987.883 614.655 987.883 631.965 999.358 c 1,18,19
 669.5 1028.8 669.5 1028.8 669.5 1073 c 0,20,21
 669.5 1109.57 669.5 1109.57 643.704 1132.89 c 0,22,23
 616.487 1157.5 616.487 1157.5 573 1157.5 c 0,24,25
 515.997 1157.5 515.997 1157.5 446.228 1110.09 c 2,26,-1
 387.094 1070.03 l 1,27,-1
 309.764 1195.92 l 1,28,-1
 336.224 1213.21 l 2,29,30
 413.944 1263.99 413.944 1263.99 463.486 1283.7 c 0,31,32
 515.778 1304.5 515.778 1304.5 573 1304.5 c 0,33,34
 677.576 1304.5 677.576 1304.5 748.381 1240.03 c 0,35,36
 820.5 1174.37 820.5 1174.37 820.5 1075 c 0,37,38
 820.5 983.875 820.5 983.875 762.362 918.922 c 1,39,40
 857.5 843.031 857.5 843.031 857.5 723 c 0,41,42
 857.5 606.839 857.5 606.839 776.128 531.196 c 0,43,44
 695.773 456.5 695.773 456.5 573 456.5 c 0,45,46
 524.852 456.5 524.852 456.5 480.344 468.04 c 0,47,48
 437.569 479.131 437.569 479.131 366.538 508.984 c 2,49,-1
 296.979 537.521 l 1,0,-1
EndSplineSet
EndChar

StartChar: acute
Encoding: 180 180 118
Width: 1228
Flags: W
LayerCount: 2
Fore
SplineSet
934.16 1298.5 m 1,0,-1
 560.461 997.5 l 1,1,-1
 373.673 997.5 l 1,2,-1
 607.075 1298.5 l 1,3,-1
 934.16 1298.5 l 1,0,-1
EndSplineSet
EndChar

StartChar: micro
Encoding: 181 181 119
Width: 1228
Flags: W
LayerCount: 2
Fore
SplineSet
1183.5 -32.5 m 1,0,-1
 846.5 -32.5 l 1,1,-1
 846.5 47.2792 l 1,2,3
 747.019 -63.5 747.019 -63.5 600 -63.5 c 0,4,5
 503.636 -63.5 503.636 -63.5 429.686 -11.0009 c 0,6,7
 400.806 9.50235 400.806 9.50235 376.5 34.1994 c 1,8,-1
 376.5 -351.5 l 1,9,-1
 209.5 -351.5 l 1,10,-1
 209.5 751.5 l 1,11,-1
 41.5 751.5 l 1,12,-1
 41.5 913.5 l 1,13,-1
 376.5 913.5 l 1,14,-1
 376.5 397 l 2,15,16
 376.5 306.918 376.5 306.918 387.069 263.724 c 0,17,18
 396.886 223.602 396.886 223.602 426.383 186.297 c 0,19,20
 492.517 104.5 492.517 104.5 604 104.5 c 0,21,22
 632.354 104.5 632.354 104.5 660.242 109.072 c 0,23,24
 685.959 113.288 685.959 113.288 722.11 131.14 c 0,25,26
 757.093 148.417 757.093 148.417 782.952 176.862 c 0,27,28
 787.964 182.375 787.964 182.375 792.751 189.043 c 0,29,30
 812.142 216.053 812.142 216.053 827.193 260.851 c 0,31,32
 846.5 318.319 846.5 318.319 846.5 397 c 2,33,-1
 846.5 751.5 l 1,34,-1
 678.5 751.5 l 1,35,-1
 678.5 913.5 l 1,36,-1
 1013.5 913.5 l 1,37,-1
 1013.5 128.5 l 1,38,-1
 1183.5 128.5 l 1,39,-1
 1183.5 -32.5 l 1,0,-1
EndSplineSet
EndChar

StartChar: paragraph
Encoding: 182 182 120
Width: 1228
Flags: W
LayerCount: 2
Fore
SplineSet
1048.5 -190.5 m 1,0,-1
 745.5 -190.5 l 1,1,-1
 745.5 -63.5 l 1,2,-1
 784.5 -63.5 l 1,3,-1
 784.5 1059.5 l 1,4,-1
 681.5 1059.5 l 1,5,-1
 681.5 -63.5 l 1,6,-1
 720.5 -63.5 l 1,7,-1
 720.5 -190.5 l 1,8,-1
 397.5 -190.5 l 1,9,-1
 397.5 -63.5 l 1,10,-1
 524.5 -63.5 l 1,11,-1
 524.5 501.554 l 1,12,13
 489.326 501.674 489.326 501.674 456.453 506.32 c 0,14,15
 405.983 513.452 405.983 513.452 354.359 536.275 c 0,16,17
 301.423 559.678 301.423 559.678 262.687 597.852 c 0,18,19
 223.132 636.833 223.132 636.833 198.563 701.603 c 0,20,21
 179.855 752.226 179.855 752.226 175.561 822.004 c 2,22,-1
 175.5 823.001 l 1,23,-1
 175.5 865.047 l 1,24,-1
 175.567 866.092 l 2,25,26
 179.88 932.937 179.88 932.937 198.573 982.423 c 0,27,28
 223.064 1048.1 223.064 1048.1 262.687 1087.15 c 0,29,30
 301.43 1125.33 301.43 1125.33 354.359 1148.72 c 0,31,32
 406 1171.55 406 1171.55 456.453 1178.68 c 0,33,34
 504.724 1185.5 504.724 1185.5 557 1185.5 c 2,35,-1
 1040.5 1185.5 l 1,36,-1
 1040.5 1059.5 l 1,37,-1
 941.5 1059.5 l 1,38,-1
 941.5 -63.5 l 1,39,-1
 1048.5 -63.5 l 1,40,-1
 1048.5 -190.5 l 1,0,-1
405.5 784 m 2,41,42
 405.5 769.752 405.5 769.752 407.312 752.993 c 0,43,44
 408.902 738.28 408.902 738.28 418.629 710.868 c 0,45,46
 427.858 684.859 427.858 684.859 442.594 666.03 c 0,47,48
 455.425 649.635 455.425 649.635 484.203 637.414 c 0,49,50
 502.083 629.822 502.083 629.822 524.5 628.147 c 1,51,-1
 524.5 1058 l 1,52,53
 502.032 1055.16 502.032 1055.16 484.203 1047.59 c 0,54,55
 455.425 1035.36 455.425 1035.36 442.594 1018.97 c 0,56,57
 427.858 1000.14 427.858 1000.14 418.629 974.132 c 0,58,59
 408.902 946.72 408.902 946.72 407.312 932.007 c 0,60,61
 405.5 915.248 405.5 915.248 405.5 901 c 2,62,-1
 405.5 784 l 2,41,42
EndSplineSet
EndChar

StartChar: periodcentered
Encoding: 183 183 121
Width: 1228
Flags: W
LayerCount: 2
Fore
SplineSet
804.5 621 m 0,0,1
 804.5 544.554 804.5 544.554 744.024 495.3 c 0,2,3
 686.56 448.5 686.56 448.5 614 448.5 c 0,4,5
 543.759 448.5 543.759 448.5 485.921 493.945 c 0,6,7
 424.5 542.205 424.5 542.205 424.5 621 c 0,8,9
 424.5 697.468 424.5 697.468 484.506 746.224 c 0,10,11
 541.46 792.5 541.46 792.5 614 792.5 c 0,12,13
 687.655 792.5 687.655 792.5 744.651 745.595 c 0,14,15
 804.5 696.343 804.5 696.343 804.5 621 c 0,0,1
EndSplineSet
EndChar

StartChar: cedilla
Encoding: 184 184 122
Width: 1228
Flags: W
LayerCount: 2
Fore
SplineSet
443.938 -396.658 m 1,0,-1
 436.304 -415.089 l 1,1,-1
 399.624 -402.862 l 1,2,-1
 438.118 -261.718 l 1,3,-1
 465.696 -270.911 l 2,4,5
 469.781 -272.273 469.781 -272.273 474.333 -274.224 c 0,6,7
 476.404 -275.111 476.404 -275.111 478.285 -275.772 c 0,8,9
 511.755 -285.593 511.755 -285.593 550.67 -295.321 c 0,10,11
 588.787 -304.85 588.787 -304.85 635.062 -309.67 c 0,12,13
 658.644 -312.5 658.644 -312.5 683 -312.5 c 0,14,15
 700.593 -312.5 700.593 -312.5 718.694 -310.644 c 0,16,17
 735.943 -308.875 735.943 -308.875 750.266 -304.969 c 0,18,19
 761.902 -301.795 761.902 -301.795 768.825 -296.76 c 0,20,21
 770.724 -295.379 770.724 -295.379 770.947 -294.043 c 0,22,23
 771.623 -290.664 771.623 -290.664 770 -288.5 c 0,24,25
 764.995 -281.827 764.995 -281.827 753.485 -276.236 c 0,26,27
 738.36 -268.891 738.36 -268.891 718.417 -263.571 c 0,28,29
 697.182 -257.91 697.182 -257.91 674.593 -254.145 c 0,30,31
 619.474 -245.442 619.474 -245.442 547.257 -243.49 c 2,32,-1
 516.818 -242.667 l 1,33,-1
 552.831 35.5 l 1,34,-1
 709.349 35.5 l 1,35,-1
 690.898 -104.935 l 1,36,37
 715.661 -108.467 715.661 -108.467 744.68 -114.593 c 0,38,39
 793.629 -124.926 793.629 -124.926 835.668 -147.858 c 0,40,41
 880.122 -172.106 880.122 -172.106 906.881 -212.246 c 0,42,43
 936.263 -256.319 936.263 -256.319 922.945 -320.498 c 0,44,45
 914.435 -363.052 914.435 -363.052 888.104 -391.264 c 0,46,47
 863.054 -418.103 863.054 -418.103 827.577 -432.885 c 0,48,49
 794.349 -446.729 794.349 -446.729 755.889 -452.224 c 0,50,51
 718.954 -457.5 718.954 -457.5 683 -457.5 c 0,52,53
 643.945 -457.5 643.945 -457.5 617.955 -454.334 c 0,54,55
 564.71 -449.036 564.71 -449.036 518.619 -437.125 c 0,56,57
 477.976 -426.622 477.976 -426.622 442.646 -416.514 c 1,58,-1
 443.938 -396.658 l 1,0,-1
EndSplineSet
EndChar

StartChar: onesuperior
Encoding: 185 185 123
Width: 1228
Flags: W
LayerCount: 2
Fore
SplineSet
904.5 475.5 m 1,0,-1
 342.5 475.5 l 1,1,-1
 342.5 622.5 l 1,2,-1
 551.5 622.5 l 1,3,-1
 551.5 1119.26 l 1,4,-1
 380.135 1044.12 l 1,5,-1
 322.414 1177.6 l 1,6,-1
 607.084 1304.5 l 1,7,-1
 700.5 1304.5 l 1,8,-1
 700.5 622.5 l 1,9,-1
 904.5 622.5 l 1,10,-1
 904.5 475.5 l 1,0,-1
EndSplineSet
EndChar

StartChar: ordmasculine
Encoding: 186 186 124
Width: 1228
Flags: W
LayerCount: 2
Fore
SplineSet
909.5 940 m 0,0,1
 909.5 818.932 909.5 818.932 825.249 739.81 c 0,2,3
 741.864 661.5 741.864 661.5 614 661.5 c 128,-1,4
 486.133 661.5 486.133 661.5 403.256 739.305 c 0,5,6
 319.5 817.935 319.5 817.935 319.5 940 c 0,7,8
 319.5 1063 319.5 1063 403.171 1142.11 c 0,9,10
 486.072 1220.5 486.072 1220.5 614 1220.5 c 128,-1,11
 741.863 1220.5 741.863 1220.5 825.249 1142.19 c 0,12,13
 909.5 1063.07 909.5 1063.07 909.5 940 c 0,0,1
721.367 840.324 m 0,14,15
 762.5 879.842 762.5 879.842 762.5 942 c 0,16,17
 762.5 1003.06 762.5 1003.06 721.604 1041.95 c 0,18,19
 680.01 1081.5 680.01 1081.5 614 1081.5 c 128,-1,20
 548.083 1081.5 548.083 1081.5 507.012 1042.06 c 0,21,22
 466.5 1003.16 466.5 1003.16 466.5 942 c 0,23,24
 466.5 878.848 466.5 878.848 507.012 839.94 c 0,25,26
 548.079 800.5 548.079 800.5 614 800.5 c 0,27,28
 680.73 800.5 680.73 800.5 721.367 840.324 c 0,14,15
896.5 512.5 m 1,29,-1
 332.5 512.5 l 1,30,-1
 332.5 650.5 l 1,31,-1
 896.5 650.5 l 1,32,-1
 896.5 512.5 l 1,29,-1
EndSplineSet
EndChar

StartChar: guillemotright
Encoding: 187 187 125
Width: 1228
Flags: W
LayerCount: 2
Fore
SplineSet
1116.7 464.881 m 1,0,-1
 583.827 6.54279 l 1,1,-1
 482.947 130.961 l 1,2,-1
 868.255 464.895 l 1,3,-1
 473.334 804.249 l 1,4,-1
 585.451 926.259 l 1,5,-1
 1116.7 464.881 l 1,0,-1
760.761 464.881 m 1,6,-1
 227.01 6.74525 l 1,7,-1
 124.728 130.825 l 1,8,-1
 511.254 464.957 l 1,9,-1
 117.549 804.119 l 1,10,-1
 228.253 926.388 l 1,11,-1
 760.761 464.881 l 1,6,-1
EndSplineSet
EndChar

StartChar: questiondown
Encoding: 191 191 129
Width: 1228
Flags: W
LayerCount: 2
Fore
SplineSet
981.657 -245.703 m 2,0,1
 859.007 -288.276 859.007 -288.276 792.308 -303.668 c 0,2,3
 723.701 -319.5 723.701 -319.5 639 -319.5 c 0,4,5
 441.004 -319.5 441.004 -319.5 327.592 -211.54 c 0,6,7
 213.5 -102.933 213.5 -102.933 213.5 49 c 0,8,9
 213.5 104.158 213.5 104.158 229.097 152.062 c 0,10,11
 244.48 199.309 244.48 199.309 267.958 234.528 c 0,12,13
 291.64 270.05 291.64 270.05 328.879 300.62 c 0,14,15
 364.449 329.82 364.449 329.82 396.273 348.159 c 0,16,17
 427.813 366.335 427.813 366.335 471.493 383.701 c 0,18,19
 514.11 400.644 514.11 400.644 542.241 409.5 c 0,20,21
 560.297 415.184 560.297 415.184 583.5 421.745 c 1,22,-1
 583.5 552.5 l 1,23,-1
 749.5 552.5 l 1,24,-1
 749.5 298.575 l 1,25,-1
 727.277 291.168 l 2,26,27
 699.039 281.755 699.039 281.755 682.487 279.113 c 1,28,29
 641.197 268.551 641.197 268.551 621.572 263.518 c 0,30,31
 603.235 258.817 603.235 258.817 562.889 245.205 c 0,32,33
 524.223 232.161 524.223 232.161 505.339 221.621 c 0,34,35
 485.333 210.454 485.333 210.454 456.225 189.936 c 0,36,37
 430.612 171.881 430.612 171.881 418.451 153.837 c 0,38,39
 405.224 134.211 405.224 134.211 394.596 104.54 c 0,40,41
 384.5 76.3543 384.5 76.3543 384.5 43 c 0,42,43
 384.5 12.6896 384.5 12.6896 395.568 -17.9616 c 0,44,45
 406.749 -48.9254 406.749 -48.9254 432.912 -81.7393 c 0,46,47
 457.006 -111.959 457.006 -111.959 508.439 -132.272 c 0,48,49
 562.186 -153.5 562.186 -153.5 637 -153.5 c 0,50,51
 729.734 -153.5 729.734 -153.5 835.5 -114.65 c 1,52,-1
 835.5 26.5 l 1,53,-1
 1003.5 26.5 l 1,54,-1
 1003.5 -238.121 l 1,55,-1
 981.657 -245.703 l 2,0,1
847.5 795 m 0,56,57
 847.5 728.42 847.5 728.42 795.61 682.226 c 0,58,59
 745.371 637.5 745.371 637.5 674 637.5 c 0,60,61
 601.759 637.5 601.759 637.5 551.556 681.578 c 0,62,63
 499.5 727.284 499.5 727.284 499.5 795 c 0,64,65
 499.5 863.816 499.5 863.816 552.681 910.031 c 0,66,67
 603.854 954.5 603.854 954.5 674 954.5 c 128,-1,68
 744.133 954.5 744.133 954.5 794.797 910.55 c 0,69,70
 847.5 864.831 847.5 864.831 847.5 795 c 0,56,57
EndSplineSet
EndChar

StartChar: AE
Encoding: 198 198 136
Width: 1228
Flags: W
LayerCount: 2
Fore
SplineSet
1171.5 446 m 1,0,-1
 1171.5 0 l 1,1,-1
 585.5 0 l 1,2,-1
 585.5 344.5 l 1,3,-1
 388.673 344.5 l 1,4,-1
 298.737 161 l 1,5,-1
 464.5 161 l 1,6,-1
 464.5 0 l 1,7,-1
 6.5 0 l 1,8,-1
 6.5 161 l 1,9,-1
 125.073 161 l 1,10,-1
 486.829 992 l 1,11,-1
 291.5 992 l 1,12,-1
 291.5 1153 l 1,13,-1
 1156.5 1153 l 1,14,-1
 1156.5 719 l 1,15,-1
 1001.57 719 l 1,16,-1
 983.572 992 l 1,17,-1
 753.5 992 l 1,18,-1
 753.5 691.5 l 1,19,-1
 821.5 691.5 l 1,20,-1
 821.5 841.5 l 1,21,-1
 980.5 841.5 l 1,22,-1
 980.5 381.5 l 1,23,-1
 821.5 381.5 l 1,24,-1
 821.5 530.5 l 1,25,-1
 753.5 530.5 l 1,26,-1
 753.5 161 l 1,27,-1
 1000.84 161 l 1,28,-1
 1012.84 446 l 1,29,-1
 1171.5 446 l 1,0,-1
448.163 505.5 m 1,30,-1
 585.5 505.5 l 1,31,-1
 585.5 865.929 l 1,32,-1
 448.163 505.5 l 1,30,-1
EndSplineSet
EndChar

StartChar: Eth
Encoding: 208 208 146
Width: 1228
Flags: W
LayerCount: 2
Fore
SplineSet
37.5 161 m 1,0,-1
 198.5 161 l 1,1,-1
 198.5 528.5 l 1,2,-1
 37.5 528.5 l 1,3,-1
 37.5 689.5 l 1,4,-1
 198.5 689.5 l 1,5,-1
 198.5 992 l 1,6,-1
 37.5 992 l 1,7,-1
 37.5 1153 l 1,8,-1
 582 1153 l 2,9,10
 739.898 1153 739.898 1153 838.581 1122.56 c 0,11,12
 942.002 1092.42 942.002 1092.42 1026.24 994.495 c 0,13,14
 1160.5 837.715 1160.5 837.715 1160.5 596.378 c 0,15,16
 1160.5 431.793 1160.5 431.793 1110.18 312.94 c 0,17,18
 1059.58 193.447 1059.58 193.447 980.463 121.743 c 0,19,20
 932.733 78.7063 932.733 78.7063 873.107 51.5698 c 0,21,22
 813.822 24.5885 813.822 24.5885 749.624 14.9065 c 0,23,24
 688.778 5.19144 688.778 5.19144 653.919 2.59012 c 128,-1,25
 619.21 0 619.21 0 573 0 c 2,26,-1
 37.5 0 l 1,27,-1
 37.5 161 l 1,0,-1
366.5 161 m 1,28,-1
 573 161 l 2,29,30
 609.84 161 609.84 161 636.684 162.778 c 0,31,32
 663.105 164.529 663.105 164.529 708.547 171.702 c 0,33,34
 750.787 178.37 750.787 178.37 789.466 196.307 c 0,35,36
 827.751 214.062 827.751 214.062 858.019 242.135 c 0,37,38
 913.034 293.16 913.034 293.16 949.057 382.55 c 0,39,40
 985.5 472.981 985.5 472.981 985.5 590.876 c 0,41,42
 985.5 766.572 985.5 766.572 895.695 881.089 c 0,43,44
 841.726 950.326 841.726 950.326 778.034 970.419 c 0,45,46
 709.626 992 709.626 992 584 992 c 2,47,-1
 366.5 992 l 1,48,-1
 366.5 689.5 l 1,49,-1
 706.5 689.5 l 1,50,-1
 706.5 528.5 l 1,51,-1
 366.5 528.5 l 1,52,-1
 366.5 161 l 1,28,-1
EndSplineSet
EndChar

StartChar: multiply
Encoding: 215 215 153
Width: 1228
Flags: W
LayerCount: 2
Fore
SplineSet
1033.04 351.134 m 1,0,-1
 912.923 230.942 l 1,1,-1
 614 508.884 l 1,2,-1
 314.92 230.708 l 1,3,-1
 196.118 351.29 l 1,4,-1
 496.961 627.077 l 1,5,-1
 195.717 905.023 l 1,6,-1
 315.317 1021.35 l 1,7,-1
 614 745.962 l 1,8,-1
 912.529 1021.04 l 1,9,-1
 1009.5 927.999 l 2,10,11
 1021.47 916.515 1021.47 916.515 1033.44 905.03 c 1,12,-1
 732.039 627.077 l 1,13,-1
 1033.04 351.134 l 1,0,-1
EndSplineSet
EndChar

StartChar: Oslash
Encoding: 216 216 154
Width: 1228
Flags: W
LayerCount: 2
Fore
SplineSet
307.972 63.5821 m 1,0,-1
 205.811 -59.612 l 1,1,-1
 85.6634 30.115 l 1,2,-1
 192.357 162.346 l 1,3,4
 133.826 240.426 133.826 240.426 97.2524 328.872 c 0,5,6
 55.5 429.841 55.5 429.841 55.5 572.564 c 0,7,8
 55.5 740.819 55.5 740.819 121.399 879.015 c 0,9,10
 188.131 1018.96 188.131 1018.96 317.092 1103.2 c 0,11,12
 446.902 1188 446.902 1188 616 1188 c 0,13,14
 684.497 1188 684.497 1188 742.928 1175.25 c 0,15,16
 802.709 1162.21 802.709 1162.21 849.481 1135.8 c 0,17,18
 893.496 1110.94 893.496 1110.94 915.89 1094.95 c 0,19,20
 928.027 1086.28 928.027 1086.28 943.087 1074.38 c 1,21,-1
 1022.12 1173.18 l 1,22,23
 1034.7 1163.93 1034.7 1163.93 1047.27 1154.67 c 2,24,-1
 1146.22 1085.6 l 1,25,-1
 1051.21 970.492 l 1,26,27
 1088.69 922.224 1088.69 922.224 1114.8 865.271 c 0,28,29
 1146.47 796.207 1146.47 796.207 1157.61 728.8 c 0,30,31
 1168.31 664.038 1168.31 664.038 1170.91 632.047 c 128,-1,32
 1173.5 600.036 1173.5 600.036 1173.5 570.422 c 0,33,34
 1173.5 409.199 1173.5 409.199 1108.61 273.258 c 0,35,36
 1042.96 135.727 1042.96 135.727 916.264 50.7773 c 0,37,38
 788.334 -35 788.334 -35 623 -35 c 0,39,40
 444.095 -35 444.095 -35 307.972 63.5821 c 1,0,-1
935.447 876.717 m 1,41,-1
 407.656 198.259 l 1,42,43
 499.491 133 499.491 133 614 133 c 0,44,45
 726.654 133 726.654 133 814.214 195.021 c 0,46,47
 902.882 257.826 902.882 257.826 949.764 364.115 c 0,48,49
 997.5 472.341 997.5 472.341 997.5 605.5 c 0,50,51
 997.5 752.992 997.5 752.992 935.447 876.717 c 1,41,-1
303.66 250.389 m 1,52,-1
 840.137 942.26 l 1,53,54
 757.566 1020 757.566 1020 612 1020 c 0,55,56
 498.013 1020 498.013 1020 410.757 953.195 c 0,57,58
 321.582 884.921 321.582 884.921 276.933 779.341 c 0,59,60
 231.5 671.907 231.5 671.907 231.5 547.5 c 0,61,62
 231.5 470.274 231.5 470.274 254.636 371.944 c 0,63,64
 271.075 302.076 271.075 302.076 303.66 250.389 c 1,52,-1
EndSplineSet
EndChar

StartChar: Thorn
Encoding: 222 222 160
Width: 1228
Flags: W
LayerCount: 2
Fore
SplineSet
677.5 161 m 1,0,-1
 677.5 0 l 1,1,-1
 112.5 0 l 1,2,-1
 112.5 161 l 1,3,-1
 278.5 161 l 1,4,-1
 278.5 992 l 1,5,-1
 112.5 992 l 1,6,-1
 112.5 1153 l 1,7,-1
 677.5 1153 l 1,8,-1
 677.5 992 l 1,9,-1
 446.5 992 l 1,10,-1
 446.5 954.902 l 1,11,-1
 526 954.902 l 2,12,13
 723.349 954.902 723.349 954.902 804.682 943.922 c 0,14,15
 890.552 932.329 890.552 932.329 959.487 891.737 c 0,16,17
 1033.4 847.745 1033.4 847.745 1079.87 770.674 c 0,18,19
 1126.5 693.325 1126.5 693.325 1126.5 602.005 c 0,20,21
 1126.5 509.179 1126.5 509.179 1079.71 427.422 c 0,22,23
 1032.23 344.476 1032.23 344.476 957.987 305.872 c 0,24,25
 880.605 265.003 880.605 265.003 800.352 254.944 c 0,26,27
 724.184 245.398 724.184 245.398 526 245.398 c 2,28,-1
 446.5 245.398 l 1,29,-1
 446.5 161 l 1,30,-1
 677.5 161 l 1,0,-1
446.5 380.5 m 1,31,-1
 530 380.5 l 2,32,33
 616.777 380.5 616.777 380.5 651.029 380.997 c 0,34,35
 684.395 381.48 684.395 381.48 741.732 386.382 c 0,36,37
 796.318 391.048 796.318 391.048 826.587 401.287 c 0,38,39
 855.091 410.928 855.091 410.928 876.915 428.554 c 0,40,41
 905.398 450.335 905.398 450.335 928.046 494.761 c 0,42,43
 950.5 538.809 950.5 538.809 950.5 598 c 0,44,45
 950.5 667.233 950.5 667.233 918.884 715.084 c 0,46,47
 886.448 764.176 886.448 764.176 844.554 786.404 c 0,48,49
 808.94 805.992 808.94 805.992 762.604 814.539 c 0,50,51
 714.026 823.5 714.026 823.5 614 823.5 c 2,52,-1
 446.5 823.5 l 1,53,-1
 446.5 380.5 l 1,31,-1
EndSplineSet
EndChar

StartChar: germandbls
Encoding: 223 223 161
Width: 1228
Flags: W
LayerCount: 2
Fore
SplineSet
423.5 874.5 m 2,0,-1
 423.5 0 l 1,1,-1
 100.5 0 l 1,2,-1
 100.5 161 l 1,3,-1
 256.5 161 l 1,4,-1
 256.5 891.5 l 2,5,6
 256.5 1065.95 256.5 1065.95 363.519 1172.98 c 128,-1,7
 470.529 1280 470.529 1280 621 1280 c 0,8,9
 766.101 1280 766.101 1280 855.236 1184.7 c 0,10,11
 943.5 1090.33 943.5 1090.33 943.5 954.5 c 0,12,13
 943.5 862.706 943.5 862.706 889.924 788.442 c 0,14,15
 858.732 745.205 858.732 745.205 816.733 715.944 c 1,16,17
 888.319 686.786 888.319 686.786 934.348 652.135 c 0,18,19
 1083.5 539.911 1083.5 539.911 1083.5 338.821 c 0,20,21
 1083.5 193.222 1083.5 193.222 985.771 90.3803 c 0,22,23
 886.579 -14 886.579 -14 715 -14 c 0,24,25
 564.781 -14 564.781 -14 460.4 54.2583 c 2,26,-1
 446.5 63.3479 l 1,27,-1
 446.5 232.819 l 1,28,-1
 495.518 205.713 l 2,29,30
 609.875 142.476 609.875 142.476 713 142.476 c 0,31,32
 746.203 142.476 746.203 142.476 778.765 153.717 c 0,33,34
 811.708 165.089 811.708 165.089 842.02 188.14 c 0,35,36
 870.208 209.577 870.208 209.577 888.552 250.347 c 0,37,38
 907.5 292.457 907.5 292.457 907.5 348.145 c 0,39,40
 907.5 478.529 907.5 478.529 814.48 546.69 c 0,41,42
 717.245 617.94 717.245 617.94 524.72 625.047 c 2,43,-1
 493.5 626.2 l 1,44,-1
 493.5 771.798 l 1,45,-1
 523.561 773.918 l 2,46,47
 654.761 783.173 654.761 783.173 713.631 827.293 c 128,-1,48
 772.5 871.413 772.5 871.413 772.5 952.5 c 0,49,50
 772.5 1024.95 772.5 1024.95 731.932 1069.66 c 0,51,52
 692.607 1113 692.607 1113 616 1113 c 0,53,54
 579.668 1113 579.668 1113 547.508 1101.42 c 0,55,56
 515.71 1089.97 515.71 1089.97 486.299 1064.45 c 0,57,58
 458.661 1040.47 458.661 1040.47 441.543 993.393 c 0,59,60
 423.5 943.772 423.5 943.772 423.5 874.5 c 2,0,-1
EndSplineSet
EndChar

StartChar: ae
Encoding: 230 230 168
Width: 1228
Flags: W
LayerCount: 2
Fore
SplineSet
1206.38 40.1787 m 1,0,-1
 1173.68 28.8039 l 2,1,2
 1007.5 -29 1007.5 -29 891 -29 c 0,3,4
 840.084 -29 840.084 -29 793.39 -14.5468 c 0,5,6
 747.778 -0.42841 747.778 -0.42841 719.022 16.4871 c 0,7,8
 689.948 33.5891 689.948 33.5891 660.519 63.019 c 0,9,10
 631.864 91.6749 631.864 91.6749 622.648 105.192 c 2,11,-1
 622.168 105.894 l 1,12,13
 472.333 -31 472.333 -31 322 -31 c 0,14,15
 189.982 -31 189.982 -31 111.748 56.2766 c 0,16,17
 35.5 141.339 35.5 141.339 35.5 255.213 c 0,18,19
 35.5 312.234 35.5 312.234 58.1884 367.918 c 0,20,21
 80.6985 423.165 80.6985 423.165 123.324 470.372 c 0,22,23
 167.197 518.961 167.197 518.961 238.558 548.368 c 0,24,25
 309.252 577.5 309.252 577.5 395 577.5 c 0,26,27
 416.583 577.5 416.583 577.5 438.656 575.346 c 0,28,29
 460.273 573.237 460.273 573.237 497.343 567.058 c 0,30,31
 509.506 565.03 509.506 565.03 520.5 563.335 c 1,32,-1
 520.5 594.872 l 2,33,34
 520.5 685.992 520.5 685.992 494.139 725.907 c 0,35,36
 472.944 758 472.944 758 403 758 c 0,37,38
 353.703 758 353.703 758 305.308 746.832 c 0,39,40
 255.074 735.24 255.074 735.24 168.798 704.846 c 2,41,-1
 137.306 693.753 l 1,42,-1
 88.6065 844.89 l 1,43,-1
 117.43 855.871 l 2,44,45
 291.008 922 291.008 922 406 922 c 0,46,47
 518.882 922 518.882 922 575.958 873.839 c 0,48,49
 611.337 843.987 611.337 843.987 635.303 799.11 c 1,50,51
 647.532 813.045 647.532 813.045 670.297 836.257 c 0,52,53
 698.712 865.229 698.712 865.229 724.779 880.869 c 0,54,55
 750.341 896.205 750.341 896.205 788.223 908.832 c 0,56,57
 827.726 922 827.726 922 870 922 c 0,58,59
 884.677 922 884.677 922 900.844 920.327 c 0,60,61
 918.512 918.5 918.512 918.5 954.058 907.563 c 0,62,63
 991.085 896.17 991.085 896.17 1022.03 875.542 c 0,64,65
 1053.1 856.112 1053.1 856.112 1087.18 816.916 c 128,-1,66
 1121.26 777.73 1121.26 777.73 1144.09 725.202 c 0,67,68
 1166.64 673.338 1166.64 673.338 1178.69 591.708 c 0,69,70
 1190.61 511.014 1190.61 511.014 1185.46 412.494 c 2,71,-1
 1183.95 383.5 l 1,72,-1
 688.892 383.5 l 1,73,74
 692.747 321.193 692.747 321.193 702.658 283.436 c 0,75,76
 714.17 239.581 714.17 239.581 747.333 199.157 c 0,77,78
 799.633 135 799.633 135 895 135 c 0,79,80
 987.648 135 987.648 135 1115.58 178.286 c 2,81,-1
 1144.24 187.98 l 1,82,-1
 1206.38 40.1787 l 1,0,-1
520.5 219.517 m 1,83,-1
 520.5 402.351 l 1,84,85
 450.058 413.5 450.058 413.5 397 413.5 c 0,86,87
 339.013 413.5 339.013 413.5 297.902 396.824 c 0,88,89
 258.771 380.951 258.771 380.951 240.919 357.301 c 0,90,91
 220.507 330.259 220.507 330.259 211.426 305.072 c 0,92,93
 202.5 280.312 202.5 280.312 202.5 256.223 c 0,94,95
 202.5 205.963 202.5 205.963 234.909 167.61 c 0,96,97
 264.156 133 264.156 133 319 133 c 0,98,99
 404.395 133 404.395 133 520.5 219.517 c 1,83,-1
688.362 544.5 m 1,100,-1
 1017.22 544.5 l 1,101,102
 1010.27 646.316 1010.27 646.316 972.086 701.896 c 0,103,104
 933.539 758 933.539 758 868 758 c 128,-1,105
 802.65 758 802.65 758 744.202 697.23 c 0,106,107
 719.582 670.325 719.582 670.325 707.054 640.335 c 0,108,109
 693.927 608.909 693.927 608.909 691.333 586.776 c 0,110,111
 689.442 570.637 689.442 570.637 688.362 544.5 c 1,100,-1
EndSplineSet
EndChar

StartChar: eth
Encoding: 240 240 178
Width: 1228
Flags: W
LayerCount: 2
Fore
SplineSet
757.645 904.814 m 0,0,1
 774.376 901.319 774.376 901.319 790.737 897.292 c 1,2,3
 783.733 905.294 783.733 905.294 777.556 912.024 c 0,4,5
 745.767 946.66 745.767 946.66 681.244 998.084 c 0,6,7
 626.792 1041.48 626.792 1041.48 553.43 1086.38 c 1,8,-1
 445.119 916.319 l 1,9,-1
 303.428 1016.15 l 1,10,-1
 402.86 1165.78 l 1,11,12
 282.619 1220.09 282.619 1220.09 213.415 1241.45 c 2,13,-1
 181.18 1251.39 l 1,14,-1
 237.831 1413.26 l 1,15,-1
 268.071 1403.4 l 2,16,17
 389.453 1363.83 389.453 1363.83 495.578 1314.42 c 1,18,-1
 581.846 1455.12 l 1,19,20
 586.199 1452.25 586.199 1452.25 595.546 1446.09 c 128,-1,21
 604.893 1439.93 604.893 1439.93 609.885 1436.64 c 2,22,-1
 724.468 1361.12 l 1,23,-1
 645.02 1234.99 l 1,24,25
 668.721 1220.32 668.721 1220.32 686.575 1208.84 c 0,26,27
 715.635 1190.16 715.635 1190.16 776.638 1143.9 c 0,28,29
 838.424 1097.04 838.424 1097.04 882.481 1052.98 c 128,-1,30
 926.37 1009.09 926.37 1009.09 980.562 940.071 c 0,31,32
 1035.71 874.519 1035.71 874.519 1070.74 807.194 c 128,-1,33
 1105.68 740.018 1105.68 740.018 1129.99 651.196 c 0,34,35
 1154.5 561.623 1154.5 561.623 1154.5 466.366 c 0,36,37
 1154.5 314.255 1154.5 314.255 1081.88 201.126 c 0,38,39
 1008.98 87.5647 1008.98 87.5647 886.432 30.8802 c 0,40,41
 765.612 -29 765.612 -29 614 -29 c 0,42,43
 485.683 -29 485.683 -29 380.825 13.3667 c 0,44,45
 274.962 53.0998 274.962 53.0998 208.476 120.886 c 0,46,47
 142.884 187.762 142.884 187.762 108.19 271.059 c 128,-1,48
 73.5 354.346 73.5 354.346 73.5 445.446 c 0,49,50
 73.5 588.024 73.5 588.024 149.101 698.099 c 0,51,52
 224.413 807.751 224.413 807.751 342.913 863.043 c 0,53,54
 460.291 922 460.291 922 596 922 c 0,55,56
 675.365 922 675.365 922 757.645 904.814 c 0,0,1
614 133 m 0,57,58
 702.517 133 702.517 133 773.43 159.703 c 0,59,60
 844.581 186.977 844.581 186.977 887.709 230.939 c 0,61,62
 931.847 275.929 931.847 275.929 955.731 331.279 c 0,63,64
 979.5 386.361 979.5 386.361 979.5 446.047 c 128,-1,65
 979.5 505.808 979.5 505.808 955.672 561.859 c 128,-1,66
 931.853 617.89 931.853 617.89 887.421 662.3 c 0,67,68
 843.775 705.926 843.775 705.926 772.931 732.844 c 0,69,70
 701.461 760 701.461 760 614 760 c 0,71,72
 445.808 760 445.808 760 347.897 667.982 c 0,73,74
 249.5 575.507 249.5 575.507 249.5 446.047 c 0,75,76
 249.5 317.451 249.5 317.451 347.449 224.969 c 0,77,78
 444.854 133 444.854 133 614 133 c 0,57,58
EndSplineSet
EndChar

StartChar: divide
Encoding: 247 247 185
Width: 1228
Flags: W
LayerCount: 2
Fore
SplineSet
739.5 956.5 m 0,0,1
 739.5 906.382 739.5 906.382 703.19 868.729 c 0,2,3
 666.462 832 666.462 832 614 832 c 0,4,5
 562.362 832 562.362 832 525.809 869.231 c 0,6,7
 489.5 906.214 489.5 906.214 489.5 956.5 c 0,8,9
 489.5 1010.5 489.5 1010.5 527.172 1046.12 c 0,10,11
 564.068 1081 564.068 1081 614 1081 c 0,12,13
 665.108 1081 665.108 1081 702.052 1045.4 c 0,14,15
 739.5 1009.32 739.5 1009.32 739.5 956.5 c 0,0,1
1126.5 704.5 m 1,16,-1
 1126.5 536.5 l 1,17,-1
 102.5 536.5 l 1,18,-1
 102.5 704.5 l 1,19,-1
 1126.5 704.5 l 1,16,-1
700.404 374.51 m 0,20,21
 739.5 338.844 739.5 338.844 739.5 284.5 c 0,22,23
 739.5 231.339 739.5 231.339 700.631 195.199 c 0,24,25
 662.773 160 662.773 160 614 160 c 0,26,27
 563.712 160 563.712 160 526.731 196.309 c 0,28,29
 489.5 232.863 489.5 232.863 489.5 284.5 c 0,30,31
 489.5 337.317 489.5 337.317 526.948 373.403 c 0,32,33
 563.891 409 563.891 409 614 409 c 0,34,35
 662.596 409 662.596 409 700.404 374.51 c 0,20,21
EndSplineSet
EndChar

StartChar: oslash
Encoding: 248 248 186
Width: 1228
Flags: W
LayerCount: 2
Fore
SplineSet
1026.23 945.232 m 1,0,-1
 1150.19 828.927 l 1,1,-1
 203.351 -41.6611 l 1,2,-1
 76.1965 71.6712 l 1,3,-1
 1026.23 945.232 l 1,0,-1
1133.74 306.818 m 0,4,5
 1112.78 238.748 1112.78 238.748 1067.87 178.017 c 0,6,7
 1024.02 117.279 1024.02 117.279 960.847 71.9123 c 0,8,9
 897.327 26.2995 897.327 26.2995 807.392 -0.458035 c 0,10,11
 718.064 -29 718.064 -29 614 -29 c 0,12,13
 486.728 -29 486.728 -29 382.403 12.8351 c 0,14,15
 277.114 52.1135 277.114 52.1135 210.146 119.437 c 0,16,17
 143.965 185.97 143.965 185.97 108.727 269.911 c 128,-1,18
 73.5 353.824 73.5 353.824 73.5 446.035 c 0,19,20
 73.5 539.179 73.5 539.179 108.727 623.089 c 128,-1,21
 143.969 707.035 143.969 707.035 210.146 773.563 c 0,22,23
 277.118 840.889 277.118 840.889 382.403 880.165 c 0,24,25
 486.73 922 486.73 922 614 922 c 0,26,27
 744.466 922 744.466 922 849.435 878.527 c 0,28,29
 955.266 837.715 955.266 837.715 1021.19 769.281 c 0,30,31
 1086.19 701.807 1086.19 701.807 1120.35 618.834 c 128,-1,32
 1154.5 535.868 1154.5 535.868 1154.5 445.52 c 0,33,34
 1154.5 374.225 1154.5 374.225 1133.74 306.818 c 0,4,5
614 139 m 0,35,36
 702.702 139 702.702 139 773.697 164.85 c 0,37,38
 843.955 191.257 843.955 191.257 887.628 234.012 c 0,39,40
 931.994 277.445 931.994 277.445 955.762 332.012 c 128,-1,41
 979.5 386.513 979.5 386.513 979.5 446.048 c 128,-1,42
 979.5 505.624 979.5 505.624 955.731 560.606 c 128,-1,43
 931.965 615.582 931.965 615.582 887.628 658.988 c 0,44,45
 844.025 701.676 844.025 701.676 773.694 727.699 c 0,46,47
 702.616 754 702.616 754 614 754 c 0,48,49
 527.237 754 527.237 754 456.536 728.505 c 0,50,51
 386.79 703.355 386.79 703.355 342.759 660.687 c 0,52,53
 297.927 617.242 297.927 617.242 273.691 562.237 c 128,-1,54
 249.5 507.332 249.5 507.332 249.5 446.048 c 0,55,56
 249.5 385.668 249.5 385.668 273.691 330.763 c 128,-1,57
 297.93 275.75 297.93 275.75 342.267 232.758 c 0,58,59
 385.865 190.482 385.865 190.482 455.706 164.885 c 0,60,61
 526.334 139 526.334 139 614 139 c 0,35,36
EndSplineSet
EndChar

StartChar: thorn
Encoding: 254 254 192
Width: 1228
Flags: W
LayerCount: 2
Fore
SplineSet
646.5 -160 m 1,0,-1
 646.5 -322 l 1,1,-1
 6.5 -322 l 1,2,-1
 6.5 -160 l 1,3,-1
 174.5 -160 l 1,4,-1
 174.5 1115.54 l 1,5,-1
 -7.5 1107.54 l 1,6,-1
 -7.5 1268.01 l 1,7,-1
 306.944 1287.93 l 2,8,9
 312.73 1288.3 312.73 1288.3 324.248 1289.03 c 128,-1,10
 335.767 1289.76 335.767 1289.76 341.5 1290.13 c 1,11,-1
 341.5 785.49 l 1,12,13
 467.394 907 467.394 907 666 907 c 0,14,15
 808.223 907 808.223 907 922.084 841.285 c 0,16,17
 1035.54 775.805 1035.54 775.805 1095.17 671.427 c 0,18,19
 1154.5 567.584 1154.5 567.584 1154.5 448.835 c 0,20,21
 1154.5 315.889 1154.5 315.889 1082.06 207.633 c 0,22,23
 1010.11 100.111 1010.11 100.111 900.295 43.0688 c 128,-1,24
 790.428 -14 790.428 -14 670 -14 c 0,25,26
 650.097 -14 650.097 -14 631.199 -12.95 c 0,27,28
 610.604 -11.8059 610.604 -11.8059 564.566 -1.75163 c 0,29,30
 518.044 8.40822 518.044 8.40822 476.698 26.1278 c 0,31,32
 434.767 44.098 434.767 44.098 382.758 82.3088 c 0,33,34
 361.569 97.8758 361.569 97.8758 341.5 116.297 c 1,35,-1
 341.5 -160 l 1,36,-1
 646.5 -160 l 1,0,-1
575.469 164.918 m 128,-1,38
 621.576 153 621.576 153 666 153 c 0,39,40
 793.353 153 793.353 153 886.298 238.311 c 0,41,42
 979.5 323.858 979.5 323.858 979.5 450.551 c 0,43,44
 979.5 504.033 979.5 504.033 959.371 555.105 c 128,-1,45
 939.222 606.23 939.222 606.23 901.194 648.716 c 0,46,47
 864.458 689.758 864.458 689.758 804.353 714.795 c 0,48,49
 743.844 740 743.844 740 668 740 c 0,50,51
 524.281 740 524.281 740 428.759 655.641 c 0,52,53
 333.5 571.513 333.5 571.513 333.5 454.153 c 0,54,55
 333.5 396.354 333.5 396.354 353.992 346.338 c 0,56,57
 374.391 296.55 374.391 296.55 407.87 262.39 c 0,58,59
 442.372 227.186 442.372 227.186 486.06 201.93 c 128,-1,37
 529.55 176.788 529.55 176.788 575.469 164.918 c 128,-1,38
EndSplineSet
EndChar

StartChar: Hbar
Encoding: 294 294 232
Width: 1228
Flags: W
LayerCount: 2
Fore
SplineSet
1183.5 161 m 1,0,-1
 1183.5 0 l 1,1,-1
 706.5 0 l 1,2,-1
 706.5 161 l 1,3,-1
 860.5 161 l 1,4,-1
 860.5 514.5 l 1,5,-1
 368.5 514.5 l 1,6,-1
 368.5 161 l 1,7,-1
 521.5 161 l 1,8,-1
 521.5 0 l 1,9,-1
 47.5 0 l 1,10,-1
 47.5 161 l 1,11,-1
 200.5 161 l 1,12,-1
 200.5 767.556 l 1,13,-1
 47.5 767.556 l 1,14,-1
 47.5 916.876 l 1,15,-1
 200.5 916.876 l 1,16,-1
 200.5 992 l 1,17,-1
 47.5 992 l 1,18,-1
 47.5 1153 l 1,19,-1
 521.5 1153 l 1,20,-1
 521.5 992 l 1,21,-1
 368.5 992 l 1,22,-1
 368.5 911 l 1,23,-1
 860.5 911 l 1,24,-1
 860.5 992 l 1,25,-1
 706.5 992 l 1,26,-1
 706.5 1153 l 1,27,-1
 1183.5 1153 l 1,28,-1
 1183.5 992 l 1,29,-1
 1027.5 992 l 1,30,-1
 1027.5 916.876 l 1,31,-1
 1183.5 916.876 l 1,32,-1
 1183.5 767.556 l 1,33,-1
 1027.5 767.556 l 1,34,-1
 1027.5 161 l 1,35,-1
 1183.5 161 l 1,0,-1
368.5 675.5 m 1,36,-1
 860.5 675.5 l 1,37,-1
 860.5 782.5 l 1,38,-1
 368.5 782.5 l 1,39,-1
 368.5 675.5 l 1,36,-1
EndSplineSet
EndChar

StartChar: Idotaccent
Encoding: 304 304 242
Width: 1228
Flags: W
LayerCount: 2
Fore
SplineSet
1056.5 161 m 1,0,-1
 1056.5 0 l 1,1,-1
 172.5 0 l 1,2,-1
 172.5 161 l 1,3,-1
 530.5 161 l 1,4,-1
 530.5 992 l 1,5,-1
 172.5 992 l 1,6,-1
 172.5 1153 l 1,7,-1
 1056.5 1153 l 1,8,-1
 1056.5 992 l 1,9,-1
 698.5 992 l 1,10,-1
 698.5 161 l 1,11,-1
 1056.5 161 l 1,0,-1
720.5 1544 m 1,12,-1
 720.5 1258 l 1,13,-1
 508.5 1258 l 1,14,-1
 508.5 1544 l 1,15,-1
 720.5 1544 l 1,12,-1
EndSplineSet
EndChar

StartChar: dotlessi
Encoding: 305 305 243
Width: 1228
Flags: W
LayerCount: 2
Fore
SplineSet
1056.5 161 m 1,0,-1
 1056.5 0 l 1,1,-1
 174.5 0 l 1,2,-1
 174.5 161 l 1,3,-1
 534.5 161 l 1,4,-1
 534.5 719 l 1,5,-1
 233.5 719 l 1,6,-1
 233.5 881 l 1,7,-1
 702.5 881 l 1,8,-1
 702.5 161 l 1,9,-1
 1056.5 161 l 1,0,-1
EndSplineSet
EndChar

StartChar: IJ
Encoding: 306 306 244
Width: 1228
Flags: W
LayerCount: 2
Fore
SplineSet
1078.5 992 m 1,0,-1
 1078.5 275.575 l 2,1,2
 1078.5 191.897 1078.5 191.897 1054.32 133.039 c 0,3,4
 1029.84 73.4535 1029.84 73.4535 989.981 36.0016 c 0,5,6
 949.72 -1.82702 949.72 -1.82702 898.19 -18.6915 c 0,7,8
 848.499 -36 848.499 -36 797 -36 c 0,9,10
 758.711 -36 758.711 -36 721.068 -25.887 c 0,11,12
 683.662 -15.8379 683.662 -15.8379 650.635 2.63536 c 0,13,14
 617.832 20.9832 617.832 20.9832 591.039 45.5425 c 0,15,16
 562.799 71.4285 562.799 71.4285 546.148 103.54 c 2,17,-1
 542.5 110.575 l 1,18,-1
 542.5 537 l 1,19,-1
 709.5 537 l 1,20,-1
 709.5 156.491 l 1,21,22
 721.243 145.029 721.243 145.029 740.074 136.754 c 0,23,24
 766.825 125 766.825 125 797 125 c 0,25,26
 817.685 125 817.685 125 837.83 132.568 c 0,27,28
 856.644 139.636 856.644 139.636 872.541 156.537 c 0,29,30
 889.15 174.195 889.15 174.195 899.588 204.106 c 0,31,32
 910.5 235.372 910.5 235.372 910.5 282.679 c 2,33,-1
 910.5 992 l 1,34,-1
 674.5 992 l 1,35,-1
 674.5 1153 l 1,36,-1
 1212.5 1153 l 1,37,-1
 1212.5 992 l 1,38,-1
 1078.5 992 l 1,0,-1
498.5 161 m 1,39,-1
 498.5 0 l 1,40,-1
 0.5 0 l 1,41,-1
 0.5 161 l 1,42,-1
 163.5 161 l 1,43,-1
 163.5 992 l 1,44,-1
 0.5 992 l 1,45,-1
 0.5 1153 l 1,46,-1
 498.5 1153 l 1,47,-1
 498.5 992 l 1,48,-1
 331.5 992 l 1,49,-1
 331.5 161 l 1,50,-1
 498.5 161 l 1,39,-1
EndSplineSet
EndChar

StartChar: ij
Encoding: 307 307 245
Width: 1228
Flags: W
LayerCount: 2
Fore
SplineSet
698.5 161 m 1,0,-1
 698.5 0 l 1,1,-1
 24.5 0 l 1,2,-1
 24.5 161 l 1,3,-1
 270.5 161 l 1,4,-1
 270.5 719 l 1,5,-1
 79.5 719 l 1,6,-1
 79.5 881 l 1,7,-1
 438.5 881 l 1,8,-1
 438.5 161 l 1,9,-1
 698.5 161 l 1,0,-1
438.5 1343 m 1,10,-1
 438.5 1035 l 1,11,-1
 225.5 1035 l 1,12,-1
 225.5 1343 l 1,13,-1
 438.5 1343 l 1,10,-1
1070.5 881 m 1,14,-1
 1070.5 26.5 l 2,15,16
 1070.5 0.0129433 1070.5 0.0129433 1069.99 -16.9844 c 0,17,18
 1069.45 -34.6612 1069.45 -34.6612 1065.83 -69.828 c 0,19,20
 1062.08 -106.229 1062.08 -106.229 1055.49 -132.04 c 0,21,22
 1048.95 -157.648 1048.95 -157.648 1034.64 -193.148 c 0,23,24
 1019.41 -230.952 1019.41 -230.952 998.036 -258.103 c 0,25,26
 977.614 -284.046 977.614 -284.046 945.753 -311.587 c 0,27,28
 912.335 -340.475 912.335 -340.475 870.557 -357.976 c 0,29,30
 830.588 -374.72 830.588 -374.72 775.433 -385.857 c 128,-1,31
 720.25 -397 720.25 -397 655 -397 c 0,32,33
 545.697 -397 545.697 -397 371.483 -361.34 c 2,34,-1
 338.718 -354.634 l 1,35,-1
 376.726 -192.686 l 1,36,-1
 408.173 -199.801 l 2,37,38
 541.628 -230 541.628 -230 661 -230 c 0,39,40
 701.993 -230 701.993 -230 736.538 -223.552 c 128,-1,41
 770.948 -217.128 770.948 -217.128 794.528 -207.785 c 0,42,43
 815.764 -199.371 815.764 -199.371 832.516 -184.613 c 0,44,45
 851.482 -167.906 851.482 -167.906 862.776 -154.006 c 0,46,47
 872.408 -142.152 872.408 -142.152 880.045 -121.654 c 0,48,49
 888.949 -97.7533 888.949 -97.7533 893.024 -81.9062 c 0,50,51
 896.857 -66.9976 896.857 -66.9976 899.124 -41.16 c 0,52,53
 901.547 -13.5487 901.547 -13.5487 902.018 0.582731 c 0,54,55
 902.5 13.8376 902.5 13.8376 902.5 37.1881 c 2,56,-1
 902.5 719 l 1,57,-1
 594.5 719 l 1,58,-1
 594.5 881 l 1,59,-1
 1070.5 881 l 1,14,-1
1029.5 1343 m 1,60,-1
 1029.5 1035 l 1,61,-1
 816.5 1035 l 1,62,-1
 816.5 1343 l 1,63,-1
 1029.5 1343 l 1,60,-1
EndSplineSet
EndChar

StartChar: kgreenlandic
Encoding: 312 312 250
Width: 1228
Flags: W
LayerCount: 2
Fore
SplineSet
1185.5 161 m 1,0,-1
 1185.5 0 l 1,1,-1
 696.5 0 l 1,2,-1
 696.5 161 l 1,3,-1
 786.401 161 l 1,4,5
 679.902 278.423 679.902 278.423 492.001 453.047 c 1,6,-1
 411.5 391.446 l 1,7,-1
 411.5 0 l 1,8,-1
 76.5 0 l 1,9,-1
 76.5 161 l 1,10,-1
 243.5 161 l 1,11,-1
 243.5 719 l 1,12,-1
 43.5 719 l 1,13,-1
 43.5 881 l 1,14,-1
 411.5 881 l 1,15,-1
 411.5 522.01 l 1,16,-1
 670.769 719 l 1,17,-1
 614.5 719 l 1,18,-1
 614.5 881 l 1,19,-1
 1109.5 881 l 1,20,-1
 1109.5 719 l 1,21,-1
 926.034 719 l 1,22,-1
 621.664 509.785 l 1,23,24
 726.883 423.469 726.883 423.469 828.418 328.969 c 0,25,26
 935.291 229.501 935.291 229.501 996.713 161 c 1,27,-1
 1185.5 161 l 1,0,-1
EndSplineSet
EndChar

StartChar: Lslash
Encoding: 321 321 259
Width: 1228
Flags: W
LayerCount: 2
Fore
SplineSet
703.346 915.201 m 1,0,-1
 804.228 768.607 l 1,1,-1
 120.559 299.805 l 1,2,-1
 20.867 445.387 l 1,3,-1
 703.346 915.201 l 1,0,-1
1167 575 m 1,4,-1
 1141.07 0 l 1,5,-1
 88.5 0 l 1,6,-1
 88.5 161 l 1,7,-1
 293.5 161 l 1,8,-1
 293.5 992 l 1,9,-1
 88.5 992 l 1,10,-1
 88.5 1153 l 1,11,-1
 712.5 1153 l 1,12,-1
 712.5 992 l 1,13,-1
 460.5 992 l 1,14,-1
 460.5 161 l 1,15,-1
 977.624 161 l 1,16,-1
 1005.62 575 l 1,17,-1
 1167 575 l 1,4,-1
EndSplineSet
EndChar

StartChar: lslash
Encoding: 322 322 260
Width: 1228
Flags: W
LayerCount: 2
Fore
SplineSet
917.346 966.701 m 1,0,-1
 1018.23 820.107 l 1,1,-1
 334.559 351.305 l 1,2,-1
 234.867 496.887 l 1,3,-1
 917.346 966.701 l 1,0,-1
1054.5 161 m 1,4,-1
 1054.5 0 l 1,5,-1
 174.5 0 l 1,6,-1
 174.5 161 l 1,7,-1
 530.5 161 l 1,8,-1
 530.5 1085.48 l 1,9,-1
 199.98 1060.74 l 1,10,-1
 183.129 1220.82 l 1,11,-1
 698.5 1253.1 l 1,12,-1
 698.5 161 l 1,13,-1
 1054.5 161 l 1,4,-1
EndSplineSet
EndChar

StartChar: Eng
Encoding: 330 330 267
Width: 1228
Flags: W
LayerCount: 2
Fore
SplineSet
1109.5 826.842 m 2,0,-1
 1109.5 67.6977 l 2,1,2
 1109.5 -14.0297 1109.5 -14.0297 1077.6 -80.9137 c 0,3,4
 1045.47 -151.832 1045.47 -151.832 992.595 -195.142 c 0,5,6
 941.305 -237.154 941.305 -237.154 881.107 -259.043 c 128,-1,7
 820.723 -281 820.723 -281 758 -281 c 2,8,-1
 569.5 -281 l 1,9,-1
 569.5 -113 l 1,10,-1
 758 -113 l 2,11,12
 802.279 -113 802.279 -113 836.609 -98.166 c 0,13,14
 870.593 -83.4816 870.593 -83.4816 888.343 -63.7586 c 0,15,16
 907.619 -42.3405 907.619 -42.3405 920.573 -14.7059 c 0,17,18
 933.875 11.9829 933.875 11.9829 938.107 32.2789 c 0,19,20
 942.5 53.3446 942.5 53.3446 942.5 70.1292 c 2,21,-1
 942.5 819.676 l 2,22,23
 942.5 909.345 942.5 909.345 896.407 962.011 c 0,24,25
 852.657 1012 852.657 1012 766 1012 c 0,26,27
 673.982 1012 673.982 1012 573.065 962.949 c 0,28,29
 475.984 915.762 475.984 915.762 399.5 847.435 c 1,30,-1
 399.5 161 l 1,31,-1
 571.5 161 l 1,32,-1
 571.5 0 l 1,33,-1
 57.5 0 l 1,34,-1
 57.5 161 l 1,35,-1
 231.5 161 l 1,36,-1
 231.5 992 l 1,37,-1
 57.5 992 l 1,38,-1
 57.5 1153 l 1,39,-1
 399.5 1153 l 1,40,-1
 399.5 1044.39 l 1,41,42
 416.541 1055.57 416.541 1055.57 429.233 1063.53 c 0,43,44
 459.857 1082.74 459.857 1082.74 520.483 1114.32 c 0,45,46
 583.352 1147.08 583.352 1147.08 647.996 1163.5 c 0,47,48
 712.949 1180 712.949 1180 780 1180 c 0,49,50
 849.282 1180 849.282 1180 906.121 1157.16 c 0,51,52
 963.286 1135.33 963.286 1135.33 1001.48 1099.03 c 0,53,54
 1038.67 1063.7 1038.67 1063.7 1063.5 1017.02 c 0,55,56
 1087.9 971.171 1087.9 971.171 1098.77 923.12 c 0,57,58
 1109.5 875.72 1109.5 875.72 1109.5 826.842 c 2,0,-1
EndSplineSet
EndChar

StartChar: eng
Encoding: 331 331 268
Width: 1228
Flags: W
LayerCount: 2
Fore
SplineSet
1029.5 567.931 m 2,0,-1
 1029.5 65.7644 l 2,1,2
 1029.5 -16.7055 1029.5 -16.7055 998.227 -83.1353 c 0,3,4
 966.599 -154.713 966.599 -154.713 913.123 -198.618 c 0,5,6
 861.288 -241.176 861.288 -241.176 800.518 -263.075 c 128,-1,7
 739.676 -285 739.676 -285 676 -285 c 2,8,-1
 506.5 -285 l 1,9,-1
 506.5 -117 l 1,10,-1
 676 -117 l 2,11,12
 714.817 -117 714.817 -117 747.067 -104.27 c 128,-1,13
 779.118 -91.6183 779.118 -91.6183 799.003 -72.5453 c 0,14,15
 820.068 -52.3403 820.068 -52.3403 834.724 -26.4771 c 0,16,17
 849.542 -0.330154 849.542 -0.330154 855.97 25.3824 c 0,18,19
 862.5 49.3325 862.5 49.3325 862.5 71.3428 c 2,20,-1
 862.5 550.044 l 2,21,22
 862.5 645.848 862.5 645.848 813.409 695.566 c 0,23,24
 765.587 744 765.587 744 696 744 c 0,25,26
 651.294 744 651.294 744 608.937 733.756 c 128,-1,27
 566.688 723.539 566.688 723.539 519.478 698.554 c 0,28,29
 469.328 672.013 469.328 672.013 442.641 655.861 c 0,30,31
 419.17 641.656 419.17 641.656 372.5 610.893 c 1,32,-1
 372.5 161 l 1,33,-1
 544.5 161 l 1,34,-1
 544.5 0 l 1,35,-1
 37.5 0 l 1,36,-1
 37.5 161 l 1,37,-1
 205.5 161 l 1,38,-1
 205.5 719 l 1,39,-1
 37.5 719 l 1,40,-1
 37.5 881 l 1,41,-1
 372.5 881 l 1,42,-1
 372.5 795.597 l 1,43,44
 387.742 805.897 387.742 805.897 398.124 812.465 c 0,45,46
 423.621 828.596 423.621 828.596 475.176 856.161 c 0,47,48
 529.292 885.094 529.292 885.094 582.269 898.067 c 128,-1,49
 635.082 911 635.082 911 692 911 c 0,50,51
 845.561 911 845.561 911 938.248 813.514 c 0,52,53
 1029.5 717.537 1029.5 717.537 1029.5 567.931 c 2,0,-1
EndSplineSet
EndChar

StartChar: OE
Encoding: 338 338 275
Width: 1228
Flags: W
LayerCount: 2
Fore
SplineSet
821.5 826.86 m 1,0,-1
 973.42 826.86 l 1,1,-1
 960.683 992 l 1,2,-1
 753.5 992 l 1,3,-1
 753.5 691.5 l 1,4,-1
 821.5 691.5 l 1,5,-1
 821.5 826.86 l 1,0,-1
1132.5 740.534 m 1,6,-1
 980.5 740.534 l 1,7,-1
 980.5 381.5 l 1,8,-1
 821.5 381.5 l 1,9,-1
 821.5 530.5 l 1,10,-1
 753.5 530.5 l 1,11,-1
 753.5 161 l 1,12,-1
 988.849 161 l 1,13,-1
 1000.85 444 l 1,14,-1
 1158.5 444 l 1,15,-1
 1158.5 0 l 1,16,-1
 496 0 l 2,17,18
 396.862 0 396.862 0 312.381 36.9105 c 0,19,20
 228.3 73.6461 228.3 73.6461 170.823 134.215 c 0,21,22
 114.893 193.153 114.893 193.153 75.4311 267.865 c 0,23,24
 36.1415 342.25 36.1415 342.25 18.2739 418.365 c 0,25,26
 0.499999 494.08 0.499999 494.08 0.5 567.507 c 0,27,28
 0.5 729.972 0.5 729.972 69.8875 862.333 c 0,29,30
 139.954 995.989 139.954 995.989 271.695 1074.44 c 128,-1,31
 403.624 1153 403.624 1153 571 1153 c 2,32,-1
 1132.5 1153 l 1,33,-1
 1132.5 740.534 l 1,6,-1
528 161 m 2,34,-1
 585.5 161 l 1,35,-1
 585.5 992 l 1,36,-1
 565 992 l 2,37,38
 472.413 992 472.413 992 398.099 958.813 c 0,39,40
 323.986 925.716 323.986 925.716 276.675 869.18 c 0,41,42
 228.185 811.237 228.185 811.237 201.937 735.599 c 0,43,44
 175.5 659.415 175.5 659.415 175.5 573.254 c 0,45,46
 175.5 517.852 175.5 517.852 187.85 461.467 c 0,47,48
 200.047 405.778 200.047 405.778 228.796 350.267 c 0,49,50
 257.367 295.099 257.367 295.099 297.428 252.759 c 0,51,52
 335.852 212.149 335.852 212.149 396.049 186.543 c 128,-1,53
 456.099 161 456.099 161 528 161 c 2,34,-1
EndSplineSet
EndChar

StartChar: oe
Encoding: 339 339 276
Width: 1228
Flags: W
LayerCount: 2
Fore
SplineSet
1206.43 38.0565 m 1,0,-1
 1173.56 26.7634 l 2,1,2
 1005.42 -31 1005.42 -31 895 -31 c 0,3,4
 865.944 -31 865.944 -31 833.946 -24.9308 c 128,-1,5
 801.98 -18.8687 801.98 -18.8687 755.67 -0.770523 c 0,6,7
 705.642 18.7807 705.642 18.7807 659.744 65.7976 c 0,8,9
 634.965 91.1802 634.965 91.1802 614.594 123.02 c 1,10,11
 604.767 108.131 604.767 108.131 587.906 85.8746 c 0,12,13
 559.844 48.8347 559.844 48.8347 528.704 26.9213 c 0,14,15
 498.018 5.32775 498.018 5.32775 446.765 -12.6652 c 0,16,17
 394.539 -31 394.539 -31 334 -31 c 0,18,19
 262.629 -31 262.629 -31 205.229 -7.59422 c 0,20,21
 148.031 14.1287 148.031 14.1287 111.577 46.4902 c 0,22,23
 75.5742 78.451 75.5742 78.451 49.558 125.882 c 0,24,25
 24.6989 171.204 24.6989 171.204 12.8476 208.332 c 0,26,27
 1.0776 245.206 1.0776 245.206 -5.25412 292.876 c 0,28,29
 -11.4512 339.532 -11.4512 339.532 -11.9903 360.12 c 0,30,31
 -12.5 379.583 -12.5 379.583 -12.5 405.099 c 0,32,33
 -12.5 504.127 -12.5 504.127 6.67282 590.519 c 0,34,35
 26.058 677.868 26.058 677.868 66.5471 751.822 c 0,36,37
 109.011 829.383 109.011 829.383 184.344 874.786 c 0,38,39
 260.399 924 260.399 924 360 924 c 0,40,41
 423.438 924 423.438 924 477.89 901.546 c 0,42,43
 532.651 878.964 532.651 878.964 566.861 843.595 c 0,44,45
 597.443 811.976 597.443 811.976 615.898 784.984 c 1,46,47
 656.886 840.478 656.886 840.478 710.811 874.082 c 0,48,49
 787.706 922 787.706 922 868 922 c 0,50,51
 953.433 922 953.433 922 1019.91 874.431 c 0,52,53
 1084.46 831.134 1084.46 831.134 1120.07 764.38 c 0,54,55
 1153.73 701.27 1153.73 701.27 1170.61 635.028 c 128,-1,56
 1187.5 568.737 1187.5 568.737 1187.5 506.085 c 0,57,58
 1187.5 450.012 1187.5 450.012 1183.3 414.602 c 2,59,-1
 1180.09 387.5 l 1,60,-1
 687.415 387.5 l 1,61,62
 688.685 335.379 688.685 335.379 700.087 293.636 c 0,63,64
 714.236 241.839 714.236 241.839 736.042 212.833 c 128,-1,65
 757.842 183.835 757.842 183.835 786.685 165.13 c 128,-1,66
 815.684 146.324 815.684 146.324 840.339 139.765 c 0,67,68
 865.77 133 865.77 133 891 133 c 0,69,70
 972.198 133 972.198 133 1116.6 176.612 c 2,71,-1
 1144.62 185.073 l 1,72,-1
 1206.43 38.0565 l 1,0,-1
252.95 155.233 m 0,73,74
 285.799 133 285.799 133 332 133 c 0,75,76
 425.064 133 425.064 133 472.782 204.138 c 128,-1,77
 520.5 275.276 520.5 275.276 520.5 433.362 c 0,78,79
 520.5 521.675 520.5 521.675 509.391 586.013 c 0,80,81
 498.481 649.193 498.481 649.193 482.926 683.601 c 0,82,83
 468.78 714.888 468.78 714.888 447.408 732.101 c 0,84,85
 425.779 749.521 425.779 749.521 407.661 754.446 c 0,86,87
 387.231 760 387.231 760 360 760 c 0,88,89
 311.57 760 311.57 760 274.535 732.646 c 0,90,91
 234.833 703.321 234.833 703.321 211.971 653.928 c 0,92,93
 187.37 600.775 187.37 600.775 175.501 540.121 c 0,94,95
 163.5 478.793 163.5 478.793 163.5 413.428 c 0,96,97
 163.5 358.848 163.5 358.848 172.534 311.027 c 0,98,99
 181.462 263.767 181.462 263.767 201.215 218.598 c 0,100,101
 218.824 178.33 218.824 178.33 252.95 155.233 c 0,73,74
688.817 542.5 m 1,102,-1
 1019.71 542.5 l 1,103,104
 1016.7 593.988 1016.7 593.988 1003.12 637.673 c 0,105,106
 986.709 690.484 986.709 690.484 948.648 726.218 c 0,107,108
 914.795 758 914.795 758 868 758 c 0,109,110
 856.185 758 856.185 758 839.234 754.142 c 0,111,112
 822.842 750.411 822.842 750.411 794.912 735.622 c 0,113,114
 767.72 721.223 767.72 721.223 745.76 697.652 c 0,115,116
 724.073 674.374 724.073 674.374 706.433 626.814 c 0,117,118
 692.67 589.708 692.67 589.708 688.817 542.5 c 1,102,-1
EndSplineSet
EndChar

StartChar: florin
Encoding: 402 402 320
Width: 1228
Flags: W
LayerCount: 2
Fore
SplineSet
605.5 719 m 1,0,-1
 605.5 124.966 l 2,1,2
 605.5 48.1155 605.5 48.1155 585.017 -3.1794 c 0,3,4
 563.221 -62.6731 563.221 -62.6731 502.611 -108.417 c 0,5,6
 377.932 -203 377.932 -203 152 -203 c 0,7,8
 104.767 -203 104.767 -203 44.5593 -194.695 c 2,9,-1
 14.2265 -190.511 l 1,10,-1
 27.291 -22.3062 l 1,11,-1
 61.706 -27.3425 l 2,12,13
 141.366 -39 141.366 -39 197 -39 c 0,14,15
 266.527 -39 266.527 -39 331.72 -20.7084 c 0,16,17
 391.497 -3.93659 391.497 -3.93659 414.972 24.233 c 0,18,19
 424.48 34.7901 424.48 34.7901 430.145 53.7864 c 0,20,21
 436.722 75.8393 436.722 75.8393 437.543 90.4678 c 0,22,23
 438.5 107.541 438.5 107.541 438.5 140.612 c 2,24,-1
 438.5 719 l 1,25,-1
 219.5 719 l 1,26,-1
 219.5 870 l 1,27,-1
 438.5 870 l 1,28,-1
 438.5 960.5 l 2,29,30
 438.5 994 438.5 994 441.138 1022.5 c 0,31,32
 443.872 1052.02 443.872 1052.02 454.494 1093.98 c 0,33,34
 465.562 1137.69 465.562 1137.69 485.198 1172.48 c 128,-1,35
 504.82 1207.24 504.82 1207.24 540.847 1243.81 c 0,36,37
 577.742 1281.26 577.742 1281.26 627.726 1305.7 c 0,38,39
 676.349 1329.47 676.349 1329.47 749.316 1344.81 c 0,40,41
 821.611 1360 821.611 1360 911 1360 c 0,42,43
 982.064 1360 982.064 1360 1046.16 1351.73 c 2,44,-1
 1077.33 1347.71 l 1,45,-1
 1060.84 1174.53 l 1,46,-1
 1024.72 1182.83 l 2,47,48
 954.309 1199 954.309 1199 885 1199 c 0,49,50
 824.486 1199 824.486 1199 777.417 1188.74 c 0,51,52
 730.682 1178.56 730.682 1178.56 702.168 1164.75 c 0,53,54
 676.029 1152.09 676.029 1152.09 657.342 1130.97 c 0,55,56
 636.967 1107.93 636.967 1107.93 627.302 1089.44 c 0,57,58
 618.069 1071.78 618.069 1071.78 612.96 1044.1 c 0,59,60
 607.339 1013.65 607.339 1013.65 606.453 997.246 c 0,61,62
 605.5 979.616 605.5 979.616 605.5 950.5 c 2,63,-1
 605.5 870 l 1,64,-1
 966.5 870 l 1,65,-1
 966.5 719 l 1,66,-1
 605.5 719 l 1,0,-1
EndSplineSet
EndChar

StartChar: dotlessj
Encoding: 567 567 324
Width: 1228
Flags: W
LayerCount: 2
Fore
SplineSet
909.5 881 m 1,0,-1
 909.5 26.5 l 2,1,2
 909.5 -3.51371 909.5 -3.51371 906.937 -44.5273 c 0,3,4
 904.246 -87.5784 904.246 -87.5784 892.486 -133.555 c 0,5,6
 880.476 -180.509 880.476 -180.509 855.506 -226.11 c 0,7,8
 829.785 -273.082 829.785 -273.082 784.112 -311.214 c 1,9,10
 736.52 -352.789 736.52 -352.789 664.773 -374.149 c 0,11,12
 595.072 -394.9 595.072 -394.9 494.339 -397 c 1,13,14
 386.739 -397 386.739 -397 210.555 -361.355 c 2,15,-1
 177.701 -354.708 l 1,16,-1
 215.766 -192.518 l 1,17,-1
 247.341 -199.84 l 2,18,19
 314.569 -215.429 314.569 -215.429 377.254 -222.718 c 128,-1,20
 439.887 -230 439.887 -230 500 -230 c 0,21,22
 564.992 -230 564.992 -230 607.713 -216.509 c 0,23,24
 649.243 -203.394 649.243 -203.394 674.897 -182.365 c 0,25,26
 700.116 -161.694 700.116 -161.694 713.024 -136.282 c 0,27,28
 727.047 -108.674 727.047 -108.674 733.168 -78.9463 c 0,29,30
 739.601 -47.6976 739.601 -47.6976 740.515 -18.0005 c 0,31,32
 741.5 11.3981 741.5 11.3981 741.5 35.7587 c 2,33,-1
 741.5 719 l 1,34,-1
 432.5 719 l 1,35,-1
 432.5 881 l 1,36,-1
 909.5 881 l 1,0,-1
EndSplineSet
EndChar

StartChar: circumflex
Encoding: 710 710 325
Width: 1228
Flags: W
LayerCount: 2
Fore
SplineSet
925.79 1075.63 m 1,0,-1
 812.594 988.159 l 1,1,-1
 604.985 1123.56 l 1,2,-1
 418.069 987.892 l 1,3,-1
 301.232 1072.08 l 1,4,-1
 515.771 1304.5 l 1,5,-1
 701.662 1304.5 l 1,6,-1
 925.79 1075.63 l 1,0,-1
EndSplineSet
EndChar

StartChar: caron
Encoding: 711 711 326
Width: 1228
Flags: W
LayerCount: 2
Fore
SplineSet
710.077 1009.5 m 1,0,-1
 527.439 1009.5 l 1,1,-1
 300.55 1238.76 l 1,2,-1
 414.666 1323.49 l 1,3,-1
 621.985 1190.28 l 1,4,-1
 811.712 1326.52 l 1,5,-1
 925.168 1238.85 l 1,6,-1
 710.077 1009.5 l 1,0,-1
EndSplineSet
EndChar

StartChar: breve
Encoding: 728 728 327
Width: 1228
Flags: W
LayerCount: 2
Fore
SplineSet
976.529 1266.85 m 2,0,1
 951.721 1198.91 951.721 1198.91 911.959 1148.8 c 128,-1,2
 872.139 1098.62 872.139 1098.62 832.172 1072.72 c 0,3,4
 792.956 1047.32 792.956 1047.32 745.735 1032.49 c 0,5,6
 699.795 1018.07 699.795 1018.07 670.725 1014.71 c 0,7,8
 642.869 1011.5 642.869 1011.5 614 1011.5 c 0,9,10
 516.319 1011.5 516.319 1011.5 432.466 1053.43 c 0,11,12
 347.959 1095.69 347.959 1095.69 296.99 1169.92 c 0,13,14
 279.926 1196.09 279.926 1196.09 252.701 1266.24 c 2,15,-1
 235.527 1310.5 l 1,16,-1
 394.393 1310.5 l 1,17,-1
 408.685 1289.06 l 1,18,-1
 409.257 1288.06 l 2,19,20
 431.701 1248.55 431.701 1248.55 461.38 1221.53 c 0,21,22
 490.066 1195.42 490.066 1195.42 518.931 1185.11 c 0,23,24
 551.511 1173.47 551.511 1173.47 572.989 1169.44 c 0,25,26
 594.016 1165.5 594.016 1165.5 614 1165.5 c 0,27,28
 746.984 1165.5 746.984 1165.5 816.651 1282.73 c 1,29,30
 825.908 1310.5 825.908 1310.5 852 1310.5 c 2,31,-1
 992.463 1310.5 l 1,32,-1
 976.529 1266.85 l 2,0,1
EndSplineSet
EndChar

StartChar: dotaccent
Encoding: 729 729 328
Width: 1228
Flags: W
LayerCount: 2
Fore
SplineSet
720.5 1018.5 m 1,0,-1
 508.5 1018.5 l 1,1,-1
 508.5 1304.5 l 1,2,-1
 720.5 1304.5 l 1,3,-1
 720.5 1018.5 l 1,0,-1
EndSplineSet
EndChar

StartChar: ring
Encoding: 730 730 329
Width: 1228
Flags: W
LayerCount: 2
Fore
SplineSet
802.5 1159 m 0,0,1
 802.5 1081.54 802.5 1081.54 747.481 1026.52 c 128,-1,2
 692.467 971.5 692.467 971.5 614 971.5 c 0,3,4
 536.638 971.5 536.638 971.5 481.646 1025.89 c 128,-1,5
 426.5 1080.44 426.5 1080.44 426.5 1159 c 128,-1,6
 426.5 1237.46 426.5 1237.46 481.519 1292.48 c 128,-1,7
 536.533 1347.5 536.533 1347.5 614 1347.5 c 128,-1,8
 691.361 1347.5 691.361 1347.5 746.855 1292.61 c 128,-1,9
 802.5 1237.56 802.5 1237.56 802.5 1159 c 0,0,1
616 1113.5 m 0,10,11
 634.113 1113.5 634.113 1113.5 646.514 1126.46 c 0,12,13
 659.5 1140.04 659.5 1140.04 659.5 1159 c 128,-1,14
 659.5 1177.96 659.5 1177.96 646.514 1191.54 c 0,15,16
 634.113 1204.5 634.113 1204.5 616 1204.5 c 0,17,18
 595.604 1204.5 595.604 1204.5 581.914 1192 c 0,19,20
 569.5 1180.66 569.5 1180.66 569.5 1159 c 0,21,22
 569.5 1140.67 569.5 1140.67 583.233 1127.23 c 0,23,24
 597.257 1113.5 597.257 1113.5 616 1113.5 c 0,10,11
EndSplineSet
EndChar

StartChar: ogonek
Encoding: 731 731 330
Width: 1228
Flags: W
LayerCount: 2
Fore
SplineSet
776.529 -365.696 m 2,0,1
 735.793 -393.568 735.793 -393.568 690.189 -410.737 c 0,2,3
 643.006 -428.5 643.006 -428.5 591 -428.5 c 0,4,5
 553.355 -428.5 553.355 -428.5 514.466 -414.974 c 0,6,7
 475.191 -401.313 475.191 -401.313 443.321 -374.564 c 0,8,9
 411.201 -347.605 411.201 -347.605 390.187 -307.851 c 0,10,11
 368.896 -267.571 368.896 -267.571 367.514 -214.973 c 0,12,13
 365.457 -167.123 365.457 -167.123 385.976 -122.097 c 0,14,15
 406.082 -77.9739 406.082 -77.9739 443.201 -41.4089 c 0,16,17
 479.763 -5.39303 479.763 -5.39303 530.096 20.0437 c 128,-1,18
 580.449 45.4906 580.449 45.4906 641.711 55.1635 c 2,19,-1
 643.948 55.5167 l 1,20,-1
 841.83 53.5332 l 1,21,-1
 728.38 1.96484 l 2,22,23
 656.783 -30.5794 656.783 -30.5794 616.078 -54.9014 c 0,24,25
 515.906 -118.145 515.906 -118.145 525.078 -190.401 c 0,26,27
 528.048 -214.162 528.048 -214.162 540.55 -229.734 c 128,-1,28
 553.052 -245.305 553.052 -245.305 567.014 -249.851 c 0,29,30
 583.572 -255.242 583.572 -255.242 603.885 -254.047 c 0,31,32
 626.623 -252.71 626.623 -252.71 648.448 -246.92 c 0,33,34
 670.743 -241.004 670.743 -241.004 689.665 -232.445 c 128,-1,35
 708.394 -223.972 708.394 -223.972 719.347 -216.39 c 2,36,-1
 752.036 -193.759 l 1,37,-1
 792.319 -354.892 l 1,38,-1
 776.529 -365.696 l 2,0,1
EndSplineSet
EndChar

StartChar: tilde
Encoding: 732 732 331
Width: 1228
Flags: W
LayerCount: 2
Fore
SplineSet
973.53 1233.12 m 2,0,1
 972.346 1228.38 972.346 1228.38 969.16 1217.76 c 0,2,3
 942.422 1126.41 942.422 1126.41 879.851 1074.07 c 0,4,5
 815.803 1020.5 815.803 1020.5 737 1020.5 c 0,6,7
 662.002 1020.5 662.002 1020.5 572.107 1092.29 c 1,8,9
 523.267 1128.63 523.267 1128.63 505.133 1138.36 c 0,10,11
 491.83 1145.5 491.83 1145.5 479 1145.5 c 0,12,13
 435.85 1145.5 435.85 1145.5 403.648 1060.17 c 1,14,-1
 389.48 1017.66 l 1,15,-1
 245.211 1066.93 l 1,16,-1
 256.428 1098.03 l 2,17,18
 330.173 1302.5 330.173 1302.5 479 1302.5 c 0,19,20
 532.173 1302.5 532.173 1302.5 572.883 1280.63 c 0,21,22
 609.013 1261.22 609.013 1261.22 651.391 1225.32 c 1,23,24
 714.271 1177.5 714.271 1177.5 743 1177.5 c 0,25,26
 760.059 1177.5 760.059 1177.5 773.377 1185.43 c 0,27,28
 787.581 1193.88 787.581 1193.88 797.406 1209.67 c 0,29,30
 810.032 1229.96 810.032 1229.96 815.529 1243.07 c 0,31,32
 821.731 1257.86 821.731 1257.86 829.457 1279.11 c 2,33,-1
 840.228 1308.73 l 1,34,-1
 980.856 1262.42 l 1,35,-1
 973.53 1233.12 l 2,0,1
EndSplineSet
EndChar

StartChar: hungarumlaut
Encoding: 733 733 332
Width: 1228
Flags: W
LayerCount: 2
Fore
SplineSet
798.368 1291.5 m 1,0,-1
 469.308 1004.5 l 1,1,-1
 308.985 1004.5 l 1,2,-1
 556.399 1291.5 l 1,3,-1
 798.368 1291.5 l 1,0,-1
1056.37 1291.5 m 1,4,-1
 727.308 1004.5 l 1,5,-1
 566.985 1004.5 l 1,6,-1
 814.399 1291.5 l 1,7,-1
 1056.37 1291.5 l 1,4,-1
EndSplineSet
EndChar

StartChar: Gamma
Encoding: 915 915 333
Width: 1228
Flags: W
LayerCount: 2
Fore
SplineSet
601.5 161 m 1,0,-1
 601.5 0 l 1,1,-1
 86.5 0 l 1,2,-1
 86.5 161 l 1,3,-1
 258.5 161 l 1,4,-1
 258.5 992 l 1,5,-1
 86.5 992 l 1,6,-1
 86.5 1153 l 1,7,-1
 1121.81 1153 l 1,8,-1
 1131.2 713 l 1,9,-1
 973.854 713 l 1,10,-1
 952.854 992 l 1,11,-1
 425.5 992 l 1,12,-1
 425.5 161 l 1,13,-1
 601.5 161 l 1,0,-1
EndSplineSet
EndChar

StartChar: Delta
Encoding: 916 916 334
Width: 1228
Flags: W
LayerCount: 2
Fore
SplineSet
1126.5 161 m 1,0,-1
 1126.5 0 l 1,1,-1
 100.5 0 l 1,2,-1
 100.5 161 l 1,3,-1
 198.143 161 l 1,4,-1
 530.143 1153 l 1,5,-1
 695.729 1153 l 1,6,-1
 1033.73 161 l 1,7,-1
 1126.5 161 l 1,0,-1
349 161 m 1,8,-1
 879 161 l 1,9,-1
 614 961.129 l 1,10,-1
 349 161 l 1,8,-1
EndSplineSet
EndChar

StartChar: Theta
Encoding: 920 920 335
Width: 1228
Flags: W
LayerCount: 2
Fore
SplineSet
925.5 804.5 m 1,0,-1
 925.5 368.5 l 1,1,-1
 764.5 368.5 l 1,2,-1
 764.5 506.5 l 1,3,-1
 464.5 506.5 l 1,4,-1
 464.5 368.5 l 1,5,-1
 303.5 368.5 l 1,6,-1
 303.5 804.5 l 1,7,-1
 464.5 804.5 l 1,8,-1
 464.5 667.5 l 1,9,-1
 764.5 667.5 l 1,10,-1
 764.5 804.5 l 1,11,-1
 925.5 804.5 l 1,0,-1
1150.04 389.794 m 0,12,13
 1126.41 299.908 1126.41 299.908 1079.01 223.186 c 0,14,15
 1031.52 147.336 1031.52 147.336 965.504 89.8847 c 0,16,17
 898.365 31.4581 898.365 31.4581 807.451 -0.915966 c 0,18,19
 716.917 -35 716.917 -35 614 -35 c 0,20,21
 445.926 -35 445.926 -35 316.616 49.223 c 0,22,23
 188.181 132.876 188.181 132.876 121.435 271.702 c 0,24,25
 55.5 408.843 55.5 408.843 55.5 575.076 c 0,26,27
 55.5 742.288 55.5 742.288 121.957 879.919 c 0,28,29
 189.184 1019.14 189.184 1019.14 317.541 1103.25 c 0,30,31
 446.874 1188 446.874 1188 614 1188 c 0,32,33
 742.592 1188 742.592 1188 850.419 1134.63 c 0,34,35
 958.037 1084.24 958.037 1084.24 1028.61 998.781 c 0,36,37
 1098.12 914.621 1098.12 914.621 1135.9 804.939 c 0,38,39
 1173.5 695.798 1173.5 695.798 1173.5 574.559 c 0,40,41
 1173.5 479.025 1173.5 479.025 1150.04 389.794 c 0,12,13
614 126 m 0,42,43
 728.137 126 728.137 126 816.526 188.043 c 0,44,45
 907.564 251.296 907.564 251.296 954.115 352.902 c 0,46,47
 1001.5 456.331 1001.5 456.331 1001.5 577.899 c 0,48,49
 1001.5 667.335 1001.5 667.335 973.069 749.539 c 0,50,51
 944.725 831.495 944.725 831.495 894.956 893.677 c 0,52,53
 846.314 954.451 846.314 954.451 772.752 990.903 c 0,54,55
 699.906 1027 699.906 1027 614 1027 c 0,56,57
 501.608 1027 501.608 1027 413.672 967.08 c 0,58,59
 324.207 906.118 324.207 906.118 276.225 804.884 c 0,60,61
 227.5 702.081 227.5 702.081 227.5 577.899 c 0,62,63
 227.5 452.74 227.5 452.74 276.266 348.962 c 0,64,65
 324.248 246.854 324.248 246.854 413.672 185.92 c 0,66,67
 501.608 126 501.608 126 614 126 c 0,42,43
EndSplineSet
EndChar

StartChar: Sigma
Encoding: 931 931 336
Width: 1228
Flags: W
LayerCount: 2
Fore
SplineSet
1023.5 442 m 1,0,-1
 1023.5 0 l 1,1,-1
 143.5 0 l 1,2,-1
 143.5 141.079 l 1,3,-1
 499.842 606.866 l 1,4,-1
 143.5 1010.73 l 1,5,-1
 143.5 1153 l 1,6,-1
 1013.5 1153 l 1,7,-1
 1013.5 713 l 1,8,-1
 854.638 713 l 1,9,-1
 835.638 992 l 1,10,-1
 365.972 992 l 1,11,-1
 707.254 608.569 l 1,12,-1
 349.545 161 l 1,13,-1
 853.858 161 l 1,14,-1
 865.858 442 l 1,15,-1
 1023.5 442 l 1,0,-1
EndSplineSet
EndChar

